<svg xmlns="http://www.w3.org/2000/svg" width="1024" height="1024"><path d="M361 100h302l46 2 24 2 15 2 16 3 5 1 17 5 6 2 12 5 16 8 3 2 5 3 4 3 3 2 4 3 4 3 2 2 3 2 6 6 3 2 10 10 2 3 6 6 2 3 2 2 2 3 3 4 3 4 3 5 2 3 3 5 8 16 5 13 3 9 3 11 2 9 3 19 1 8 2 24 2 45v304l-2 45-2 24-2 15-2 12-2 9-4 14-3 9-5 12-8 16-2 3-3 5-3 4-2 3-3 4-3 4-2 2-2 3-6 6-2 3-10 10-3 2-6 6-3 2-2 2-3 2-4 3-4 3-5 3-3 2-5 3-16 8-13 5-9 3-11 3-9 2-19 3-8 1-24 2-45 2H360l-45-2-24-2-15-2-12-2-9-2-14-4-9-3-12-5-16-8-3-2-5-3-4-3-3-2-4-3-4-3-2-2-3-2-6-6-3-2-10-10-2-3-6-6-2-3-2-2-2-3-3-4-3-4-3-5-2-3-3-5-8-16-5-13-3-9-3-11-2-9-3-19-1-8-2-24-2-45V360l2-45 2-24 2-15 2-12 2-9 4-14 3-9 5-12 8-16 2-3 3-5 3-4 2-3 3-4 3-4 2-2 2-3 6-6 2-3 10-10 3-2 6-6 3-2 2-2 3-2 4-3 4-3 5-3 3-2 5-3 16-8 13-5 13-4 7-2 15-3 13-2 8-1 24-2Z" fill="#8dcf82"/><path d="M350 324h70l1 1v34l-1 1h-73l1 36 1 1 33 1 1 1v33H240v107l1 1 31 1h2v2h2v33l106-1v-31l3-3h34l1 1 1 4v32l-1 1h-34v35l-2 2-70 1v31l71 1 1 1v35h178v-33h-35l-1-1v-35h-35l-1-1v-36l2-1h35v-35l1-2 34-1 1-33h1v34l2-1v-32l1-1h144V398h32l1 1v104l1 1v2h4l-2-1v-1h32l2 1 1 2 1 6v26h35l3 2v39h9l3 2 2 2 2 1 1 2v2h4v-2h-2l-1-1v-1l2-1h3l3 2v4h-3l-1 2h10l1 2h1l3-3h2l2 3v3l4-1 6 1v-2l3-2h12l3-1h3l-1-3 4-4h3v2h4l2 9 1 14 1 4 1 12 1 18 1 7v34l-1 24v4l-1 14-3 13-2 13-1 2-1 5-1 3-1 5-3 10-5 12-3 7-6 12-2 3-3 5-3 5-2 3-3 6-2 2-2 3-3 3-2 3-22 22-3 2-3 3-3 2-2 2-3 2-4 3-5 3-3 2-5 3-5 3-16 8-5 2-5 2-13 5-15 5-10 3-10 3-5 1 4 1v1l-7 1-13 1-45 2H360l-45-2-24-2-15-2-12-2-9-2-14-4-9-3-12-5-16-8-3-2-5-3-4-3-3-2-4-3-4-3-2-2-3-2-6-6-3-2-10-10-2-3-6-6-2-3-2-2-2-3-3-4-3-4-3-5-2-3-3-5-8-16-5-13-1-3v-4l1-4v-6l-1-23-1-45v-58l1-22 1-32 1-26 1-37 1-11 3-2h2v-2h2v2h2v8h2v-8h1l1 8 2-1h8v2l2-1h2l-1-1h-1v-2l5-1h8l4 1v-6h2v-2l8-3h3v-2h4v-6l1-1 1-7h2l1 1 3-4 3-2v-1l-1 1h-1v-4h2v-2l3-2 3-2 2-3h2l1 6 1-9 1-41 15-1 20-1 1-33 1-1 72-1 1-35 35-1v-22l1-11Z" fill="#54884b"/><path d="M361 100h302l46 2 24 2 15 2 16 3 5 1 17 5 6 2 12 5 16 8 3 2 5 3 4 3 3 2 4 3 4 3 2 2 3 2 6 6 3 2 10 10 2 3 6 6 2 3 2 2 2 3 3 4 3 4 3 5 2 3 3 5 8 16 5 13 3 9 3 11 2 9 3 19 1 8 2 24 2 45v78l-1 23h-1l-1-16-1-10-1-17-1-4-1-9-1-16v-7l-2-9-1-10-1-1v-10l-1-2-1-5-1-12v-7l-3-17-1-8-1-4-1-7-1-2-2-11-1-4-1-3v-3h-1l-2 3h-3l-2-2h-3l-1-1v-2l-3 2-1 1h-3l-1 2h2l4 4v3l2 2v2l-3 3-10 1-1 2-2 1-2 3h-5l-1 1h-1l-1-1-3 1v-2l-2 1h-3l-3 1v-2h-3v2l-3-1-2 2-2 3h-1l-2-3h-2v1l2 1v2l-2 2-1 2-2 1h-5l-2 2h-4v3h4l1 1v6l-1 1h-2v2l-3 1h-10v3h-15l1 5v2h-4l-10-1-1 1h9v3h-2l-7-1v2h2v5l-1 1-4 1-1 2h-7l-1 2h-5l-4-1-4 1v-2h-3v2l-1 1h-5v2l-2 1h-5l-2 2h-2v3l2-1h2l1 1v8l-5 1h-2l-3-3h-3l-5-5-11-1h-7l-5-1-2-1-6-1-1-2-4-1-1-1-1-4h-2l1 1v2h-2v2l-2 3-1 2h-1l-2-28-33-1-1-1-1-15v-17H420l-1 25-1 8-71 1-1 2-1 33h-35l-1 3-1 6h-1l-1-2v-6h-4v4h-28l-1-1v-4h-13l-2-2-4-1-1-1v-2l1-1 4-1v-3l1-1v-3l-1-1h-7l-1 1h-1l-1-1h-8l-2-1v2h-2l-5-1h-2l-1-1-3 1v-4l1-1 4 1-1-3-2-2-13-1-1-1v-3l1-2-2-1v-2l5-1-11 1-1 1h-1l-1-3-1-1h-15v-2h-3l-1-1v-1l1-1 1-3-3 1-7 1h-2v-2h7v-2h-2l-1-1v-2h-5l-1-1v-2l2-1 1-4 1-1h2v-2h-2l-2-2-10-1h-10v2l-1 1h-2v-3h-2l-1-1-8 1h-11l-2-2-3-1v3l-2 14-3 45-1 17-2 67-2 89-2 62-1 42-1 95v29h-1v-5h-2l-2-15-2-24-2-45V360l2-45 2-24 2-15 2-12 2-9 4-14 3-9 5-12 8-16 2-3 3-5 3-4 2-3 3-4 3-4 2-2 2-3 6-6 2-3 10-10 3-2 6-6 3-2 2-2 3-2 4-3 4-3 5-3 3-2 5-3 16-8 13-5 13-4 7-2 15-3 13-2 8-1 24-2Z" fill="#95d78c"/><path d="M238 397h1v35l-2 1-32 1-1 47-1 59v3l16 1 9 1v1l-2 1h-2v2h-4l1 3v5l-3 2h-2v3h2l1 1v5l2 4 1 4 2 2 7 3 7 14 3 4 1 1 1 7 3 2 2 3 3 2 3 2 2 3 1 4-2 2v4l2 2 1 3 2 3 1 4 2 4 3 1 2 2h1l1-2h1l1 1v3l-1 3v2l1 7 1 10 1 3v5l1 6 1 1v4l1 1v5h2l1 2 1 4 4 4 1 3 2 2v2l-4 2h-2v3l-3 1v2l3 2 3 4 3 2 2 1 1 2v3h8l10 2h3l3 2 4 1 3 3v1l-4 1-1 1h8l2 2v2l4-1 3 3v2h3l1 1v2h2v3l2 2v3l-1 5h2l-1 5h2l1 2h5v4h-8v12l-1 6-4 1-1 1-13-1h-6v-2h-3v-2l1-1h2l-1-2-2-1v-6h-17v8l-1 5-1 1h-20l-1-1-2-11v-8h-2l-1-1-1-8h-13l-1 2h-2v3l-2 10-1 8-1 4h-19l-4-1-1 1h-4l-1 1-4-1h-4l-2-2-2-1v-2h-2l-1-1v-4h-5l-1-1h-35l-3-1v2h-1l-1-1-4-1-4-2v-1l2-2 5-1-1-3-5-1-1-4-1-1-1 1h-6l-1 6h-2l-1-6v-4h-2l-2-2-1-3h-1l-1 1h-1v8l3 13 3 13 1 1h2l1 1v2l-3 2v5l2 5 2 5 3 4 1 1v2h2l3 2 2 5 2 3 3 4 2 3 3 4 2 2 2 3 3 3 2 3 4 4 3 1 8 8 3 2 2 2 3 2 4 3 5 3 4 3 5 3 16 8 11 4 9 3 16 4 17 3 14 2 1 1h18l4-1 2-2 25 1 16 1v2h2l1 1 13 1h7l14-1h6l14-1h158l55 1 21 1v-2l6-1 14-1 10-1h7l21-2 8-1 4-1h2l15-3 6-1 1-1 3-1 9-2 13-4 3-1 5-1 12-5 4-2 5-2 5-3 6-3 3-2 5-3 4-3 2-2 1-2h2v-2l5-3 5-5 3-2 15-15 2-3 4-4 2-3 2-3 1-2-3 1h-5l-1-2-1-20-53 1h-35l-1 20-1 1-9 1-37 1-1 1h-19v7l-1 7-1 3-1 1h-21l-1-4h-18l-2 1v4l-3 1-5-1h-3l-1 1h-1l-1 1h-8v2l-3 1h-2l-1 2-8 1-2 2h-20l-2-1v2h-1v-2l-2 1h-4l-2-1-1-7-2-3v-4l-15 1v2l-1 2h-1l-1-5-1-1-1-5-1-2h-10l-6-1v2l-2 2-1 4-2 4-2 2h-33l-9 1-2 8h-3v2h-1v-2l-4 2h-1v-2l-5 1-5-1-1-7v-2h-44l-1-1-1-4v-18l-1-1v-9l-1-1v-6l1-3 1-6 1-9 1-1h15l5 1 2 9v26h20l-1-6v-11l2-12 2-5 1-1 19-1 3 2h18l1-1 1-5 1-2 8-2h4l3-1h4l2 1 2 5v6l7-2 1-1-1-1v-1l5-5 2-1h4v-2l1-4 2-4 1-3 2-2 3-2 2-2h2v-2l3-1 3-2h2v-2l2-2h2v-2l2-4 3-1 3-2 6-3h4l1-1h1v2h19v-2h5l3-2h18l3 1 11 1h7v2l3-1 3-3h4l4 1h9l3 1 3 3v2l6-1 1-1h5l5-1 2-2 1-2 1-4 2-2 6-2 3-2 3-1 1-1h2v-2l1-2 3-2 4-4h2v-2l1-3 4-4h2v-2l3-5 2-4 3-4 2-3 1-4 2-3v-2h2v-6l2-3 2-11 1-2v-2l-9-1-4-1v-1l13-1 6-1 1-1 1-15v-56l9-1 24-1 3-1v-25l-1-10-35-1-1-1v-27h1v26h35l3 2v39h9l3 2 2 2 2 1 1 2v2h4v-2h-2l-1-1v-1l2-1h3l3 2v4h-3l-1 2h10l1 2h1l3-3h2l2 3v3l4-1 6 1v-2l3-2h12l3-1h3l-1-3 4-4h3v2h4l2 9 1 14 1 4 1 12 1 18 1 7v34l-1 24v4l-1 14-3 13-2 13-1 2-1 5-1 3-1 5-3 10-5 12-3 7-6 12-2 3-3 5-3 5-2 3-3 6-2 2-2 3-3 3-2 3-22 22-3 2-3 3-3 2-2 2-3 2-4 3-5 3-3 2-5 3-5 3-16 8-5 2-5 2-13 5-15 5-10 3-10 3-5 1 4 1v1l-7 1-13 1-45 2H360l-45-2-24-2-15-2-12-2-9-2-14-4-9-3-12-5-16-8-3-2-5-3-4-3-3-2-4-3-4-3-2-2-3-2-6-6-3-2-10-10-2-3-6-6-2-3-2-2-2-3-3-4-3-4-3-5-2-3-3-5-8-16-5-13-1-3v-4l1-4v-6l-1-23-1-45v-58l1-22 1-32 1-26 1-37 1-11 3-2h2v-2h2v2h2v8h2v-8h1l1 8 2-1h8v2l2-1h2l-1-1h-1v-2l5-1h8l4 1v-6h2v-2l8-3h3v-2h4v-6l1-1 1-7h2l1 1 3-4 3-2v-1l-1 1h-1v-4h2v-2l3-2 3-2 2-3h2l1 6 1-9 1-41 15-1 20-1Z" fill="#5e9252"/><path d="M350 324h70l1 1v34l-1 1h-73l1 36 1 1 33 1 1 1v33H240v107l1 1 31 1h2v2h2v33l106-1v-31l3-3h34l1 1 1 4v32l-1 1h-34v35l-2 2-70 1v31l71 1 1 1v35h178v-33h-35l-1-1v-35h-35l-1-1v-36l2-1h35v-35l1-2 34-1 1-33h1v34l2-1v-32l1-1h144V398h32l1 1v104l1 1v2l35 1 1 33 1 1 35 1 1 1 1 33-1 1-35 1-1 1-1 71-1 1-33 1-1 35H566v36l-1 1-10 1H410l-25-1-2-1-1-35h-16l-53-1-1-1-1-19v-15h-9l-26-1-1-1-1-6h-1l-1-52v-9l1-3h-33l-2-2v-35l-33-1-1-2v-36l1-71 34-1v-36l72-1 1-35 35-1v-22l1-11Z" fill="#4c3e42"/><path d="M422 324h106l1 1v35l-35 1-1 107h2l1 1h31l2 2 1 34 35 1v34l-1 1h-34l-1 37-37 1 1 36 35 1 1 35 35 1v33H386l-1-35-71-1-1-1v-31l1-1 70-1 1-1 1-35 34-1v-32l-1-4h-34l-2 2v31l-1 1H276v-33h-2v-2l-2 1-31-1-2-2V434l1-2h143l-1-33-33-1-2-2v-36l73-1v-5l1-29Z" fill="#bfa040"/><path d="M315 120h26l-1 3h-5l1 3 3 3 4 1 1 1 7 1 1 2v2l-1 1-4 1-1 2h-2l-2-2h-1l-2 3-2 2h-5v6h5l1 1v2h8l1 2h4l6 1v2l-6 1h-2v2h-3l-1-2h-1l-2 2 26 1 1 2 5 1v-2l1-1h2v3l-2 2-1 2h-8v4h2v3l6 1 13 1 1 1v1l-1 1h-12l-1 6h14l1 2 7 1v2l-4 1-2 2-4 1-4 4h-2l-1-2h-7v2l3 3 4 1 1 1 12 1h7v3h-5v2l-1 1-10 1-2 5h26l1 2 3 2v2h36v2h2l3 1v1l-5 2h-5v5l6-1h16l4 2h4l1-2h2l1 2h2l1-2 3-2h4l1 1 3 1v-2h2l1 4h5l1-1h4l1 1h2l1-1h2l3 2v-2h2l1 1h5l1-1 3 1h6l-1-2v-2l2-1 1-2h2v5h8l1 1v2l3-1v-2l-2-3v-2h16v-2l16-1 1-2h11v-3l-5-1-1-1v-1h25v5l2 1v2l-1 3v2l1 1 1 4v5l-1 3-20 1-1 21-3 1h-41l-2-1-1-21H409l-1 21-2 1h-42v21l-2 2-13 1h-29v3l1 8h3v-8h7l1 1 5 1v3l-1 1-1 5h-2l-1 1 11-1v-2l1-1h9l2 2h1l1-1h3l3 2 1 1h13l4-1h10v2h5l1 1v2l3-2h2l4 1v-3h5l1-1 1-5v-2l1-2h1l1 11v15h2v1l-71 1-1 2-1 33h-35l-1 3-1 6h-1l-1-2v-6h-4v4h-28l-1-1v-4h-13l-2-2-4-1-1-1v-2l1-1 4-1v-3l1-1v-3l-1-1h-7l-1 1h-1l-1-1h-8l-2-1v2h-2l-5-1h-2l-1-1-3 1v-4l1-1 4 1-1-3-2-2-13-1-1-1v-3l1-2-2-1v-2l5-1-11 1-1 1h-1l-1-3-1-1h-15v-2h-3l-1-1v-1l1-1 1-3-3 1-7 1h-2v-2h7v-2h-2l-1-1v-2h-5l-1-1v-2l2-1 1-4 1-1h2v-2h-2l-2-2-10-1h-10v2l-1 1h-2v-3h-2l-1-1-8 1h-11l-2-2-3-1v3l-2 14-3 45-1 17-2 67-2 89-2 62-1 42-1 95v29h-1v-5h-2l-2-15-1-11v-12h1l1 7 1-1v-64l1-31 1-46 1-37 1-28v-12l2-77 1-27v-12l1-20 1-13 1-20 2-23 2-15 1-5 1-8 2-10 1-3 2-9 3-9 1-1 1-5 4-10 9-18 3-4 2-4 3-4 2-2 2-3 1-1 1-4 5-5 2-3 15-15 3-2 4-4 3-2 2-2 3-2 4-3 5-3 3-2 5-3 4-2 3-2 7-3 7-3 5-2 12-4 12-3 19-3 7-1Z" fill="#92d78e"/><path d="M361 100h302l46 2 24 2 15 2 16 3 5 1 17 5 6 2 12 5 16 8 3 2 5 3 4 3 3 2 4 3 4 3 2 2 3 2 6 6 3 2 10 10 2 3 6 6 2 3 2 2 2 3 3 4 3 4 3 5 2 3 3 5 8 16 5 13 3 9 3 11 2 9 3 19 1 8 2 24 2 45v7l-1 26h-1l-3-49-1-1-1-10-2-16-1-9-1-3-1-8-1-2-2-14-1-5-1-1-1-5-2-5-3-11-1-1-3-9-2-3-1-5-2-4-2-1-7-14-2-2-3-5-2-3-2-3-2-1-1-3 1-1 3-1h4v-3l-6-6-2-3-3-3h-1l-1-3-3-2-16-16-4-2-4-3-3-3-4-2-4-3-5-3-1-1-4-1-3-1-5-3-4-2-4-1-5-2-14-4-3-1-10-2-10-2h-2l-4-1-15-2-10-1-17-1-29-1h-16l-1 1-4 1-1 4h5l1 1v2h5l1 1v1l-4 4h-2v2l-1 1-7 1-1 1-4 1v2h9l1 1v2h2l1 1v2h11v2l-4 4-21 1 9 1-1 3h-8v2l-3-1v2l-1 1-4 1-2 2h-4l-1-1v-2h-2v2l-1 1h-2l-2-1 2 3 1 1 4 1 1 1v2l-4 4-4 1-1 1h-16v3l6-1h3l2 1v2h5l1 1-1 3-5 1-1 2h-19v4h7l2 2 10 1 1 2 3 2v1l-5 5h-7v2h-2l-2-2-4-1v3h2l1 2 2 1 1 3-31 1 5 1 1 1-1 3h-11v2l-1 1h-16v2h-16l3 5v2l-1 1h-3l-1-2h-6l-2-1v-5h-2v2l-1 1h-2l1 2v2l-2 1h-4l-3-1-1 1h-5l-3-2v2h-2l-1-1h-2l-1 1h-2l-1-1h-4l-1 1h-5l-1-1v-4h-2v2h-3l-1-1h-4l-1 1h-2v2l-1 1h-2l-1-1v-2h-2v2l-1 1h-4l-4-2h-22v-5l5-1 2-1v-1l-2-1v-2h-36l-1-2-3-2v-2h-26v-3l2-3 10-1 1-2h5v-3l-4 1h-3l-12-1-1-1-4-1-4-4v-2l1-1h7l1 1v2l3-2 3-3 4-1 2-2h4v-2h-7l-1-1v-2h-14v-6l1-1h12v-1l-13-1-8-1v-1h2v-3h-2v-4h8v-2l2-2 1-3-2 1-1 2h-5l-1-1v-2h-27v-1l3-3h1l1 1v2h3v-2l2-1h6v-2h-10l-1-1v-2h-8l-1-2-5-1v-6l5-1 2-2 2-3h1l2 2 2 1v-2l1-1 4-1v-4h-7l-1-1-4-1-4-4v-3h5v-2h-25l-26 2-14 2-12 2-12 3-15 5-4 2-5 2-7 3-5 3-4 2-3 2-5 3-4 3-3 2-4 3-2 2-3 2-4 4-3 2-14 14-2 3-4 4-1 4-2 2-2 3-2 2-3 5-3 5-2 3-9 18-3 8-1 5-1 1-3 9-2 9-1 3-2 10-1 8-2 12-1 8-2 23-1 20-1 13-1 20v12l-1 27-2 79v10l-1 28-1 37-1 46-1 33v63l-3 1-1-8-1-1-2-45V360l2-45 2-24 2-15 2-12 2-9 4-14 3-9 5-12 8-16 2-3 3-5 3-4 2-3 3-4 3-4 2-2 2-3 6-6 2-3 10-10 3-2 6-6 3-2 2-2 3-2 4-3 4-3 5-3 3-2 5-3 16-8 13-5 13-4 7-2 15-3 13-2 8-1 24-2Z" fill="#90d897"/><path d="M423 289h214l2 1 1 33 34 1 1 1 1 34 35 1 1 36h35l1 1 1 83v25h3v1l-1 1h-2l-2-1-2-3V399l-32-1v109l-144 1-1 32h8v1h-10l-1-34-35-1-1-1-1-34-1-1h-31l-3-2V361l1-1h35l-1-35-105-1-3-2v-4l1-28Z" fill="#585b4d"/><path d="M238 397h1v35l-2 1-32 1-1 47-1 59v3l16 1 9 1v1l-2 1h-2v2h-4l1 3v5l-3 2h-2v3h2l1 1v5l2 4 1 4 2 2 7 3 7 14 3 4 1 1 1 7 3 2 2 3 3 2 3 2 2 3 1 4-2 2v4l2 2 1 3 2 3 1 4 2 4 3 1 2 2h1l1-2h1l1 1v3l-1 3v2l1 7 1 10 1 3v5l1 6 1 1v4l1 1v5h2l1 2 1 4 4 4 1 3 2 2v2l-4 2h-2v3l-3 1v2l3 2 3 4 3 2 2 1 1 2v3h8l10 2h3l3 2 4 1 3 3v1l-4 1-1 1h8l2 2v2l4-1 3 3v2h3l1 1v2h2v3l2 2v3l-1 5h2l-1 5h2l1 2h5v4h-8v12l-1 6-4 1-1 1-13-1h-6v-2h-3v-2l1-1h2l-1-2-2-1v-6h-17v8l-1 5-1 1h-20l-1-1-2-11v-8h-2l-1-1-1-8h-13l-1 2h-2v3l-2 10-1 8-1 4h-19l-4-1-1 1h-4l-1 1-4-1h-4l-2-2-2-1v-2h-2l-1-1v-4h-5l-1-1h-35l-3-1v2h-1l-1-1-4-1-4-2v-1l2-2 5-1-1-3-5-1-1-4-1-1-1 1h-6l-1 6h-2l-1-6v-4h-2l-2-2-1-3h-1l-1 1h-1v8l3 13 3 13 1 1h2l1 1v2l-3 2v5l2 5 2 5 3 4 1 1v2h2l3 2 2 5 2 3 3 4 2 3 3 4 2 2 2 3 3 3 2 3 6 6 2 3 4 4 3 2 5 5 3 2 4 3 2 2 3 2 3 2 3 2 1 1 3 1 3 2 3 2 5 2 1 1 5 2v1l-3 1-7-3-16-8-3-2-5-3-4-3-3-2-4-3-4-3-2-2-3-2-6-6-3-2-10-10-2-3-6-6-2-3-2-2-2-3-3-4-3-4-3-5-2-3-3-5-8-16-5-13-1-3v-4l1-4v-6l-1-23-1-45v-58l1-22 1-32 1-26 1-37 1-11 3-2h2v-2h2v2h2v8h2v-8h1l1 8 2-1h8v2l2-1h2l-1-1h-1v-2l5-1h8l4 1v-6h2v-2l8-3h3v-2h4v-6l1-1 1-7h2l1 1 3-4 3-2v-1l-1 1h-1v-4h2v-2l3-2 3-2 2-3h2l1 6 1-9 1-41 15-1 20-1Z" fill="#629a58"/><path d="M713 398h32l1 1v104l1 1v2l35 1 1 33 1 1 35 1 1 1 1 33-1 1-35 1-1 1-1 71-1 1-33 1-1 35H566v-34l1-2 2-1h178v-36H566v-35l2-1 214-1 1-1v-33l-1-1-206-1-8-1v-32l1-1h144Z" fill="#453540"/><path d="M702 175l79 1 38 1 13 1v17l-1 2h-1l-1-1v-15l-4 1v2h2v1l-1 1-7 1v10h5v1l-23 1 2 2v3l5 1v2l-2 2-1 2-2 1-1 2h-5l-1-1v-2l-2 1v3l3 3v3l6 6 2 1v3l-8 1v3l-2 2h-6v4l4 1 3 3v3h-14v2l-3 2-38 1-1 1h-5v2h5v2h2l1 1v3l-5 1-2 2h-6l-1 5h5v3h-5v2l-1 1h-8v2l-4 1h-10v2l-1 1h-7v2l-1 1h-15l-1 2-5 1v1l4 2 1 2v2l-1 1h-2v2l2-1h5v4l-1 1h-1v-3l-6 1-4-1-1-2-4-1-4-4h-14l-1 1h-1l-1-1v-2h-2v5h4l1 1v2h5v3l-2 2h-4v-2h-2l-1-4-2 9h-1l-1-4-1-13-1-1-220-1-1 27-1 7h-2l-1-15-1-9v3l-1 4-1 2-6-1v3h-6l-1 1h-2l-1-2-5-1v-2l-10 1-5 1h-13l-1-2-2-1h-3l-1 1h-1l-2-2h-9l-1 2h8v1h-19v-2l3 1v-5l1-1 1-3h-5l-1-1-7-1 1 8-1 1h-3l-1-1-1-8v-3l1-1h31l11-1 1-1v-19l1-2 44-1v-21l1-1h132l1 1v21h46v-21l1-1 20-1 1-1v-18l1-3h44v-20l1-2 43-1 1-1 1-20Z" fill="#a0df93"/><path d="M422 324h106l1 1v35l-35 1-1 107h2l1 1h31l2 2 1 34 35 1-1 33-1 1h-35v36l-39 1h-66l-1-34h33l3-1v-72l-3-2h-31l-1-1v-37l-37 1-1-35h-36l-1-2v-32l2-2 70-1v-5l1-29Z" fill="#dfdf4f"/><path d="M565 507h1v34h216l2 2v33l-2 2-216 1v35h181l1 3v12l-1 21-3 1H567l-1 36H384l-1-36-70-1-1-1v-34l1-1 70-1 1-1v-31l-3-2-105-1-1-1v-33h1v32l106-1v-31l3-3h34l1 1 1 4v32l-1 1h-34v35l-2 2-70 1v31l71 1 1 1v35h178v-33h-35l-1-1v-35h-35l-1-1v-36l2-1h35v-35l1-2 34-1Z" fill="#795742"/><path d="M240 433h144l1 1v35h34l1 1v36h-2l-2-1-1 1h-30v36l-2 2v31l-1 1H276v-33h-2v-2l-2 1-31-1-2-2V434Z" fill="#dedfcf"/><path d="M568 327h68l1 33 36 1v34l-36 1-1 3-1 69h2l2 2h35l1-1 1-71h34v71l-1 31-1 3-139-1v-1l1-1h33l-2-29-3-1h-26l-1 1h-2l-1-2h-2l-2-1h-31l-2-1-1-72v-33l1-1h4l33 1Z" fill="#e7e7e7"/><path d="M711 360h1l1 13v20h35v2h2l1 43 1-4 3-2h1l5 5 3 2 2 5 2 2 4 1 3 2 1 3 2 2v3l2-1v-1l3-2h1v6h2l1 1v3h2l1 3 1 1 1 5 1-1h1l1 1v7h4l2 3v6h2l1 4 1-4 3-1h13v5h2v-5h2v-3l1-5 1-1h29l3 1v-3h3v-6h37l-2-3-2-2 1-13 4-1 5 3 1 2 4 45v9l2 3 1 3 3 30 1 4 1 13 1 9v10h2l1 11 1 19 1 11v41l-2 45-2 24-2 15-2 12-2 9-4 14-3 9-5 12-8 16-2 3-3 5-3 4-2 3-3 4-3 4-2 2-2 3-6 6-2 3-10 10-3 2-6 6-3 2-2 2-3 2-4 3-4 3-5 3-3 2-5 3-16 8-13 5-9 3-11 3-9 2-19 3-8 1h-4l-8-1v-1l9-2 13-4 13-4 12-4 10-4 5-2 7-3 16-8 3-2 5-3 5-3 4-3 3-2 4-3 2-2 3-2 3-3 3-2 21-21 2-3 3-3 2-3 2-3 3-6 3-4 2-4 2-3 3-5 6-12 2-5 5-12 3-10 1-5 1-3 1-5 1-2 2-13 3-13 1-14v-5l1-24v-33l-1-7-1-18-1-13-1-3-1-14-1-4v-5h-4l-1-1h-2l-3 3v3l-6 2h-12l-2 1-1 2h-10l-2-5h-2l-3 3h-1l-1-1v-2h-10v-2l1-2h1v2h2v-4h-2l-1-1h-3l-1 1 2 1v2h-4l-1-2v-2h-2l-3-3-2-1-9-1v-39h-2l-1-1-35-1-1-26-1-6v-2l-34-1-1-3v-21l-1-83-35-1-1-2Z" fill="#74b468"/><path d="M238 397h1v35l-2 1-32 1-1 47-1 56h-1l-1 7-1 1v3l-1 8-4 4v12l1 1v2l-1 4h-1v3l2 2 2 3 1 1 1 4v2h2l1 3h1l1-2h3l3 4 2 5 3 3 2 4 2 2v2h3l2 2-1 4-1 3-1 1-6 1-3 1 1 1 5 1 1 3-3 1h-2l5 1 1 3 2 1v1l-2 1v3l-1 3h7l3 1 8 1 1 1v1l-1 1v1l1-1h2l1 1v4l-5 2-1 3v2l2 3v1l-2 2-2 4-5 1-2 14-1 9-1 1h-3l-2-1-2-3-3-3v-3h-4l-2-1v4h-2l-1-3-2-9v-6l-3 1-14-1v6l-1 1-3 1-1 1-1 4-4 1-3-1-1-1v-3h-5l-3-1-1 3-1 1h-1l-1-5-1-1v-6l-5 1h-11l-5 1-2-4-2-3-2-4-2-1v2l-2 1-4 1h-5v26l1 32 2 24 2 16 3 17 1 7v15l-1 1v7h-2l-5-10-5-13-1-3v-4l1-4v-6l-1-23-1-45v-58l1-22 1-32 1-26 1-37 1-11 3-2h2v-2h2v2h2v8h2v-8h1l1 8 2-1h8v2l2-1h2l-1-1h-1v-2l5-1h8l4 1v-6h2v-2l8-3h3v-2h4v-6l1-1 1-7h2l1 1 3-4 3-2v-1l-1 1h-1v-4h2v-2l3-2 3-2 2-3h2l1 6 1-9 1-41 15-1 20-1Z" fill="#68a75f"/><path d="M784 513h1v26h35l3 2v39h9l3 2 2 2 2 1 1 2v2h4v-2h-2l-1-1v-1l2-1h3l3 2v4h-3l-1 2h10l1 2h1l3-3h2l2 3v3l4-1 6 1v-2l3-2h12l3-1h3l-1-3 4-4h3v2h4l2 9 1 14 1 4 1 12 1 18 1 7v34l-1 24v4h-1l-1-1-1-31-1-16-1-12-1-4-2 37-2 24-1 7-1 1h-2l-2-2h-3l-4-1v4l-2 2h-10v2l-1 1h-6v-3h-2v3h-5v4h-16l-1-1-1 1h-4l-1 1v3l-1 2-4 1-2 2h-3v-2l-3 1-1 2h-3l-1-1v-3l-2 1-1 2h-3l-1 3h-2l1 3v4l-1 4h-1l-1-1-1 1-5-1-1 1h-13l1-3 2-3h2v-2l2-2-3-1v3l-1 1h-1l-1-3-2-1v-8h-3v-3l2-2 1-4v-5h-1l-1-1v-5l2-3 2-12v-5l1-2 2-9 1-1 1-3h-2l-2-1v-2h2v-2l1-3v-6l1-2v-4l2-5v-5l1-3 1-1 2-14v-7l1-1v-6l-1-1-2-11v-2h-2l-3-5v-2h-2l-2-2-1-3h-1l-1 4h-1l-1-3-1-7v-3l9-1 24-1 3-1v-25l-1-10-35-1-1-1Z" fill="#68a35b"/><path d="M274 623h1l1 27 26 1 9 1 1 2v13l1 19 53 1 16 1 1 2v33l27 1h145l10-1 1-36h182v1l-1 1-12 2v1l3 1v1h-2v2l-2 2-2 3-3 2h-4v2l-1 5-1 8-1 5-2 4-1 1-5 1-2 1-5 1h-4l-3-2-1-5-1-2v-2h-2l-1-1v-1h2l-1-1h-15l-1-1h-1l-1 2h-18l-4-1-1-1-21-1-2 1h-25l-1 1h-12l-1 1h-2l-2-1 1 2v3l-2 3-1 4-2 1-1 3h-5l-2 2-2 3-2 1h-3v2h-3v4l-1 2-1 4-3 6-2 2-3 2-1 3-4 3-4 1h-4l-1-2-2-9-1-2h-3l-1 1-5 2-1 1h-3l-2 1h-3l-2 1-5 1-12 1h-4l-2-1h-55v2h-5l-1-2-18-1-7-1-3-1-2-5-3-3v-2l1-2-3 1-1-1v-2h-2l-4-2-2-3-3-1 1-3h-2l-1 2-2 12-2 3h-3l-1-4-2-2-3-1-3-2-3-1v-2h-2l-3-3-2-1-4-1v-2h-4l-2-2-2-1-5-1-3-2-5-3-3-1-2-2-3-2-3-3-3-2-2-3-2-3-1-5-2-3-1-4-3-3v-2h2l1-1-5-1-1-5v-4h-2v2h-1l-2-3-1-5-2-5v-2l-1-4-1-1v-6l1-1 5-1h4l-7-1-16-1-10-1-1-1Z" fill="#507f48"/><path d="M186 166h2v2h7l3 4 2 2 5 1v5h8l1 1v1l-3 2-1 1-4 1-1 4-4 4-1 3h4l2 2 4 1 2 2 2 1v2l-3 2-1 1h-2v3h2l1 1v2h5l2 2 7 1 1 2 2 1v2h10l1 1v4l-1 1h-2l1 4-1 1-4 1 21 1v3l-1 1h-2v3h5l1 1v2h8v2h-2v2l-4 4h-2v3h8l1 2 10 1 1 1v2h8l1 2h3l2 2v3l-1 1-3 1h2l1 1v2h4v-2h1l1 1 5 1 1 3-1 1h-5l1 3 3 2 3-1h4l1 1 3 1h10v2l-2 1-2 4v4l1 1v13l-2 1-18 1-1 21-2 2h-44l-2-2v-20h-19l-2-1-1-17v-5l-21-1-1-1v-21h-44l-1-1-1-21h-26v-3l4-10 9-18 3-4 2-4 3-4 2-2 2-3 3-4 5-5 2-3 15-15 3-2Z" fill="#88d088"/><path d="M491 360h3l-1 108h2l1 1h31l2 2 1 34 35 1-1 33-1 1h-35v36l-39 1h-66l-1-34h33l3-1v-72l-3-2h-31l-1-1v-1h33v-2h-31v-11l1-22h2l2 3h53v-9l1-10h1v9h3l1 24v21h2Z" fill="#d7d74f"/><path d="M420 288h218l2 1 1 2v15l1 15 33 1 1 1v35h32l3 1v1h-35l-1-1-1-34-34-1-1-1v-33H421v32l2 1v1l-1 1h-72l-1 1-1 11-1 22-2 1h-33v35l-1 1-72 1-1 33-1 1-20 1h-15v41l-1 15h-1l-1-6v-6l-2 1-2 3-3 2-1 1h-2v2h-2l1 3 1-1h1v2l-4 3-2 3-1 1h-1v-2h-2v7l-1 1-1 6h-4v2l-6 2-2 1h-3v2h-2v6h-17l1 1h1v2l-2 1h-2v-2l-8 1-3 1-1-1h-2v-8h-2v-2h-2v2l-4 2-1 11-1 37-1 26-1 32-1 22v58l1 45 1 24v6l-1 3-1 1h-1l-4-14-2-9-1-6v-6h1v-24l1-95 1-42 1-31 1-18 1-10 1-19 2-53 2-37 1-1h7v-2h-7v-5l1-1 7-1 2-1h13l1 3 3 2 1-1h34l1 3-1 1h-2v5h2l1 4 1-4h4l1 2 2 1v-3l2-1h3v-2l1-1h2v-5h7v2l2 1v-2l6-2 2-2h2v-2l1-1h6l1 4 1 1h1l3-3 1-5h1l1 7 1 11 1-5 1-20 1-2 2-1h69v-7l1-27v-1l1-1h33l2 1v-33l2-3h71v-8l1-25ZM891 394h11l1 1h1l2 3 1 15 1 5 2 22v11h2l1 7 1 10 1 15 1 8 1 12 1 9 2 5 2 25 1-32h1v113h-1l-1-11-1-19v-11h-2l-2-19-1-13-1-4-3-30-2-5-1-1v-9l-4-45v-2h-2l-3-2h-4v13l3 3v2l-4 1-33-1v6h-3v2h2v1h-2v3h-1v-3h-31l-1 5-1 3h-2v5h-2v-5l-4 1h-12v8h-1l-1-4v-4h-2l-1-6-1-2-4-1-1-7-1 1h-1l-1-1-1-5-1-1v-3h-2l-1-3-2-1-1-5-2 2v1h-3l-1-3-2-2-1-3-2-1-4-1-3-3-2-5-3-2-4-4h-1l-1 1h-2v5h-1l-1-1v-16l1-1 1-11v-3l3-3h1l2 2v3h3v3h3l3 1 1-1v-1l-2-1v-3h2v2h2l1 2 6 1v3h5v-3h2l5 3 3 3v3h17l2 4 1-4h2v-2h-2v-2h2v-4h-2v-1h34l1 7 1-7h3l-1-7-2-1v-3l5-1 13 1 1 2v2h20v1l-1 1v2l1 1v-10l1-5Z" fill="#88c778"/><path d="M361 100h302l46 2 24 2 15 2 16 3 5 1 17 5 3 1v2h2v1h-3l-5-1-8-1-21-2h-7l-17-1-26-1-37-1-58 1H355l-29 1-20 1-19 2-17 3-14 3-18 6-7 3-7 3-12 6-3 2-5 3-3 2-4 3-3 2-4 3-2 2-3 2-3 3-3 2-17 17-2 3-5 5-2 3-3 4-2 2-3 5-2 3-3 5-2 3-7 14-2 5-2 4-3 11-2 5-2 10-2 5-3 15-1 7-1 4-2 17-2 24-2 31-1 21-2 103-1 47h-1l-1-11V336l1-21 2-24 2-15 2-12 2-9 4-14 3-9 5-12 8-16 2-3 3-5 3-4 2-3 3-4 3-4 2-2 2-3 6-6 2-3 10-10 3-2 6-6 3-2 2-2 3-2 4-3 4-3 5-3 3-2 5-3 16-8 13-5 13-4 7-2 15-3 13-2 8-1 24-2Z" fill="#b7efb9"/><path d="M531 361h2v93l1 8 1-65h29l1 2 2 32v18h55l7 1 1-17h2l1 15 1 2h1v18h2l2 2h35l1-1 1-71h34v71l-1 31-1 3-139-1v-1l1-1h33l-2-29-3-1h-26l-1 1h-2l-1-2h-2l-2-1h-31l-2-1-1-72v-33Z" fill="#dfdfdf"/><path d="M711 360h1l1 13v20h35v2h2l1 43 1-4 3-2h1l5 5 3 2 2 5 2 2 4 1 3 2 1 3 2 2v3l2-1v-1l3-2h1v6h2l1 1v3h2l1 3 1 1 1 5 1-1h1l1 1v7h4l2 3v6h2l1 4 1-4 3-1h13v5h2v-5h2v-3l1-5 1-1h29l3 1v-3h3v-6h37l-2-3-2-2 1-13 4-1 5 3 1 2 4 45v9l2 3 1 3 3 30 1 4 1 13 1 9v10h2l1 11 1 19 1 11v41h-1v-39h-2l-3-2-1-2-1-11-1-6-2-22-1-7-1-12-1-6-1-17-1-3-1-18-1-6-1-1v-2l-3 1h-4l1 2v6h-2v-6l-12 1-2 2 1 1v2l-6 1h-10l-2-1 1 2v4l-1 1h-2v2h-2v2h-11v3h-8l-1 1h-1l-1-1-7 1h-2l1 4-1 1h-5l-1-3-6-3-6-1-2-1v2l-1 1-4-1-9-2-2-3-3-1v-6h-2l-2 12h-1l-1-2-1-25-1-2-16-1-8-1v-1l5-1h11v-2h-2l-3-2-1-1-1-5-1-1-2-10-1-1-1-4-3-2-2-5v-5h-2l-1-1v-4l-3 1-2 3h-1l-1-22v-43h-37l-1-2Z" fill="#7fbf70"/><path d="M238 397h1v35l-2 1-32 1-1 47-1 56h-1l-1-8h-1l-1-2v-12h-2v5l-1 1-1 5-2 3-1 10-2 11-1 1v3h2l2 2v2l-2 2-1 3-1 1-1 8v10l1 3 1 1v4l-1 1v2l1 1v7l1 1v2l1 1v2h-1l-3-2-2-1v3l-1 1h-8l-2-1v2h-2l-2-1-4-1v4h-1l-1-2h-26l-1-4v-4l-4 1h-3v2l-1 1h-2l-3 3h-6v104l1 20 1 15 3 24 2 14v17l-1 2h-3l-5-12-2-6v-4l1-4v-6l-1-23-1-45v-58l1-22 1-32 1-26 1-37 1-11 3-2h2v-2h2v2h2v8h2v-8h1l1 8 2-1h8v2l2-1h2l-1-1h-1v-2l5-1h8l4 1v-6h2v-2l8-3h3v-2h4v-6l1-1 1-7h2l1 1 3-4 3-2v-1l-1 1h-1v-4h2v-2l3-2 3-2 2-3h2l1 6 1-9 1-41 15-1 20-1Z" fill="#73b368"/><path d="M423 291h214v31h-73v36l-33 1v-37H423Z" fill="#463640"/><path d="M567 543h215v32l-1 1v1h-2l-1-1H567Z" fill="#c66048"/><path d="M387 688h176l2 2v32l-1 1H386l-1-1 1-33Z" fill="#423240"/><path d="M667 111l37 1 26 1 17 1h7l21 2 8 1 6 1v-1h3l12 5 16 8v1l-1 1h-2l-3-2-6-3-3-1h-11l-17-3-24-3-18-2-24-1h-8l-26-1h-25l-315 1-27 1-10 1-13 1-12 2-15 3-11 3-9 3-5 2-5 2-7 3-6 3-3 2-6 3-4 3-3 2-3 2-4 3-3 2-3 3-3 2-3 3-3 2-12 12-2 3-6 6-2 3-2 2-2 3-3 4-3 4-3 5-3 5-7 14-2 5-2 5v2l1 2v4l-3 9-2 9-1 3-2 10-1 8-2 12-1 8-2 23-1 20-1 13-1 20v12l-1 27-2 79v10l-1 28-1 37-1 46-1 33v63l-3 1-1-8-1-1-2-45V360h1l1 167 1-36 2-103 1-21 2-31 2-24 2-17 1-4 2-12 2-10 2-5 2-10 2-5 3-11 3-6 2-5 7-14 3-4 2-4 3-4 2-3 2-2 2-3 3-4 5-5 2-3 18-18 3-2 3-3 3-2 2-2 3-2 4-3 3-2 3-2 5-3 5-3 12-6 5-2 10-4 15-5 14-3 17-3 19-2 20-1 29-1h254Z" fill="#a2de9a"/><path d="M568 616h177v33H568l-1-1v-31Z" fill="#c06048"/><path d="M566 324h71l1 1 1 34 35 1 1 1v35h34l2 1v107l-3 2H603l-37-1-1-35-35-1-1-3V360h36Zm2 3v35l-33-1h-4l-1 1v33l1 72 3 1h30l3 1h1l1 2h2l1-1h26l3 1 2 29h-33l-1 1v1l139 1 1-3 1-31v-71h-34l-1 71-1 1h-35l-2-2h-2l1-69 1-3 36-1v-34l-36-1-1-33Z" fill="#d5d7d5"/><path d="M277 580h105l1 1-1 31-70 1-1 1-1 35-1 1h-31l-2-2v-67Z" fill="#463640"/><path d="M361 100h302l46 2 24 2 8 1 2 1 4 1v1h-15l-21-1-29-1H370l-31 1-30 2-27 3-11 2-16 4-7 2-5 2-6 2-7 3-4 1-16 8-3 2-5 3-4 3-5 3-2 2-3 2-2 2-3 2-5 5-3 2-19 19-2 3-3 3-2 3-3 4-3 4-3 4-3 5-3 5-2 3-8 16-3 8v7l-2 6-1 2-4 15-3 13-4 25-1 9-2 2h-1v-16l1-11 2-15 2-12 2-9 4-14 3-9 5-12 8-16 2-3 3-5 3-4 2-3 3-4 3-4 2-2 2-3 6-6 2-3 10-10 3-2 6-6 3-2 2-2 3-2 4-3 4-3 5-3 3-2 5-3 16-8 13-5 13-4 7-2 15-3 13-2 8-1 24-2Z" fill="#c3f4c2"/><path d="M568 327h68l1 33 34 1v24h-1l-1-1v-12l-4 1h-5l-2-1v2h-1v-2l-3 1h-32l-2-1v2h-1l-1-1h-10l-1 1h-1l-1-1h-34l-3-1v2h-1l-1-1h-9l-2-1v2h-1v-2l-3 1h-12l-4-1v10l-1 2h-1l-1-22 1-1 35 1Z" fill="#efefef"/><path d="M197 445h1l1 5 1 17 1-19h1v25l-1 15h-1l-1-6v-6l-2 1-2 3-3 2-1 1h-2v2h-2l1 3 1-1h1v2l-4 3-2 3-1 1h-1v-2h-2v7l-1 1-1 6h-4v2l-6 2-2 1h-3v2h-2v6h-17l1 1h1v2l-2 1h-2v-2l-8 1-3 1-1-1h-2v-8h-2v-2h-2v2l-4 2-1 11-1 37-1 26-1 32-1 22v58l1 45 1 24v6l-1 3-1 1h-1l-1-3v-4h1l-1-41-1-74 2-69 2-65 1-16 1-28 1-8 2-1 8-2h1l1 1v7h3l1-1 15-1h4l1-1 1-6h7v-2l2-2 1-4 1-1h2v-2h2v3l-1 1h-2v6h4v-2l2-2 1-4h3v-2h3v-4l5-3h10v-3Z" fill="#7fbf70"/><path d="M423 326h104l1 1v32l-33 1h-4v50l-1 14h-1l-1-55v-7h-65Z" fill="#e7ef57"/><path d="M274 541h109v34l-1 1H276v-33h-2Z" fill="#cfcf48"/><path d="M495 361h33v107h-33l-1-1V362Z" fill="#483840"/><path d="M463 523h1l1 6 1 13 56-1 2 3 1 2 1 12 1-19h-2l-2-1v-1l2-1h2l1 2 3 1v1h-3v36l-39 1h-66l-1-34h33l3-1 1-6h1l1 7 1-12Z" fill="#d0d048"/><path d="M206 434h31v106h-31Z" fill="#463640"/><path d="M781 510h1l1 30 1 1 35 1 1 1 1 33-1 1-35 1-1 1-1 71-1 1-33 1-1 35H566v-34l1-2h2l-1 4v30h178l-1-33-1-1v-1h3v-36H566v-35l2-1 214-1 1-1v-33l-1-1-206-1v-1h205Zm-212 69l-2 1v32l1 1h180v36l2 1 32-1v-69l-1-1Z" fill="#5b4741"/><path d="M385 541h34l1 1 1 4v32l-1 1h-34v35l-2 2-70 1v31l71 1 1 1v35h178v-33h-35l-1-1v-35h-35l-1-1v-36h1v34l36 1v36h36l1 1-1 35H385l-1-34-1-1-70-1-1-1v-34l1-1 70-1 1-1v-31l-3-2-105-1-1-1v-33h1v32l106-1v-31Z" fill="#9b8040"/><path d="M422 470h34v71h-35l-1-31 1-38Z" fill="#463640"/><path d="M639 397h34l1 1v69l-1 1h-34Z" fill="#483840"/><path d="M350 362h72v15l-1 17-2 3h-30v33h-2l-1-33-1-2-35-1Z" fill="#e8f058"/><path d="M313 652h69v33l-1 1h-67l-1-1Z" fill="#423240"/><path d="M350 326h68l1 2v29l-1 2-68-1-1-3v-28Z" fill="#463640"/><path d="M885 196h4l3 5 3 5 8 16 5 13 3 9 3 11 2 9 3 19 1 8 2 24 2 45v7l-1 26h-1l-3-49-1-1-1-10-2-16-1-9-1-3-1-8-1-2-2-14-1-5-1-1-1-5-2-5-3-11-1-1-3-9-2-3-1-5-2-4-2-1-7-14-2-2-3-5-2-3-2-3-2-1-1-3 1-1 7-2Z" fill="#a0df92"/><path d="M677 398h32v30l-1 27-1 3h-1l-1-17v-8h-2v16l-1 1h-22v7h-2v9h-1Z" fill="#e7e7e7"/><path d="M662 109h6l47 2 33 2 4 1v1h-5l-17-1-26-1-37-1-58 1H355l-29 1-20 1-19 2-17 3-14 3-18 6-7 3-7 3-12 6-3 2-5 3-3 2-4 3-3 2-4 3-2 2-3 2-3 3-3 2-17 17-2 3-5 5-2 3-3 4-2 2-3 5-2 3-3 5-2 3-7 14-2 5-2 4-1 4-1 2h-1l-1-4 5-12 7-14 3-4 3-5 3-4 3-5 3-4 2-2 2-3 4-4 2-3 2-1 2-3 11-11 3-2 6-6 3-2 3-3 5-3 2-2 4-2 2-2 3-2 3-1 3-2 4-2 3-2 4-2 5-2 2-1 7-2 5-2 12-4 12-3 16-3 18-2 11-1 16-1 20-1Z" fill="#b0e8b0"/><path d="M531 361h2v93l1 8 1-47 1-15h1l1 8 1 13v4h19v-7l1-5 1-1h3l1 12 1 22v18l-28 1v1h-6l-1-71v-33Z" fill="#d7d8d7"/><path d="M239 449h1l1 57 1-1v-1h3v2l4-1h23l3 1 1 2-1 32-3 2-31-1-2-2Z" fill="#cfcf53"/><path d="M385 433h35v35h-34l-1-7Z" fill="#483840"/><path d="M241 435h141l-1 25h-1l-1-10v-12h-2v4l-1 6-1 2h-1l-1-6H252l-1 6h-2l-1-8v-5h-3v12l-1 9h-1l-1-16Z" fill="#e0e0e0"/><path d="M533 614l32 1v34h-35v-34Z" fill="#483840"/><path d="M239 543l34 1 1 1 1 31-1 2h-34l-1-1Z" fill="#493941"/><path d="M531 543h34v34h-35v-33Z" fill="#483840"/><path d="M531 470h34v34h-34l-1-1v-32Z" fill="#4b3b41"/><path d="M906 653h1l1 12 1 16 1 31v15l-3 13-2 13-1 2-1 5-1 3-1 5-3 10-5 12-3 7-6 12-2 3-3 5-3 5-2 3-3 6-2 2-2 3-3 3-2 3-22 22-3 2-3 3-3 2-2 2-3 2-4 3-5 3-3 2-5 3-5 3-16 8-5 2-5 2-13 5-15 5-10 3-10 3-5 1 4 1v1l-7 1-13 1-21 1h-10l-20-1v-1l7-2h12l5 1 14-1 4-1 2-1 5-1 1-1 10-2 16-3h3l12-3 16-5 15-5 7-3 7-3 10-5 3-2 4-2 3-2 5-3 2-2 3-2 2-2 3-2 4-3 5-5 3-2 10-10 2-3 3-3 3-2 1-1h2v-3l2-2h2v-3l2-3h2v-4l3-4 3-5 3-5 9-18 3-9 1-2 4-14 2-10 2-10 2-7h2v-3l1-5 1-15Z" fill="#699e58"/><path d="M386 543h33l1 1-1 33h-33Z" fill="#473740"/><path d="M415 504l3 1v34h-33l-1-31 1-2 4-1h24l2 1Z" fill="#d7d74f"/><path d="M495 580h33l1 1v32h-33l-1-1Z" fill="#473640"/><path d="M565 507h1v34h216l2 2v33l-2 2H566l-1-35-35-1v-1l34-1Zm2 36v33h211l1 1h2v-1l1-1v-32Z" fill="#925c43"/><path d="M911 767h1v9l-3 10-2 6-5 12-8 16-2 3-3 5-3 4-2 3-3 4-3 4-2 2-2 3-6 6-2 3-10 10-3 2-6 6-3 2-2 2-3 2-4 3-4 3-5 3-3 2-5 3-16 8-5 2h-5v-1l2-2 5-3 4-2 3-2 5-3 5-3 4-3 3-2 4-3 3-2 2-2 3-2 2-2 3-2 6-6 3-2 13-13 2-3 7-7 2-3 2-2 2-3 2-3 2-5 2-2 3-5 3-5 2-3 2-4 2-3 8-16 2-5 3-6 2-6Z" fill="#94b18c"/><path d="M532 579h32l1 3-1 30-31 1-2-1v-32Z" fill="#c06047"/><path d="M420 288h218l2 1 1 2v15l1 15 33 1 1 1v35h32l3 1v1h-35l-1-1-1-34-34-1-1-1v-33H421v32l2 1v1l-1 1h-72l-1 1-1 11-1 22-2 1h-33v35l-1 1h-71v-1l29-1 39-1v-7l1-27v-1l1-1h33l2 1v-33l2-3h71v-8l1-25Z" fill="#83b378"/><path d="M816 543h2l1 1v32h-34l-1-1 1-31Z" fill="#453540"/><path d="M676 361h33v32l-1 1h-31l-1-1Z" fill="#463640"/><path d="M347 360h3v1l-1 1v34h36l1 2v33l2-1h35l1 37h31l3 2 1 1v72l-1 1-3 1h-29l-3-1v-1h33v-72h-34l-1 37h-1l-1-37-34-1-1-3v-21h1l1 16v7h34v-35l-36 1-144-1v-1h143l-1-33-33-1-2-2Z" fill="#ab9f4a"/><path d="M820 157h8l4 3 4 3 4 3 4 3 9 9 3 2 3 3 3 2 2 2 2 3 3 3v4l-1 1h-28l-4-1-1-1-1-20-2-1-10-1h-18l-2-1v-3l1-1h11l-1-1v-5l5-1v-3Z" fill="#88d088"/><path d="M640 326h32l1 1v30l-1 1h-32Z" fill="#453540"/><path d="M494 360h35l1 90v19h35l1 1v35h142l2-1 1-107h1v108l-3 2-140 1-1 32h8v1h-10l-1-34-35-1-1-1-1-34-1-1h-31l-3-2V361Zm1 1l-1 1v105l1 1h33V361Zm36 109l-1 1v32l1 1h34v-34Z" fill="#706859"/><path d="M674 361h1v35h34l2 1v107l-3 2H603l-37-1v-35h1v33l142 1v-35l1-71h-34v71l-2 2h-35l-2-2v-72l1-1h36Zm-35 36v71h34l1-1v-69l-1-1Z" fill="#b3b9ac"/><path d="M918 726h1l1 4v3l-2 15-2 12-2 9-1 3h-1l-1-3-2 6-4 8-2 5-8 16-2 3-2 4-3 4-2 4-3 4-1 1-2 5-2 3-3 4-2 2-2 3-7 7-2 3-14 14-3 2-6 6-3 2-2 2-3 2-2 2-5 3-2 2-5 3-4 3-4 2-3 2-5 3-4 2-4 3 1 1v1l-5 2-9 3h-8v-2l2-2 8-4 5-2 16-8 3-2 5-3 5-3 4-3 5-3 2-2 3-2 4-3 3-3 3-2 6-6 3-2 15-15 2-3 3-3 2-3 2-2 2-3 1-4 2-4 2-2 2-4 2-3 3-5 5-10 1-1 4-10 3-7 3-4 2-4 6-18 1-4 1-2 1-5 2-6Z" fill="#80be71"/><path d="M566 324h71l1 1 1 34 35 1v36l-36 1-1 71h-2v-69l1-3 1-1h36v-34h-36l-1-1v-33h-68l1 12v21l-1 2h-37v105h33l2 1v2l-36-1-1-3V360h36Z" fill="#c5c9c0"/><path d="M566 614h181l1 3v12l-1 21-3 1H571l-5-1Zm2 2l-1 1v31l1 1h177v-33Z" fill="#995846"/><path d="M115 538h1v24l-2 64-1 38 1 71 1 43h-1v-2h-2l-2-7-2-9-1-6v-6h1v-24l1-71 1-23 1-12v-3l1-14 2-45Z" fill="#87b77f"/><path d="M241 114h8v1l-11 4-7 3-4 2-5 2-5 3-8 4-3 2-5 3-4 3-5 3-2 2-3 2-4 3-3 3-3 2-24 24-2 3-4 4-2 3-3 4-2 3-3 4-3 5-3 5-3 5-1 2h-2v-4l5-10 2-3 3-5 3-4 2-3 3-4 3-4 2-2 2-3 6-6 2-3 10-10 3-2 6-6 3-2 2-2 3-2 4-3 4-3 5-3 3-2 5-3 16-8 13-5Z" fill="#d5e2d4"/><path d="M749 504h32l2 1 1 2 1 33 35 1 1 1 1 10v25l-1 1-3 1-24 1h-9l1 44v12l-1 15-2 2-33 1v32l-1 1h-1v-35l1-1 33-1 1-71 2-2 35-1-1-33-35-1-2-2v-33h-31v-1l-2-1Z" fill="#54774b"/><path d="M422 546h1v31l3-1h102v1l-36 1-1 24h-1l-1-5-1-3h-2v-6l-1-6h4v-2h-67l1 2 3 1v1l-1 1-3-1-31-1v13h-2v9h-1l-1-1v-24l34-1Z" fill="#c0b048"/><path d="M238 434h1l1 105 1 1 31 1h2v2h2l-1 30h-1l-1-28-33-1v33l34 1v-2h1l1 1 103 1v1l-103 1-1 43-1 21h-1l-1-52v-9l1-3h-33l-2-2v-35h-3v-1h3Z" fill="#63764e"/><path d="M564 322h71l3 1 1 1v35h-1l-1-34-71-1v34l-1 2h-36l-1-35-105-1v-1h108v36l3-1h30l-1-4v-29Z" fill="#6c6562"/><path d="M204 434h1v108h30l3 1 1 35 1 1v1h-3l-12-2v-6l-2-5-1-4v-3l1-2h2l5-1h5l1-1 1-12h-32l-2-1-1-3 1-59Z" fill="#56844e"/><path d="M712 397h36l1 83v25h3v1l-1 1h-2l-2-1-2-3V399l-32-1v109h-4v-1l2-1Z" fill="#58514d"/><path d="M385 433h35v35h-34l-1-7Zm4 4v26l2 1h24l1-1v-26Z" fill="#4d3f45"/><path d="M420 322l3 1v1l-1 1h-72l-1 1-1 11-1 22-2 1h-33v35l-1 1h-71v-1l29-1 39-1v-7l1-27v-1l1-1h33l2 1v-33h2l2-2Z" fill="#82b874"/><path d="M887 197l3 1 2 3 3 5 8 16 5 13 3 9 3 11 2 9 1 6v10h-1l-2-5-1-5-1-2-3-12-2-6-2-4-3-9-3-7-2-4-2-3-3-6-2-2-3-5-2-4-3-2-1-2v-2l3-2Z" fill="#a8e0a0"/><path d="M285 541h89l3 1v5h-94v-1l1-1v-3Z" fill="#d8d850"/><path d="M640 399h32v67l-1 1h-30l-1-1 1-61h1l1 5v50l-1 3 27 1-1-61h-23l-4 1-1-2Z" fill="#413140"/><path d="M415 504l3 1v16h-2l-1-3-3 1h-22l-1 1h-1l-1-2-1-4v-7l3-2h24l2 1ZM242 504h3v2l4-1h23l3 1 1 2v3l-1 3-1 5h-19l-1 1-6-1-1-5-2 4-1 3h-1Z" fill="#dfdf50"/><path d="M494 360h35l1 90v20h-34l-3-2V361Zm1 1l-1 1v105l1 1h33V361Z" fill="#736750"/><path d="M674 361h1v35h34v1h-34v71l-2 2h-35l-1-1v-72l1-1h36Zm-35 36v71h34l1-1v-69l-1-1Z" fill="#98938b"/><path d="M533 616h2l1 1h27v3l-1 1v20h-3v-21h-23v24l26-1 2 3v2l-3 1h-30v-32Z" fill="#403040"/><path d="M422 324h106l1 1v35h-34v-1h33l-1-32-105-1v34l-1 1h-71v-1l70-1v-5l1-29Z" fill="#c3b951"/><path d="M642 324h32l1 1 1 34 35 1 1 36h35v1h-38l-34-1-1-35-35-1v-1h35l-1-33-31-1Zm34 37v32l1 1h31l1-1v-32Z" fill="#5b5950"/><path d="M241 435h141l-1 25h-1l-1-10v-13H245v12l-1 9h-1l-1-16Z" fill="#e8e8e8"/><path d="M532 471h31v26l-1 1h-2l-1-25-2 1h-21l-1 25h27l2 1v3h-33v-31Z" fill="#403040"/><path d="M386 504h29v2h-30v36l-1 1h-1v-2l-2 1H275l-1-1 1-30h1l1 28 106 1v-33l1-2Z" fill="#d5d798"/><path d="M639 397h34l1 1v69l-1 1h-34Zm1 2v67l1 1h30l1-1v-67Z" fill="#5b4d4f"/><path d="M347 360h3v1l-1 1v34h36v38l-145-1v-1h143l-1-33-33-1-2-2Z" fill="#877f60"/><path d="M752 455h1l1 2h2l1 4 2 1 1 5 1 3v2h2l2 2 1 4 1 1 2 10 1 1 1 5 3 2 2 1v2h-10v-2l-5-2v-12h-2l-1-1v-11h-2l-1-4-1-1h-1l-1 5-1 1h-1v-12l1-1Z" fill="#78b868"/><path d="M530 542h35l1 1v35h2v1h-38l-1 2-34-1 1 3v29l32 1v1h-33l-2-1v-34l1-1h35v-35Zm1 1l-1 1v33h35v-34Z" fill="#705b47"/><path d="M383 543h1l1 30v4l-1 1H276l-1-1v-33h1v32l106-1v-31Z" fill="#b09d44"/><path d="M422 470h34v71h-35l-1-31 1-38Zm1 1v68l32 1v-69Z" fill="#5a5545"/><path d="M749 504h32l2 1 1 2 1 33 35 1 1 1 1 10v25l-1 1h-36v-1l35-1-1-33-35-1-2-2v-33h-31v-1l-2-1Z" fill="#5b744e"/><path d="M385 541h34l1 1v2l-34-1v34h33v-31h2v32l-1 1h-35v2h-1l-3-2v-1l3-1v-35Z" fill="#836c4d"/><path d="M240 544h33l1 1v30l-2 2-32-1v-2l2-2 27 1v-26h-28l-1-1Z" fill="#403040"/><path d="M311 649l72 1v1l-69 1v33l67 1 3 2v35h-1l-1-35h-16l-53-1-1-1-1-19v-15h-9v-1l8-1Z" fill="#675744"/><path d="M238 397h1v35l-2 1-32 1-1 47-1 56h-1l-1-53v-11l1-41 15-1 20-1Z" fill="#759d66"/><path d="M901 799h1l1 3-9 18-2 3-3 5-3 4-2 3-3 4-3 4-2 2-2 3-6 6-2 3-10 10-3 2-6 6h-4v-1l3-3h2v-2l3-2 12-12 2-3 10-10 2-3 3-4 3-4 4-8 3-4 2-4 2-3 2-3 1-3 2-3Z" fill="#91cb88"/><path d="M238 434h1l1 105 1 1 31 1h2v2h2l-1 30h-1l-1-28-33-1-5-1v-1h3Z" fill="#6f6f51"/><path d="M530 578h35l1 1v35l-36 1v2h-1l-1-4 1-34Zm2 1l-1 1v32l3 1 30-1 1-31-1-2Z" fill="#9a5746"/><path d="M385 398h1v33l2-1h35v37h-3v-34h-35Z" fill="#bbb349"/><path d="M104 393h1v45l-2 100h-1l-1-11v-49l1-17 1-29v-16Z" fill="#b0e8b0"/><path d="M313 652h67v1h-66v31l64-1 2 2v1h-66l-1-1Z" fill="#4c3a40"/><path d="M530 469h35l1 1v35h37v1l-38 1-35-1-1-1-1-35Zm1 1l-1 1v32l1 1h34v-34Z" fill="#897552"/><path d="M423 323h108v36h34v1h-36l-1-35-105-1Z" fill="#867045"/><path d="M912 362h1l1 1 1 10 2 10v6l1 16 1 9 1 4 1 17 1 10 1 16v17h-1l-1-11-1-13-1-17-1-2v-8l-1-8-1-3-1-16-1-4-1-16-1-5Z" fill="#88d088"/><path d="M887 197l3 1 2 3 3 5 8 16 5 13 3 9 3 11v8h-1l-3-12-4-13-3-4v-2l-2-5-2-4-2-2-1-4-3-6-2-3-2-3v-2h-2l-1-4Z" fill="#b2ebaf"/><path d="M109 653h1l1 75v35h-1v-3h-2l-1-6v-6h1v-24Z" fill="#96b08e"/><path d="M381 541h2v3l-1 6-1 25H277v-1l102-1v-31Z" fill="#d7d74f"/><path d="M642 324h32l1 1 1 34v36h33v1h-34l-1-35-35-1v-1h35l-1-33-31-1Z" fill="#6a7050"/><path d="M492 360h2l-1 108h2l1 1h31l1 1v1h-34l-2-1Z" fill="#baac4a"/><path d="M422 543h4l33 1v2l-1 1-32 1v6l-1 21h-1l-1-10-1-19Z" fill="#d7d74f"/><path d="M844 865h2v1l-7 7-3 2-2 2-3 2-2 2-5 3-2 2-5 3-4 3-4 2-3 2-5 3-4 2-4 3 1 1v1l-5 2-9 3-3-1v-1l3-2 20-10 3-2 5-3 5-3 3-2 3-2 4-3 3-2 4-3 4-3 2-2 3-2Z" fill="#87b67e"/><path d="M311 361h1v34l-1 1h-71v-1l29-1h41Z" fill="#74b36a"/><path d="M533 614l32 1v30h-1l-1-28-27 1-1-1h-4l1 3v23l-1 6h-1v-34Zm29 6h1v1h-1Zm-1 1h1v1h-1Z" fill="#534140"/><path d="M384 445h1l1 16v7l36-1 1 1 33 1v1h-34l-1 37h-1l-1-37-34-1-1-3Z" fill="#7e8262"/><path d="M418 506h2l1 1-1 32-2 2h-33l-1-1v-1h34Z" fill="#c7be47"/><path d="M385 541h34l1 1v2l-34-1v33h-2v-34Z" fill="#66754b"/><path d="M416 471h3v32h-4v-30h-30v-1Z" fill="#dadcda"/><path d="M749 504h32l2 1v35h-1v-33h-31v-1l-2-1Z" fill="#5f614f"/><path d="M572 485h2l1 4v8l15-1h7l4 1 1 1v1l-1 1h-27v-1l-2-1Z" fill="#dbddce"/><path d="M903 783h1v3l-9 18-2 3-2 4-3 4-2 4-3 4-1 1-2 5-2 3-1 1h-1v-2l1-1 2-6 3-4 3-5 2-3 3-6 2-3 9-18Z" fill="#88b880"/><path d="M420 512h1v29h35v1l-33 1-1 34h-1l-1-31-1-4-1-1v-1l1-1Z" fill="#999246"/><path d="M242 442h1l1 7h1v37l-1 11h-1l-1-22Z" fill="#e0e0e0"/><path d="M419 326h1l1 33-1 1h-70v-1h68Z" fill="#7a6d54"/><path d="M346 361h1l1 35 1 1 33 1v1h-35l-2-3v-32Z" fill="#584850"/><path d="M674 361h1v35h34v1l-36 1-33-1v-1h34Z" fill="#97af8f"/><path d="M239 540l33 1h2v2h2l-1 30h-1l-1-28-33-1v-2l-1-1Z" fill="#5e6648"/><path d="M677 354h36v3h-36Z" fill="#94d688"/><path d="M532 405h1l1 20h1v37l-1 1h-1l-1-9Z" fill="#e0e0e0"/><path d="M340 346h2v9l-20-1-9-1v-1l19-2 3-3h2l1 1-1 3h3Z" fill="#88cf87"/><path d="M420 322l3 1v1l-1 1h-72l-1 1-1 11h-1v-12l2-2Z" fill="#769166"/><path d="M256 912h4l12 2 5 1 16 2 2 1v2h-4l-15-2-12-2-9-2v-1Z" fill="#64995a"/><path d="M124 216h1l1 2v2l-4 8-4 10-1 8-2 5h-2v-7l4-12 5-12Z" fill="#c1e5bf"/><path d="M238 543h1l1 34 34 1v-2h1l3 2v1l-2 1-37-1-1-1Z" fill="#516948"/><path d="M102 315h1l1 2h1v9l-2 35h-1Z" fill="#bff2bd"/><path d="M204 427h23l6 1v1l-7 1h-22l-2-1v-1Zm29 0h1v1h-1Z" fill="#8fcf7f"/><path d="M565 470h1v35h37v1l-38 1-2-1v-1h2Z" fill="#818974"/><path d="M639 397h34l1 1v2l-35-1Z" fill="#685950"/><path d="M177 149h2v1l-29 29h-1v-2l7-7 2-3 10-10 3-2Z" fill="#bfe6bd"/><path d="M801 536h20l1 1v2h-23l-3-1v-1Z" fill="#80c070"/><path d="M206 161h2v4l-2 1h-18v-1l2-2 15-1Z" fill="#88d088"/><path d="M717 383h3l1 3 5 2h2l1 1v1l-9 1h-4l-1-1v-3l1-3ZM304 379h1l1 2 1 7v2l-1 1h-3l-9-1v-1l2-1 4-1h2v-3l1-1Z" fill="#88c878"/><path d="M143 602h7l3 1v4h-12v-2Z" fill="#68a860"/><path d="M282 541h1v2l-1 4-1 10h-2l-1-1v-14Z" fill="#d8d850"/><path d="M309 362h1l1 21v9l-1 2h-2v-8Z" fill="#86c477"/><path d="M750 503h34l1 1v6h-1l-1-3v-2l-33-1Z" fill="#76a75f"/><path d="M237 398h1v32l-1 1h-3v-1l1-1 1-4Z" fill="#80c070"/><path d="M234 905h2l15 5v1l-3 1-10-3-6-2v-1Z" fill="#659a5b"/><path d="M914 754h1l1 4v2l-2 9-1 3h-1l-1-3h-1v-3l2-3Z" fill="#86b57c"/><path d="M420 512h1v29l-1 1h-1l-1-1v-1l1-1Z" fill="#9e8a41"/><path d="M822 132l3 1 4 3 5 3 2 2v2l-3-1-4-3-5-3-3-2v-1Z" fill="#9add99"/><path d="M891 817h2v2l-1 4-2 3-2 1h-2v-2l3-5Zm-6 10h1v1h-1Z" fill="#9cd594"/><path d="M665 919h12v1l-8 1-1 1h-10v-1Z" fill="#629a58"/><path d="M141 401h4v3l-2 1h-3v2h-2v-2l-1-1v-1l1-1h2Z" fill="#88c878"/><path d="M871 846h2v3l-5 5h-1l-1-3Z" fill="#95ce8d"/><path d="M784 453h2l1 4 1 2v3h2v4h-1v-3h-2l-1-3-2-1Z" fill="#88b880"/><path d="M104 707h1l2 2v8l-3 1Z" fill="#a3e09a"/><path d="M116 239h1v7l-2 5h-2v-3Z" fill="#e0e0d5"/><path d="M311 649h2l1 1v2l-2 2h-1v-2h-9v-1l8-1Z" fill="#635949"/><path d="M145 838h1l2 3 3 4 1 1v1l-1 1h-1l-3-4-2-2Z" fill="#68a15c"/><path d="M143 414l5 1v2l-2 3h-1l-1-3h-3v-2Z" fill="#90d080"/><path d="M915 269h1l1 1v10h-1l-2-5Z" fill="#ade7a8"/><path d="M769 909h1v1h-1Zm-3 1h3l2 1v1h-2v2h-2l-4-1v-1Z" fill="#80bc72"/><path d="M878 840h1v2l-3 3-2 3h-1l-1-3 3-3Z" fill="#89c580"/><path d="M881 834h1v4l-2 2-3 2h-1v-2l2-2 2-3Z" fill="#94d08c"/><path d="M754 429h2l2 3v2h-1l-1-1h-1l-1 1h-2v-3h2Z" fill="#88b880"/><path d="M714 358l3 1v4h-2v3h-1l-1-4v-2Z" fill="#98d888"/></svg>