<svg xmlns="http://www.w3.org/2000/svg" width="1024" height="1024"><path d="M342 100h339l55 1 15 1 10 1 14 2 14 3 14 4 11 4 4 2 5 2 6 3 3 2 4 2 3 2 5 3 4 3 3 2 4 3 2 2 3 2 5 5 3 2 7 7 2 3 4 4 2 3 2 2 2 3 3 4 3 4 2 4 2 3 3 5 7 14 4 11 2 5 4 15 2 9 2 13 1 8 1 12 1 22v421l-1 21-1 12-2 15-2 11-2 9-4 13-2 6-3 7-2 4-2 5-3 5-3 6-3 4-3 5-3 4-2 3-2 2-2 3-3 3-2 3-14 14-3 2-3 3-3 2-2 2-5 3-2 2-4 2-4 3-8 4-3 2-4 2-5 2-10 4-12 4-13 3-10 2-15 2-12 1-21 1H301l-21-1-12-1-15-2-11-2-12-3-18-6-4-2-5-2-10-5-3-2-4-2-4-3-5-3-4-3-4-3-2-2-3-2-20-20-2-3-2-2-2-3-3-4-3-4-2-4-3-4-10-20-4-11-3-9-2-7-3-15-2-14-1-10-1-14-1-83V335l1-46 1-15 2-18 3-16 3-12 4-12 5-12 6-12 2-3 2-4 3-4 3-5 2-2 2-3 3-4 3-3 2-3 14-14 3-2 4-4 3-2 4-3 4-3 5-3 5-3 5-3 12-6 13-5 9-3 12-3 16-3 18-2 14-1Z" fill="#1884ee"/><path d="M257 326h510l6 1 6 2 6 3 4 3 7 7 4 8 2 6 1 5v303l-2 8-3 7-2 3-2 4-2 1-1 2-5 3-3 2-4 2-5 2-7 1H255l-5-1-7-3-4-2-4-3-3-3-2-3-2-2-3-5-2-5-2-8V361l1-5 2-6 4-8 8-8 5-3 6-3Z" fill="#c8ced0"/><path d="M100 538h1l1 2h2l1 1h1l1-1h2l1-2h1l1 1 1-1h2l-1 3h2l2-2h5l2 1 1 2v4h2v1l-1 1 1 1 4-1h2l1 1v2l1-1h2v3l4-2 1-4h1l1 1 1-1h1l1 9 4 1v2h1l1 1v6h3v-2h1l1 1 3 1v1l-1 1h-2l1 2 3-1 1-1h1l1 5 1 2v2h3l1 7 1-1 3 1v1h-3v2l3-1 2-3h2v10h3v8h3l3-1v3h1v3l1 1v4l2 4 1 4v2l1 1v-2l1-1 3 1 1 7 1 1h1v18h2v1l-2 3h2v-2h2v1l1 1 1 5v10h2l2 11 1 4v4h2v1l1 1 1 4 3 5 2 3 1 2v2h2l2 2v2h2l3 2 2 2h1l2 2 2 3 4 2 2 2 5 1h4l1 1 5 1 1 1 7 1 4 3 4 1 2 1h3l4 2 3 1v1l-1 1h2l1-1 4 1v1h-3l1 1h6l1 1h7l2 1v2l1-1h6l2 1v1l1 1v-2h3l4 1h3l1 1h3v-1h10v2h5v-2h4l5 1v-2h1l1 1 3 1v1h6v-2l3-1 5 1 1 2h3v-2h3l1 1h1l1-1h1l1 1 1-1h1l1 1v1h1v-1l1-1h7l1-1 3 1 1 2h4l1-1h1l1 1h3v-2h7l3-1 3 2v2l7-1h2v-2h15l1 1v1l1 1v-3h1l1 1 1-1h6l3 1v1h4v-2h12v2h2v-2h10v2h1v-2h6l1 1v1l3-1v-1h6l1 2v-3l10 2 1 1h3v-2h9l4-1v4l2-1v-1l2-1h2v1l-1 1h2v-2l1-1 3 1v2l2 1v-3l1-1h1l1 1h1l1 2 1-2h1l2 2h3v-1l2-1h5v1l-1 1h5v-2h12v2h2v-2h4l6-1 1 1v1h-2v2l2-1 1-2h4l3 2v-2h2l4-1 2 1v2h1v-2h1l1 1h8v2h2v-3h3v1h-2l1 1 4 1v-2h4l3 1v-2h2l1 1 1-1h3l1 1 1-1h9l2 2 2-2h2v2h1v-1l2-1h4v2l1 1v-2h1l1 1v-2l3-1 1 1h10l3 1 2-1h7l1-1h3l1 2 3-2 2-1h4l3-1 1 1 1-1h4l2-2h2l1-1h3l1-1h1v2h3v-3h3l2 1v-2l2-3 4-1h2l1-2h1l1 1 1-1 3-1 1-1 7-1 1-1 6-1v2l1-1v-1l3-1h1l1-1 4-1 3-2 3-2 1-2h2v-2h2l2-3 3-2h2v-2l2-2v-1h2v-2l2-3 2-2v-2l2-5 1-1 1-4 1-1 2-9 1-6 2-7v-6l1-3v-5h3l1-1 1-11v-2l1-1h1v-2l1-4 1-2h1l1 1v1l1 1v-3l1-1v-3l1-6h2v-3l1-4 3-2h2v-2h1l1-6 1-2h1l2 2v6l-1 1v1h1v2l-1 1 1 1v1l-2 1v2l-2 3h2v1h-2l1 5v3l1 1v1h-2v35h-1l-1-2-1 1v1l1 1-1 3-1 2h2v2l-1 1h-2v4l2 1v-2l2-3h2l-1-1h-1v-2l2-1h2v-9h3v-2h1l1 3-1 1h2l2-2 1-5v-1l1-1h3l1-1h-2v-1h2v-6l1-4h1l1 1 1-1h1l2 3v2h3v-6l1-4v-1l1-1h2l-1-1v-1l1-1h3l1-5h1l3 2v-2h10v-1l-2-1v-1h3l1 1 1-2h1l1 1h4l-1-1h-1v-21h2l2-3h1l1 3h1l1-1v-2h-2l-2-3-1-2v-2l1-1v-2l-1-3-1-1v-1h4l1 1h2v2l-1 2h2l1-1h2l1-1v-2h2v-2h1l1 2h1v-3h1l1 1h1l1-1h1l2 3v144l-1 21-1 12-2 15-2 11-2 9-4 13-2 6-3 7-2 4-2 5-3 5-3 6-3 4-3 5-3 4-2 3-2 2-2 3-3 3-2 3-14 14-3 2-3 3-3 2-2 2-5 3-2 2-4 2-4 3-8 4-3 2-4 2-5 2-10 4-12 4-13 3-10 2-15 2-12 1-21 1H301l-21-1-12-1-15-2-11-2-12-3-18-6-4-2-5-2-10-5-3-2-4-2-4-3-5-3-4-3-4-3-2-2-3-2-20-20-2-3-2-2-2-3-3-4-3-4-2-4-3-4-10-20-4-11-3-9-2-7-3-15-2-14-1-10-1-14-1-83Zm815 42v1h1v-1ZM447 742l-2 1v1h3v-2Z" fill="#18bdf7"/><path d="M342 100h339l55 1 15 1 10 1 14 2 14 3 14 4 11 4 4 2 5 2 6 3 3 2 4 2 3 2 5 3 4 3 3 2 4 3 2 2 3 2 5 5 3 2 7 7 2 3 4 4 2 3 2 2 2 3 3 4 3 4 2 4 2 3 3 5 7 14 4 11 2 5 4 15 1 4v9l-2 3h-3l-2-1v-1l1-1v-1l-2 2v2h-2l-1-2h-1v-2l-1 1v2l-5 1-1-1-3 1-1 1h-1l-1-2h-4l-2-3-4 1v2l-1 1h-2l-1-1-1 1h-1v-2h-1v2h-2l-1-1-2 1h-6v-1l2-1-3 1h-3v-1l-1-1-3-1 1 2v2l-1 2h-1l-1-1v-2h-1l-1-1-1 3h-1l-1-2h-2l-1-2-3 1-2 2h-2l-3-2v2h-3v-2h-1l-2 3v1h-2v-3h-2l-1 1h-1l-1-1-4-1-2 1h-3v-3l-3 1-3-1v2h2v3l-3 1-2-2h-3v-2l-1 1v3h-3l-1-1-1 1h-1l-1-2h-2l-1-1h-2l-3 1-2-2v-2h-1v3h-3v-2l-1 1-1 3h-2l-1 1h-3v-3l-2 1h-3v-2l-2 1h-2l-1 1h-7l-1 1h-2v2h-1v-3l2-3-3 1-1 2h-2l-1-1-4-1h-4l-1 1v1l-1 1v1h-2l-1-1v-1h-2v2h-2l-2-3-2-1v3h-3v-1l1-1-1-1v-1l1-1h-3v3l-1 2h-1l-1-1h-1l-1 1h-1l-1-1h-1v-2h-2l-5-1 1 3h-2v2h-1l-1-1h-1l-1-1v-4l-3 2h-1l-1-1h-1l-1 1h-4l-1 1h-4l-1 1h-1l-1-1h-1l-2 2h-1l-1-1v-1h-2l-1-2h-4v2h-1l-3 3h-1l-1-1h-1l-1 1h-1v-2l1-1v-2h-2l-2-1 1 3-3 2-4-1-1 1h-1l-1-3-1-1h-2l-1 1v3l-1 1h-1l-1-3-1-1-4 2-1 1h-1l-2-3h-3l-1 1h-5v-2l-1 1-1 4h-1l-2-5-3 1 1 2v3h-1l-4-3h-7v-3h-3v1l-1 1h-2v2l-1 1h-1v-3h-3l-2 1h-2l-3-1v-1l1-1h-3v3h-1l-1-1v-2h-2v2h-2v-2h-7v3h-2l-1 1h-1l-2-3-4 1h-4l-2-1-1 1h-1l-2-2h-1l-1 3h-2v-2h-4v2l-4 1-1-1h-1l-1-1h-4l-1 2h-1l-2-2h-3l-1 2h-1l-1-2h-3l-4 1-4-2v-1l-1-1h-1l-1 1v3l-2 1h-2v-1l2-2h-3l-1 1v1h-4v2h-1v-2h-2l-1-1h-1l-1 1h-1v-3l-3 1h-1v2h-2l-1-1-1 1h-2l-1-1-3-1-1-1v-2l-1 1v3l-1 1h-2l-1-1-1 1-3-1v-2h-3v4h-2l-2-2v4h-1l-1-1-3-1v-1h2l-1-1h-3l-2 2v1h-2l-1-1v-1l-1-1h-1l-1 1h-3l-1-2h-2l-2-2v2l-1 2h-3l-1-1h-5l-1 3h-1l-1-1-1 1h-1v-5h-3v2h-3l-1 1h-2l-2 1h-3l-1 1h-5l-1-1h-2l-1-1v-3l-1 1v2h-5l1-3-3 1-1 1h-1l-1 1h2v1h-3l-1-1v-1l-2-2-1 2h-5l-1 2-4-1v-1l2-1v-1h-3v3l-4-1h-3l-1-1v2l-1 1h-4v-2h-2l-4 3h-1l-1-1v-2l-3 2h-1l-1-1v-3l-1-1v3l-4-1h-2v4h-1l-1-2-2-1-1 1h2v2l-3-1-1-2h-2v-2l-5 1h-3v3l-3 1-1-1v-1h-4v-1l-3-1h-7l-1 1h-2l-1-1v-2l-3 1-1 3h-1l-2-3-1 1h-2v-2l-2 1v1h-4v4l-1 1h-1v-5h-1v-2h-2l-1 1h2v1l-4 2v2h-5v-2l3 1v-2h-2v-3h-1l-1 2-4 2-1 1h-2v-3h-2l-2 3-1 1h-1l-1-2h-4l-1 2h-2v-2h-5l-1 1-6 1v-3h2v-2h-1l-2 3h-1v-2l-1 1v1h-2l-3-2h-1v1h2v1l-1 1-3 1h-2l-3-1v-1l-1-1h-12v2l-4-1-2-2v4h-1l-2-5h-3l-1 1h-2l-2 2h-2l-2-2h-2l-1-1v2l-1 2h-1l-2-3h-5l-1 1h-7l-1-1-3 1h-4l-1 2h-2l-1-1v-2l-3 2h-1l-1-1-4 1-1 3h-1l-2-3h-2l-1-3v-1l-1 1v2l-1 1-1 3h-1l-1-2v-2h-3l-1-1h-1l-1-2h-1l-1 3-1 1h-7v-1l1-1v-1l-3 2h-1l-1-1h-1v3h-3l-1-1h-2v-2l-1-2v-5l3-13 3-10 2-6 5-12 6-12 2-3 2-4 3-4 3-5 2-2 2-3 3-4 3-3 2-3 14-14 3-2 4-4 3-2 4-3 4-3 5-3 5-3 5-3 12-6 13-5 9-3 12-3 16-3 18-2 14-1Z" fill="#1874ef"/><path d="M257 326h510l6 1 6 2 6 3 4 3 6 6v3l-4 4h-1l-1-1-4-1-1-1v-2l-2-1v-3l-3 2L574 546l-3 2-6 6-3 2-2 2-3 2-4 3-5 3-6 3-5 2-15 4h-20l-5-1-10-3-7-3-6-3-4-3-3-2-4-3-2-2-3-2-7-7-3-2L243 339l-8-1v-1l3-4 3-2 6-3Z" fill="#efefef"/><path d="M100 538h1l1 2h2l1 1h1l1-1h2l1-2h1l1 1 1-1h2l-1 3h2l2-2h5l2 1 1 2v4h2v1l-1 1 1 1 4-1h2l1 1v2l1-1h2v3l4-2 1-4h1l1 1 1-1h1l1 9 4 1v2h1l1 1v6h3v-2h1l1 1 3 1v1l-1 1h-2l1 2 3-1 1-1h1l1 5 1 2v2h3l1 7 1-1 3 1v1h-3v2l3-1 2-3h2v10h3v8h3l3-1v3h1v3l1 1v4l2 4 1 4v2l1 1v-2l1-1 3 1 1 7 1 1h1v18h2v1l-2 3h2v-2h2v1l1 1 1 5v10h2l2 11 1 4v4h2v1l1 1 1 4 3 5 2 3 1 2v2h2l2 2v2h2l3 2 2 2h1l2 2 2 3 4 2 2 2 5 1h4l1 1 5 1 1 1 7 1 4 3 4 1 2 1h3l4 2 3 1v1l-1 1h2l1-1 4 1v1h-3l1 1h6l1 1h7l2 1v2l1-1h6l2 1v1l1 1v-2h3l4 1h3l1 1h3v-1h10v2h5v-2h4l5 1v-2h1l1 1 3 1v1h6v-2l3-1 5 1 1 2h3v-2h3l1 1h1l1-1h1l1 1 1-1h1l1 1v1h1v-1l1-1h7l1-1 3 1 1 2h4l1-1h1l1 1h3v-2h7l3-1 3 2v2l7-1h2v-2h15l1 1v1l1 1v-3h1l1 1 1-1h6l3 1v1h4v-2h12v2h2v-2h10v2h1v-2h6l1 1v1l3-1v-1h6l1 2v-3l10 2 1 1h3v-2h9l4-1v4l2-1v-1l2-1h2v1l-1 1h2v-2l1-1 3 1v2l2 1v-3l1-1h1l1 1h1l1 2 1-2h1l2 2h3v-1l2-1h5v1l-1 1h5v-2h12v2h2v-2h4l6-1 1 1v1h-2v2l2-1 1-2h4l3 2v-2h2l4-1 2 1v2h1v-2h1l1 1h8v2h2v-3h3v1h-2l1 1 4 1v-2h4l3 1v-2h2l1 1 1-1h3l1 1 1-1h9l2 2 2-2h2v2h1v-1l2-1h4v2l1 1v-2h1l1 1v-2l3-1 1 1h10l3 1 2-1h7l1-1h3l1 2 3-2 2-1h4l3-1 1 1 1-1h4l2-2h2l1-1h3l1-1h1v2h3v-3h3l2 1v-2l2-3 4-1h2l1-2h1l1 1 1-1 3-1 1-1 7-1 1-1 6-1v2l1-1v-1l3-1h1l1-1 4-1 3-2 3-2 1-2h2v-2h2l2-3 3-2h2v-2l2-2v-1h2v-2l2-3 2-2v-2l2-5 1-1 1-4 1-1 2-9 1-6 2-7v-6l1-3v-5h3l1-1 1-11v-2l1-1h1v-2l1-4 1-2h1l1 1v1l1 1v-3l1-1v-3l1-6h2v-3l1-4 3-2h2v-2h1l1-6 1-2h1l2 2v6l-1 1v1h1v2l-1 1 1 1v1l-2 1v2l-2 3h2v1h-2l1 5v3l1 1v1h-2v35h-1l-1-2-1 1v1l1 1-1 3-1 2h2v2l-1 1h-2v4l2 1v-2l2-3h2l-1-1h-1v-2l2-1h2v-9h3v-2h1l1 3-1 1h2l2-2 1-5v-1l1-1h3l1-1h-2v-1h2v-6l1-4h1l1 1 1-1h1l2 3v2h3v-6l1-4v-1l1-1h2l-1-1v-1l1-1h3l1-5h1l3 2v-2h10v-1l-2-1v-1h3l1 1 1-2h1l1 1h4l-1-1h-1v-21h2l2-3h1l1 3h1l1-1v-2h-2l-2-3-1-2v-2l1-1v-2l-1-3-1-1v-1h4l1 1h2v2l-1 2h2l1-1h2l1-1v-2h2v-2h1l1 2h1v-3h1l1 1h1l1-1h1l2 3v144l-1 21-1 8-1 3h-2v1l1 1v2l-1 1h-1l-2-2-2-1v2h-2l-2-2-1 1h-2l-1-1-1 1h-2v2h-2l-1-1h-1l-1-1h-4v2h-4l1-3h-3v1l-1 1v2h-2v3l-1 2h-3l-1 3h-8v-2h-5l-1 1h-3l-3 1-1-1-1 2h-2v-2l1-2-3 1-1 2h-1l-1-1h-1l-3 5-2 2-3-1-1 1h-1l-1 1h2v1l-2 1-1 2h-1l-1-1v-1l1-1-2-1h-4v2l-4 3-1 1h-2v2h-1l-1 1h-5l-3 2h-1l-1 1h-1l-1-1-4 3-4 3-4 2-1 1-3-1h-2v2h-2l-1-1v-3l-5 1-3 1h-1l-2 2-3 1h-2l-2-3-4 1-1 1v1l-1 1h-1l-1-1h-3l-13 3-12 2h-7l-1 1h-6l-3-2h-1l1 1v1l-4 1h-3l-2-1-1-2h-1l-1 1h-2l2 1v1h-4l-1-1-3 1-1 1h-3l-1-1h-2l-1-1h-1v1l-4 1-3-1-1-1-2 2h-1v-2h-2l-3-1v2l-2 1h-12v-1h2l-1-2-1 1h-6l-1 1h-2v-3h-2v2l-1 2h-1l-1-2h-1l-1 2h-11v-3h-3v2h-1l-1-1-1 1-3-1v2l-3-1v-1l-4 1-1-1-2 1h-3l-2 1h-3l-2-1v-2h-4l-2 3h-1v-2h-2l-1-1h-4v2h-3l-1 1h-1l-2-2v2h-2l-1-1v-2l-4 2h-1v-2l-1-1v2l-2 2h-2l-3-1h-2l-1 1h-3v-2l1-2-2 1v3l-3-1-2-1v2h-1l-1-2-5 1h-2l-2-1-2 2h-1v-3h-3l-2 1h-2l-2-1-1 1h2v1h-3l-1-1h-2l-1 2h-1v-2l-3 2-4-1-1 1h-4l-1-1-5 1v-2h-4l-1 1h-1l-1 1h-3v-2l-3 1-1-1h-1l-2 2-6-1h-1l-1-1v-1l-1-1v3h-2l-2-1v2l-5-1-1-1-3-1-1 1h-4v2h-4l-1-1h-4l-3-1h-1l-1-1h-1v3h-3l-1-1v-2l-3 1-2-1v2h-2l-1-1h-8l-1 1h-2l-3 1h-3v-2l-1 1h-1l-1-2-2 3h-2l-1-1v-2h-4v2l-3-1h-2l-2 1v1h-3v-2h-2v-2l-3 1v2l-3 1v-2h-2v2h-9l-1-1v-1h-1l-1 1h-3l1-3h-2v2h-2l-1 1h-1l-1-1h-4v2h-3v-1l1-1-1-1-2 3h-7l-2-3-3-1v3l-3 1-1-2h-1v1l-1 1h-3v-2h-9l-1-1-1 1-3-1-1 2-4-1-1-1h-1l-2 2h-5l-3-1h-1l-2-2-2 2h-2l-1-1h-5l-1-1h-7l-3-1h-2l-11-2h-3l-3-2h-4l-1-1h-3l-3 1-1-1h-3v-2l-2 1v1h-3v-1l-1-1v2h-1v-2h-4l-1 2h-1v-2l-3 2h-1l-1-3-1 1h-3l-1-2h-2l-5-3-2-1-1-2h-1l-1 3h-1v-3h-7l-3-2-5-5h-2v-2l-3 2h-1v-4l-3 2v5h-2l-1-3-3-2v-1l-2-2-2-3-2-1v-2l-2-1v-1h-1v2h-4v-1h-2l-1-1-7 1-1 1h-2l-4-1h-4l-4-1v2h-2v-3h-1l-1-4v-4h-2v2h-4l-1 1h-3l-1-1h-6v-1l-1-1h-3v-3l-1 1v2h-2l-4 1-1-1-1 1-1 3h-1v-5l-1-1v2l-1 3h-1l-1-10-1-14-1-83Zm815 42v1h1v-1ZM447 742l-2 1v1h3v-2Zm444 14v1h1v-1Z" fill="#18acf1"/><path d="M623 530h2l81 81v2h2l39 39v3l-3 2-2 1h-3l-2-2-1 1 1 1v2h-3l-5 2-1 1h-1v-2l2-2 3-2 2-3-3 1-1 1h-7v2h-2l-3-1h-2l-2 1-1 2h-1v-2h-2l-1-4h-1l-3 2h-3v-2h-2v2h-2v-2l-3 1h-3l-2 3h-2l-1-1v-2l-3 2-1 1h-4v2h-2v-2l-2-2-7 1-1 1-3-1v-3h-2l-1 1h-1l-2 3-4 1h-2v-2l-1-1h-5l-3-1-1 1h-10v2l-3 2h-1v-4h2v-3l-3 2h-3l-1-1v-1l-1-1v2l-1 1v3l-3 4h-3v-2h2v-7h-3v4l-3-1v3h-3v-2l-2-2h-1v1l2 2v2l-3-1h-7l1 1v1h-8l-2-3-2 1h-2v-3h-2v4h-2v-6h-2v2l-6 1-3 2v2l-1 1h-1l-1-4v-2l2-1 2-3-3 1-1 1-1 3h-2l-1-1h-5l-1-1-1 3-3 1v-3l-5-3h-2l-3-1v2h6l2 2v5h-2l-1-3-1-1h-3l-2 1h-3v-1l1-1v-1l-2 2h-3l-4-2v2l-2 5h-1l-1-4v-3h-8v1h7v2l-7 1h-2l-1-3v-3l-3-2 2 3v4l1 1v2l-3-1-3-2v-1l1-1-2-1v3h-4l-1 4h-1v-4h-2v5h-2l-2-3v-1l1-1v-5l-5 3h-2v-3l1-1v-2l-1 1-1 4-1 1-1 3h-3l1-5-2 1-1 2h-3v-3l-2 1h-5l-2 3-3 2-4 1-1-1v-1l1-1h4v-2h-6l-1-1h-2l-3 1-2 2-1 3h-1l-2-2v-3h-2l-2 4h-2l-1-4-2 3-1 1h-1v-2l1-2h-4v7h-1l-1-4-4-1h-2l-2 2h-1v-2l-5 1-1 1h-2l-1-2h-5l1 5h-2v-5l-3 1-1 1h-2v-2h-4v-2l2-1 1-2h-1l-2 2h-5l-3-2h-3v3l-2 2h-2l-2-3v-1l2-1h-3v5l-1 2h-2l-2-2v-2l-4 2h-1v-2l-3 2-5 1-1 1h-3v-1l1-1v-1l-3-2v2l-1 1h-9l-2-2-2 3-1 1h-2v-4h2l-1-2v-2l-2 1-1 5h-2l-1-2-1 3h-1l-1-2h-1l-3 2h-1l-1-3-1-1h-1l-2 2-1 3h-2l-1-1 1-5h-2v4l-3 1-3-1v2h-2l1-4h-3v2h-1l-1-1h-5l-1-2-1 1h-2v-4h-2l1 4 1 1v1l-1 1h-2l-1 1h-3l-1-2v-2l2-4h-3v2l-1 1h-2l-1 3h-4v2h-2v-3l1-1v-3l16-16v-2l5-5 2-1 2-3 17-17h2v-2l55-55h2v-2l3-2 2-3 2-2 2-1 2-3 2-2h2v-2l2-2 3-1h2l3 1 2 2 3 2v3h3l2 5 3 1 2 3 3 1 2 3 3 4 5 5 2 3h2l1 1v3h2l1 2h2l2 2v2h3l1 1h2v4h4v3h4l2 1 2 3h1l1 1 3 1v3h4l5 2-1 3 2-1h2l1 1h3v2l3-1 1-1 3 1v2l3-1h2v2h5l2 1v-2h9l3 1 1 1h4l7-1 1-1h1l1 1 5-1 4-3h4l2 1v-3l1-1 4-1 3-2 3 1v-2h5v-2l3-2 2-2 5-2 1-1h2v-2h2l2-2 1-3 4-3 3-4 4-1 3-3 2-1 1-3 1-1h2v-4l5-2v-2h3v-4l2-3h3l3-3 2-3 1-1h2v-2l2-3Z" fill="#d9dfdf"/><path d="M220 381h1l1 283 2 8 3 7 3 4 2 2 2 3 2 2 5 3 4 2 5 2 5 1h512l7-1 7-3 4-2 4-3h2v-2l1-1h2v-2l2-4 2-3 2-5 2-8 1-283h1l1 24 2 5 2 3 1 3v3l2 2-1 3h-1l-1 3h2l2 1-1 4h-2v3l1 1 3 1 1 1v2h-1l-1-1h-2l-2-1v7h3v1l-2 1v13h2l-1-3h2l1 1v4l-1 1v1h-4l1 1h1l1 4 2 2v1l-3 1h-1l1 1v3h-2l1 2v8l2 3 2 1v1l-2 1v1l-2 1v1l1 1v1h-2l1 4h2l3 2v1h-2v3h3v1l-3 1 2 1 1 2v5h-1l-1-2-3 1-1 1h2l1-1h1l2 4-1 3 1 1v38l-1 1 1 1v3h-1l-1 1h2v2h-2l1 1h1v93l-2 11-1 4-1 1-1 4v1h-2v3l-1 3v1l-3 3-2 4-1 1v1l-2 1-1 2-5 3-2 3h-1l-1 1h-2v2l-2 2-4 2-1 1-4 1-1 1h-2v2h-3l-1-1-5 1-1 1-7 1-1 1-3 1-1 1h-1l-1 1h-7v2l-2 3h-2l-3-1v3h-3l-1-1-1 2h-1v-2l-3 2h-2l-2 2h-4l-1 1h-1l-1-1-3 1h-3l-2 1h-2v2h-1l-1-1h-11l-3 1-3-1h-10l-1-1-1 1v1l-1 1h-4v-2h-3v2h-3l-1-1v-1h-1l-1 2h-1l-2-2h-9l-1 1h-1l-1-1h-1l-1 1h-1l-3-2v2h-3l-4-1v2h-5v-2l-1-1v3h-2v-2l-6 1h-2l-1-1v2h-5v-1l1-1h1l1-1h-3l-4 1-1 1h-2l-1-1h-3l-2 2h-2v-2l1-1-6 1h-3l-1 1h-2v-2h-6v3h-1l-1-1h-1v-2l-1 1v1l-2 1h-6v-1l1-1h-4l-1 1v1h-4l-2-2-2 2h-1l-1-2h-1l-1-1-1 3h-2l-1-1v-1l-1-1h-1v3h-4v-1l1-1h-1l-1 1v1h-3l-1-3-4 1h-6v1l-3 1h-2l-1-1-9-2v2l-1 1h-1v-3l-2 1h-3v1l-3 1h-3v-1l1-1h-5v2h-4v-1h2l-1-1h-7l-2-1v2h-2v-2l-4 1h-7v2h-7v-1l-1-1h-6l-1 2h-4v-2h-6l-9-1v2l-2 1h-7l-1-2-3-1h-2v2h-1v-2l-2 1h-2l-2-1v2l-3 1-1-1h-1l-1 1h-4l-1-1v-2h-3l-1 1h-7v2h-4v-1l1-1h-1l-1 1h-1l-1-1-1 1h-1l-1-1h-2v1l-1 1h-4v-3h-8l1 1h1l1 1v1h-12v-1l1-1h-11l-1 1-3 1h-2l-3-1v-1h-6v1h-4l-1-1h-4l-4-1h-1l-1 1h-2v-1l-1-1-4-1v2h-3l-1-1v-1l-1-1h-7l-1-1h-7v-3h-1l-1 1h-2l-1-1v-1l-3-2-3-1h-2l-2-1-4-1-4-3-7-1-1-1-5-1-1-1h-5l-4-1-2-2-4-2-2-2-2-3h-2l-2-3-4-2-2-3-2-1-3-6-3-4-1-2v-4h-2v-1l-1-1-2-7v-2l-2-10v-99l2-3v-3h-1l-1-1v-15l1-2-1-1v-8h2l1 1 1-2h-4v-4h3l1 1v-1l-4-1v-1l1-1-1-1v-8l1-1h2l1 2h2v-1l-5-2-1-1v-6l1-1h3l1 1v1l-2 1v1l2 2h1v-7l-1-1v-2l1-1v-1h-1l-2 3h-1v-2l-1-1v-3l2-2-1-1 1-4h3v1h-2l1 1h2l-1-10v-5l-1-1h-1l-2 4h-1v-3l2-4h2v-2h1v-12l-3-2h-1v-3h3l2 1-1-4h-1l-1-1v-1h2v-2h-2l-1-1v-1h2l2 1-1-2v-6l-1 1h-1v-4l1-1h2l-1-3v-11l1-7 2-4 1-1-1-1v-1l2-1v-5h-1v-2h2l-1-3Zm227 361h1v2h-3v-1Z" fill="#109ad8"/><path d="M843 592h1l2 2v6l-1 1v1h1v2l-1 1 1 1v1l-2 1v2l-2 3h2v1h-2l1 5v3l1 1v1h-2v35h-1l-1-2-1 1v1l1 1-1 3-1 2h2v2l-1 1h-2v5l-1 6-1 3 1 2v2l-1 1v2l-1 2 1 1v1l-2 2v2l-4 13-1 3-1 1v2l-4 10-3 6-3 4-2 3h-1v-2l-1 1v4l-1 2h-3l-1 3h-1v3l-2 3-3 3-3 2h-4l-4 3-1 1h-3v2h-2v2l-4 1h-3l-1-1h-3l-2-1v2l-1 1h-2l-1-1-3 1h-3v2h-2l-6 2-6 1-1 1-4 1h-3l-1-1-2 2-4-1v2h-1l-1-1h-4l-1-1h-1l-1 1h-6l-3 1h-6l-3 1h-21l-4 1h-89v1h-2v-2l-3 1-2-1v2h-1v-2l-17 1h-51l-6-1v2h-1v-2l-20 1h-16l-4 1-1-1h-7l-13-1v2h-1v-2l-10 1h-40l-5-1v2h-1v-2l-4 1h-5l-7-1v2h-1l-1-1h-23l-13-1h-3l-1 1h-1v-2l-3 1h-6l-2 2h-1v-2h-2l-1 1h-1v-2l-2 1-1 2h-1l-1-1v-1l1-1h-17v-2l-2 1h-8l-8-2v-1h-3l-8-2-3-1h-1v-2h-2v2h-1l-1-1v-1h-2l-1 1h-1l-1-1v-1l-1-1h-3v3h-1l-1-1h-3l-5-2v-2h-2l-3-2-2-1v-2h-2l-2-2h-2l-1-1h-2l-3-2-2-2h-2l-2-5 1-4-2-2h-1l-1-2h-1v-2h-3v-4l-3-2-2-3-2-4v-4l-2-1-2-6v-2l-1-1-3-9-1-5-2-10-1-7-1-3-2-1v2h-1v-4l-1-3v-5h1v-2l-1-1-1-3v-19l-1-7v-25l-1-1v-3h-2v-9l1-1h2l1 3v4h3l3-1v3h1v3l1 1v4l2 4 1 4v2l1 1v-2l1-1 3 1 1 7 1 1h1v18h2v1l-2 3h2v-2h2v1l1 1 1 5v10h2l2 11 1 4v4h2v1l1 1 1 4 3 5 2 3 1 2v2h2l2 2v2h2l3 2 2 2h1l2 2 2 3 4 2 2 2 5 1h4l1 1 5 1 1 1 7 1 4 3 4 1 2 1h3l4 2 3 1v1l-1 1h2l1-1 4 1v1h-3l1 1h6l1 1h7l2 1v2l1-1h6l2 1v1l1 1v-2h3l4 1h3l1 1h3v-1h10v2h5v-2h4l5 1v-2h1l1 1 3 1v1h6v-2l3-1 5 1 1 2h3v-2h3l1 1h1l1-1h1l1 1 1-1h1l1 1v1h1v-1l1-1h7l1-1 3 1 1 2h4l1-1h1l1 1h3v-2h7l3-1 3 2v2l7-1h2v-2h15l1 1v1l1 1v-3h1l1 1 1-1h6l3 1v1h4v-2h12v2h2v-2h10v2h1v-2h6l1 1v1l3-1v-1h6l1 2v-3l10 2 1 1h3v-2h9l4-1v4l2-1v-1l2-1h2v1l-1 1h2v-2l1-1 3 1v2l2 1v-3l1-1h1l1 1h1l1 2 1-2h1l2 2h3v-1l2-1h5v1l-1 1h5v-2h12v2h2v-2h4l6-1 1 1v1h-2v2l2-1 1-2h4l3 2v-2h2l4-1 2 1v2h1v-2h1l1 1h8v2h2v-3h3v1h-2l1 1 4 1v-2h4l3 1v-2h2l1 1 1-1h3l1 1 1-1h9l2 2 2-2h2v2h1v-1l2-1h4v2l1 1v-2h1l1 1v-2l3-1 1 1h10l3 1 2-1h7l1-1h3l1 2 3-2 2-1h4l3-1 1 1 1-1h4l2-2h2l1-1h3l1-1h1v2h3v-3h3l2 1v-2l2-3 4-1h2l1-2h1l1 1 1-1 3-1 1-1 7-1 1-1 6-1v2l1-1v-1l3-1h1l1-1 4-1 3-2 3-2 1-2h2v-2h2l2-3 3-2h2v-2l2-2v-1h2v-2l2-3 2-2v-2l2-5 1-1 1-4 1-1 2-9 1-6 2-7v-6l1-3v-5h3l1-1 1-11v-2l1-1h1v-2l1-4 1-2h1l1 1v1l1 1v-3l1-1v-3l1-6h2v-3l1-4 3-2h2v-2h1l1-6ZM447 742l-2 1v1h3v-2Z" fill="#17a5e7"/><path d="M227 345h2l9 9v1h-2v2h2v2h2l3 4 3 2 2 3 1 4 2 2v3h2l2 3 1 1v2h2l3 4 3 3 1 2 2 1 2 3 4 4 2 4 3 2 3 4 4 4 2 3v2h2l5 5 1 2 4 1 3 2 1 3 1 1 4 1 2 3 3 4 3 3 2 1 1 3 4 3v2h3l1 4 3 1 1 2v2h2l1 2 2 1 2 3 3 3v2h2l2 3 3 2v2h2v3h2l2 2 2 3 1 1v3h3l3 6 3 3v2h3l2 2 1 4 2 2 1 4 1 1v2l1 1v4l-2 3-2 3-3 5-3 2-2 3-3 2-2 2-2 3-1 1h-2v2l-2 3-1 1h-2v2l-1 2h-2v2l-3 1-7 7h-2v2l-3 4-2 2-1 2-5 3-2 3h-2l-1 1h-2v3l-2 3h-2v2l-4 3v1l-2 2h-3v3l-4 3h-2v3l-1 1h-2l-2 3-2 1v2l-2 2h-4v2l-3 2-2 5h-2l-5 5h-2v-2h2l-1-2-3 2h-2l-2 2v3l1-2h4l2 1v1l-3 1-1 1h-2v2h-2l-1-1v6h-2v-3l-1-1h-1l-1 2-3-1v-5l-1 3v4h-6l-8 1-1 2h-2l1 3-1 1h-2l-2-1-1-4h-5v-2h4l-1-2-4 1v-4l1-1v-2h-2v-6l-1-8-1-1v-1h2l-1-2-2-1v-3l1-1h3v-3l1-3h-2l-1-1 1-5 1-2-3-1 1-5 1-8h-3v-2l1-4-2-2V361l1-5 2-6 2-4ZM795 345h2l2 3 2 5 1 3 1 5v182l-1 2h-2v4h2v2l-1 1-1 7-2 7-1 2h2v2l-1 4-1 3-1 1 3 1-1 3-2 1v3l-3 1-1 1h-2l-1-1h-1l-1 1h-1l-1-2-1 3h2l1 1v1l-4 1h-2v-6l1-2h-2l-1 1-1 4-1 1h-4l-1-1v-1l1-1h2l1-3h-5v-1l1-1h2v-2h-5l1 5 1 1v2l-3 8h-1v-10l-3 2-1 2h-2v-6l-3 2-1 2h2v2l-1 1 1 1v1h-2l-2-1v4l-3-1v-1l2-3-7 2h-1v-3l3-1h1l-1-3-1-6-1 2h-1l-2-2h-2v2h2v2h-2v2h-1l-3-2v2h-2v2l3-1v2l-2 3h-3l-1 2h-1l-1-1v-2h-2l-2-2-1-5-1 1 1 5v2l-5-1v-1h2v-2h-2l-1-1v-1l2-1 1-5-3 2-1 3-1 1h-2l-1-1v-2l2-3h-2v2l-3 1-3-2v-1h3v-2l-2 1h-2l-2-2-2-1-1-3h-2l-4-1-1-1 1-3h-2v-1l-3-2-3-1-1-1-1-4-5-2-1-1-1-3h-3l-2-3v-3l-3 1-2-4h-1l-7-7-1-2-3-1-1-1v-4h-3l-2-4-2-3v-4l2-3h2v-2h-2v-1l4-2 3-3 1-3h2v-2l2-2h2v-2h2v-5l3-2 1-3 3-2h2v-3l3-2v-1l3-1 1-4 4-3 2-3 3-4 3-2 1-3 2-1 2-3h2v-2l2-2 2-1 2-3 3-3 2-3h2v-3l3-2v-1l5-5h2v-2l1-2 2-1 2-3 2-2 2-3 2-1 2-3 2-1 2-4 3-2 3-4 2-3h2v-2l3-4 8-8 2-3 3-3 2-3 5-5 1-2h2v-2l4-4 2-3 2-2 3-5 3-4-1-1v-1Z" fill="#e4e7e9"/><path d="M912 395h1l2 3v1h4l1-1h3l1 1v180h-1l-1-2h-1l-1 1h-1l-1-1v2l-1 1h-1l-1-1h-1l-1 1v1l-2 2h-1l-1 1-3-1v-3h-1l-1-1h-1v1l-1 1 1 2v2l-1 1v2l2 4h2l1 1v3h-2v2h-1l-2-3-2 2h-1v19h1v2l-5 1-1 1h-1l-1-1h-1l1 1v3h-1l-1-1h-8l-1 1h-2l-1-1-1 6h-1l-1-1h-2l2 1v1l-3 1h-1v2l-1 4v2l-1 3h-3l-2-4h-1l-1 2h-1l-1 1-1 7v2h-4v2l-1 4-3 3h-2l-2-1v-1l2-1-3 1-1 8-2 1h-2l1 1h1v2h-2v2l-1 1v3l-3-1-1-1 1-4 2-1 1-2h-2v-2l1-3-1-1v-1l2-2h1l1-6h-2v-1l1-1v-10l1-16v-11l1-1v-2l1-1v-2l1-1v-1h-1v-2l1-1v-6l-1-1-1 1-1 9h-1l-1-1-4 2-2 7h-2v9l-1 1-1 3h-2v-2l-1 1-1 5v2h-2v3l-1 10-1 2h-3v4l-1 4v5l-1 4h-1l-1-30v-35l-1-1v-1h2l-1-8v-2l1-6h-2v-1l1-1v-4h-1v-2h2v-2h-2v-3h1l1-1h-2v-1l1-1v-20l1-6h-2v-1l1-1v-9l-1-1 1-4-1-2h-5l1-3h2l3-1 1-1 1-8v-4l1-5 2-1h2l1-15 1-1v-10h1l3-2h2l-1-4h2l-1-1h-1v-3l1-1h2l-1-8 1-1h4l2 1-1-5v-4h4v3h4v-2h-2v-2h1v-8l2-1v-4h2l1 1v2l2-1 1-4 1-2 3-2v-6l1-1h2l1 1 1 3h1v-1l-1-1 1-3 3 1 1 2v2h2v-8l-1-3v-3h4l1 1h5l2 4h3v-2h2l2 1v2l2-1v-1l-2-1-4-1-1-1v-1h2l5 1 1-1h1l1 2v-8h3l1-1h1l3 2 1-1h5l1 1h2l1 1h1l-1-1v-1l2-1Zm3 185h1v1h-1Z" fill="#1896ee"/><path d="M236 334h1v2l-1 1 7 1 206 206 3 2 7 7 3 2 2 2 3 2 4 3 5 3 6 3 8 3 7 2 5 1h20l15-4 7-3 6-3 4-3 3-2 4-3 2-2 3-2 6-6 3-2L780 339h2v3h3v3l4 1 1 1h1l3-3 1-2h1l1 3-3 2-1 1 1 1v1l-3 4-3 5-3 3-2 3-3 3-1 2h-2v2l-6 6-2 3-3 3-2 3-8 8-3 5-2 1-3 5-3 3h-2v2l-2 3-2 1-2 3-2 1-2 3-2 2-2 3h-2v2l-1 2-3 2-3 3v2l-2 1h-2v3l-2 1-2 3-3 3-2 3-3 2-1 2-2 1-2 3h-2v3l-4 3-2 3-3 4-3 2-1 4-3 2v1l-2 1h-2v3l-3 2h-2v3l-3 3-1 4h-2v2l-3 2-1 2h-2v3l-4 4-2 1v3h-2v2l-1 1v4l3 5v2h3l1 4 3 1 3 4 5 5h2l1 3 1 1h2l2 5h3l1 1 1 3 5 2 1 1 1 4 3 1 1 1 3 1v1l1 1v3l5 1h1l1 1v3h2l2 2h4v2l-2 1 3 1h2v-2h2v2l-1 1v2h2l1-3 2-2h2v5l-2 2 2 1v2l2 1-1-6 1-2h1l1 1 1 5 3 2 1 2 2-2h3l1-3h-2v-2h2v-2h2l1 1 1-1h2v-2h-2v-2h2v-4h1l1 5 2-2h1l1 7 1 3-1 1h-4l1 2 3-1h4v2l-1 1 1 1 1-3h3l-1-1v-1h2v-2h-2v-2l2-2h2v6h2v-2l2-2h2l1 3v4l2-5v-2l-1-1v-5h5v2l-2 1 4 1v3l-1 1h-2v1h4l1-4 1-2 3 1v2l-1 6 5-2-2-1v-3l1-1h1l1 2 1-1h1l1 1h2l1-1h3l-1-3 1-1h2v-2l-3-1v-1l2-3v-2l2-5h-2v-2l2-7 1-7 2-3h-2v-4h2v-2h1v121l-2 8h-3v3l-4 1-2 1h-2l-1-2-2-1-1-2v-2h-2l-9-9-3-2v-2h-2l-2-3-3-2-2-3-2-1-1-2-2-1-1-2-3-2-2-3-3-2-2-3-45-45-1-2-3-2-2-3-3-2-2-3-2-2-3-2-2-3-2-2-1-2v-2h-3l-1-1v-2h-2l-4-3-2-3-1-1v-2h-3l-2-3-2-1-2-3-1-3-2-2-3-1-1-3-4-4v-2h-2l-1-1 1-3h-3l-1-6v-1l-1-1v-2h2v-2l1-3 2-2 3-2 3-5 3-2 1-3h2v-2l4-3 7-7 2-3h2v-3l1-1h2v-2l2-3 2-1 1-2h3v-2l8-8 2-3h2v-2l2-4 3-2 3-2 1-3 4-3 1-2h2v-3l2-2h2v-3l3-2 5-5 2-3 1-1h2v-2l2-2 3-2 1-2 2-1 1-3 4-3 3-4 1-1h2v-2l3-3 2-1 1-3 3-2 2-2 3-5h2v-2l2-2 1-2 3-2 3-3v-3l17-17h-1l-23 23-1 2-2 1-2 3-4 4-2 1-2 3h-2v2L587 553l-3 2-9 9-3 2-2 2-3 2-4 3-5 3-3 2-3 2-5 2-7 3-10 2-3 1-8 1h-14l-12-2-11-3-5-2-5-2-3-2-4-2-2-2-5-3-2-2-3-2-3-3-3-2-8-8-2-1v-2h-2L297 413v-2h-2l-10-10-2-3-4-3-4-4-2-3-2-1v3h2l1 1v3h2l2 2v2h2l2 3 1 1 3 1v4h3v3h2l3 4v2h3l3 4v3h3l1 1v2h2l3 3 2 3 4 4h1l1 2 4 2 1 2v3h3l1 3 3 1v3h4l2 4 2 1 1 3v2h4l1 3 1 1v2h2l1 1v2h2v4h2l1 1 1 3 3 2 3 1 1 1 4 1v4h2l3 4 3 3v2l1 1 4 1 1 2v2h2l2 1 1 3h2l2 7v7h-2v2l-2 3h-2v3l-4 4-3 2-3 3h-2v2l-2 1-1 3-4 2-2 3-3 3h-2v2l-5 5h-2v2l-6 6h-2v2l-2 4h-3v2l-2 2-3 2-2 3-41 41-2 3h-2v2l-3 3h-2v2l-2 1-2 3-4 3-1 2-3 2-2 3-3 2-4 4-2 3-5 5h-2v2l-3 2-1 2-3 2-3 3-3 2h-1l-1-1v-2l-3 1h-2l-1-1 1-3h-2l-2-2v-4l-1-1-1 3h-1v-90h1l2 2-1 4-1 2h3v8l-1 4 3 1-1 3-1 5h2l1 1-1 3-1 3-3 1-1 3h2l1 1v2l-1 1 1 1 1 10v2l-1 2 3-1v3l-1 1v3l4-1v3h-4v2l6-1v5h4v-3h2v-2l1-1 8-1h4l2 1-1-2v-2l1-3 1-1h1v5l1 1 2-2h1l2 2v2l1 1-1-4v-3h1l3 2v-2l3-2 1-1-4-1v2l-1 1h-1v-4l3-3h2l3-2h1v3h-2v2l3-2 4-4h1l1-1 1-3 2-2h2v-2l4-1 1-1v-3l3-1 2-3h2l1-3 5-3 1-3 3-1 1-1v-2l4-2 1-2h2v-2l1-1 1-3 3-2h2l2-3 3-2h2v-2l3-3 3-5 3-2 6-6h3v-2h2v-2l1-2 3-2 2-4 3-2 2-3 3-3 2-1 2-3 2-1 3-5 2-3 2-3v-4l-1-1v-2l-1-1-1-4-2-2-1-4-1-1-3-1-2-3-2-2-2-4v-2h-3l-1-3-2-2-2-3-2-1v-3h-2l-1-2-3-2-1-2-2-1-2-3-3-3v-2h-2l-1-1v-2h-2l-1-2v-2h-3l-1-1v-4h-3l-1-2-3-2-1-1v-3h-2l-5-5-2-3-1-1v-2h-4l-2-2v-3h-2l-1-1-4-1-3-4-3-3-2-1-3-5-5-5-2-3-3-2-2-4-5-5v-2h-2l-3-4-3-3-1-2-2-1-2-3-1-1v-2h-2l-1-3-2-2-1-4-1-1v-2h-2l-3-3-1-2-2-1v-2h-2v-2l1-1-8-8-2-1 1-3Z" fill="#bcc2c6"/><path d="M789 349h2v1l-17 17v3l-5 5h-2v2l-2 2-1 2h-2v2l-3 4-3 3h-2v3l-4 3-2 3-3 2-2 3-2 2-2 1-1 3-1 1h-2v2l-2 2-3 2-1 2-3 2-2 3-6 6h-2v3l-3 2-1 3h-2v2l-2 2-2 1-1 3-2 2-4 2-3 6-2 1-2 3-7 7-1 2h-3v2l-3 2-2 4-2 1-1 3-2 1-2 3-8 8-2 1-1 2h-2v3l-3 2-3 5-2 2-3 2-2 5h-2l2 3v7h3v3l2 1 2 3 3 3v3h3l3 3 1 3 1 1v2h2l2 2v2h3l2 3 2 3 5 3 1 2 3 1 2 4 3 3 1 2 3 2 3 3 1 2 3 2 2 3 3 2 2 3 45 45v2h2l3 3 1 2 3 2v2h2l1 1v2h2l2 2v2h2l3 3v2h2l1 2 3 2 8 8 2 1 1 2v2h2l1 1v2l4-2h4l-1-3 1-2h1l1 2v2l-2 5-2 3-2 4-2 1-1 2-5 3-3 2-4 2-5 2-7 1H380v-2l1-1 3-1h7l1 1 2-2h7l1-1h1l1 3 1 1 1-1 8-1v3h2v-2h4v2l1-1v-2l4-1 1 3 1 1v-3l1-1h1l2 2 2-1 4-1 2-2h5l2-1h2v3l11-1 1-1h5l1-1h1l3 2h1l1-2h5l1 1h5v2l2-1h3l1-1h1l1 1h1l1-1 3-1h2l1 2 2 1v-3h3l2 2h1l1-1h2v2l3-2 1-1h1v2l3-2h2l-1 3 5-1h4l4-1 2 1 5 1v-2l1-1h1l1 1h5l1-1h2v3l5-1h1l1-1h4l2 1v-2h1l1 1h3l2 1 1-1h3l6 1h3l1-1h1l1 1 2-2h1l1 2h1l1-1h1l1 1 3-1h2l7 1 1 1v2h1l1-1h3v1l-1 1 2 1v-2l3-1 2-3h2l5 1h2l1-1h2v2h2v-2h3v2l8-1 2-2h2v3l2-1h2l3 2v2l3-2 1-1h1l1 1h7l3-2 1-1h4l1-1h2v3h3v-2l11 1 3-2h2v2l2-2h2l1 1h2l3-1v3l6-2h2l1 1 4-1v2h3l-1-3h4l-1 3 2-1h7l4-1 2 1v-2h3l-1 3 3-1h2l3 1v-2h7l1 1h5v-2h8l1 1 3-3h3v2h2v-4l-3-3-1-2-3-2v-2h-2l-2-3-3-2-2-3-7-7-2-1-2-3-45-45-2-1-2-3-79-79h-4v2l-2 3-3 2-2 3-2 3-4-1v2l-1 1-1 4h-3l1 3-3 1h-3v4l-2 1-1 3-4 3-2 2-4 1-2 3-2 2-2 1-1 3-3 3h-1l-4 3-5 2-3 3h-2v2h-5v2h-3l-3 2-4 1-1 3h-6l-4 3-5 1-1-1h-1l-1 1-7 1h-4l-1-1-4-1h-6l-2-1v2h-2l-5-1v-2l-2 1h-3v-2h-3l-1 1h-3v-2l-3 1-1-1h-4v-2l-4-2-4-1v-3h-3l-1-1h-2l-1-2v-2h-2l-4-1v-3h-4l-1-3h-1l-1-1-3-1-2-3h-2l-1-1v-2h-2l-1-3h-2l-2-2-2-3-5-5-2-3-1-1v-2h-3l-2-3-3-1-1-1-1-3v-2h-3l-1-3-3-2-1-1-3-1h-2l-3 1-2 3-3 2-3 4-3 2-3 4-2 1-1 2-3 2-53 53-1 2-3 2-16 16-2 3-3 2-24 24-2 3-3 2-2 2-2 3-2 1-1 2-3 2-2 3-3 2-4 4-1 2-2 1-2 3h-2l1 4 2-1h2v3l2-1h4l1 1 4-1h2l2 2h4l1-1h2v2l3-1h4v-2h2v2h7l3 1v-2h1v2l3-1h2v-2h1l1 2h6l1-1h6l1 1h7l1 1v4h2v-2h11v-2h2v3h-2v2h-77l-5-1-7-3-4-2-4-3-3-3-2-3-2-2-3-5-2-5-1-4v-8h1l2 2v4l3 2v3h5l1 2h1l4-3 3-3h2v-2l3-2 1-2 3-2 4-4 2-3 5-5h2v-2l3-3h2v-2l2-2 3-2 2-3h2v-2l3-2 2-3 2-1 2-3 41-41 2-3 4-3 1-2h3v-2l2-4 3-2 4-4 1-2 3-2 3-3 1-2 3-2 2-2 2-3 2-1h2v-3l1-1h2v-2l3-2 3-3 3-2 2-2 1-3h2v-2l2-3h2l-1-7-2-6h-1l-1-1v-3h-2l-2-1-1-2v-2h-4l-2-2v-2l-4-4-1-2-2-1v-4h-4l-1-1-3-1-4-3-1-3-2-1v-4h-2l-1-2-2-1-2-3v-3h-4l-1-2v-3h-2l-2-3v-2h-4v-3h-3l-1-1v-3h-3l-1-3v-2h-2l-3-2-1-1h-1l-2-3-3-3-2-3-3-2-1-2-3-1-1-3-2-3-3-1-3-5-2-1v-3h-3v-4h-3l-3-3v-2h-2l-2-3-2-1-1-3-2-1-1-2v-2l3 1 2 2 2 3 3 3 3 2 2 2 2 3 8 8 2 1 2 3 136 136 2 1v2h2l9 9 3 2 3 3 3 2 4 3 3 2 3 2 4 2 1 1 5 2 5 2 11 3 12 2h14l8-1 7-2 6-1 7-3 5-2 3-2 5-3 4-3 3-2 4-3 2-2 3-2 9-9 3-2L750 389l1-2 2-1 2-3 3-2 3-3 2-3h2v-2ZM652 691h1v1h-1Zm-1 1h1v1h-1Z" fill="#979fa7"/><path d="M225 680h3l2 3 2 2 2 3 2 2 5 3 4 2 5 2 5 1h512l7-1 7-3 4-2 4-3h2v-2l1-1h2v-2l1-1h1v4l-2 3v3l-3 4-2 2-1 2-4 2-1 2-4 2-1 1-4 1h-1l-1 1-6 2h-2l-3 1-11 1-15 2h-8l-3 1-16 1H316l-16-1-6-1h-5l-15-2-11-1-5-1-6-2-1-1h-2l-3-1-3-2-2-1-2-3-3-1-2-3-2-2-3-5-2-3-2-4Z" fill="#108bc3"/><path d="M780 339h2v3h3v3l4 1 1 1h1l3-3 1-2h1l1 3-3 2-1 1 1 1v1l-3 4-3 5-3 3-2 3-3 3-1 2h-2v2l-6 6-2 3-3 3-2 3-8 8-3 5-2 1-3 5-3 3h-2v2l-2 3-2 1-2 3-2 1-2 3-2 2-2 3h-2v2l-1 2-3 2-3 3v2l-2 1h-2v3l-2 1-2 3-3 3-2 3-3 2-1 2-2 1-2 3h-2v3l-4 3-2 3-3 4-3 2-1 4-3 2v1l-2 1h-2v3l-3 2h-2v3l-3 3-1 4h-2v2l-3 2-1 2h-2v3l-4 4-2 1v3h-2v2l-1 1v4l3 5v2h3l1 4 3 1 3 4 5 5h2l1 3 1 1h2l2 5h3l1 1 1 3 5 2 1 1 1 4 3 1 1 1 3 1v1l1 1v3l5 1h1l1 1v3h2l2 2h4v2l-2 1 3 1h2v-2h2v2l-1 1v2h2l1-3 2-2h2v5l-2 2 2 1v2l2 1-1-6 1-2h1l1 1 1 5 3 2 1 2 2-2h3l1-3h-2v-2h2v-2h2l1 1 1-1h2v-2h-2v-2h2v-4h1l1 5 2-2h1l1 7 1 3-1 1h-4l1 2 3-1h4v2l-1 1 1 1 1-3h3l-1-1v-1h2v-2h-2v-2l2-2h2v6h2v-2l2-2h2l1 3v4l2-5v-2l-1-1v-5h5v2l-2 1 4 1v3l-1 1h-2v1h4l1-4 1-2 3 1v2l-1 6 5-2-2-1v-3l1-1h1l1 2 1-1h1l1 1h2l1-1h3l-1-3 1-1h2v-2l-3-1v-1l2-3v-2l2-5h-2v-2l2-7 1-7 2-3h-2v-4h2v-2h1v121l-2 8h-3v3l-4 1-2 1h-2l-1-2-2-1-1-2v-2h-2l-9-9-3-2v-2h-2l-2-3-3-2-2-3-2-1-1-2-2-1-1-2-3-2-2-3-3-2-2-3-45-45-1-2-3-2-2-3-3-2-2-3-2-2-3-2-2-3-2-2-1-2v-2h-3l-1-1v-2h-2l-4-3-2-3-1-1v-2h-3l-2-3-2-1-2-3-1-3-2-2-3-1-1-3-4-4v-2h-2l-1-1 1-3h-3l-1-6v-1l-1-1v-2h2v-2l1-3 2-2 3-2 3-5 3-2 1-3h2v-2l4-3 7-7 2-3h2v-3l1-1h2v-2l2-3 2-1 1-2h3v-2l8-8 2-3h2v-2l2-4 3-2 3-2 1-3 4-3 1-2h2v-3l2-2h2v-3l3-2 5-5 2-3 1-1h2v-2l2-2 3-2 1-2 2-1 1-3 4-3 3-4 1-1h2v-2l3-3 2-1 1-3 3-2 2-2 3-5h2v-2l2-2 1-2 3-2 3-3v-3l17-17h-1l-23 23-1 2-2 1-2 3-4 4-2 1-2 3h-2v2l-75 75h-5v2l-4 1v-2h-4l-1-1v-2h3v-2l3-2-1-1-1 1h-2v2l-4 2-2 3h-3v-1Z" fill="#cfd4d7"/><path d="M296 427h3l3 2 1 3 1 1 4 1 2 3 3 4 3 3 2 1 1 3 4 3v2h3l1 4 3 1 1 2v2h2l1 2 2 1 2 3 3 3v2h2l2 3 3 2v2h2v3h2l2 2 2 3 1 1v3h3l3 6 3 3v2h3l2 2 1 4 2 2 1 4 1 1v2l1 1v4l-2 3-2 3-3 5-3 2-2 3-3 2-2 2-2 3-1 1h-2v2l-2 3-1 1h-2v2l-1 2h-2v2l-3 1-7 7h-2v2l-3 4-2 2-1 2-5 3-2 3h-2l-1 1h-2v3l-2 3h-2v2l-4 3v1l-2 2h-3v3l-4 3h-2v3l-1 1h-2l-2 3-2 1v2l-2 2h-4v2l-3 2-2 5h-2l-5 5h-2v-2h2l-1-2-3 2h-2l-2 2v3l1-2h4l2 1v1l-3 1-1 1h-2v2h-2l-1-1v6h-2v-3l-1-1h-1l-1 2-3-1v-5l-1 3v4h-6l-8 1-1 2h-2l1 3-1 1h-2l-2-1-1-4h-5v-2h4l-1-2-4 1v-4l1-1v-2h-2v-6l-1-8-1-1v-1h2l-1-2-2-1v-3l1-1h3v-3l1-3h-2l-1-1 1-5 1-2-3-1 1-5 1-8h-3v-2l1-4-2-2v-92h1l1 1v12l-1 2h2l-1 5h2v15l1 1v1l-1 1v2l2 1v2l-1 1 1 1v1l-2 1v1l2 1 1 5v3l1 1 1 6 1 1v4l5-3h3l-1 4h-2l2 1 2 3 2 1-2-3v-1l4-2 1-2h1l1 1h1l2-2v-3l1-1h1l1 1v5l3 1v-2l2-1h2l1 1 2-1h7v2h2v-2h3v-2h1l1 1v2l-8 4 1 1 4 1-1-3 1-1 3 1v-2h2v2l-2 5h3v-2l1-1 2-5 1-1h3v2l4-1 1-2h2v5h2l4 1v-3h2v2h4l2 1h2l1-3h2l1 3 1-2h4l3-2v-1h3v4l-1 1v1h6l2-3h4l-1-4 1-1 3-1 1-2h2v4l2-1-1-1v-1l3-1 2-3h1l1 1 1-3 5-3 2-1h3v-2l3-4h1l1-3 1-1v-4l1-1v-2h-2l-1-1-1-3-2-2-1-3v-1h-1l-1-1v-3h-3l-3-2-2-6-3-2-1-1v-3h-3v-2l1-2h-4l-1-1-1-3h-2l-1-1v-5h-4v-3h-3v-3l-3-4-1-1v-2h-2l-2-1-1-4-3-1v-3h-2l-1-3-1-1-3-1-1-1-1-5-1-3-3-1-2-3v-2h-2l-1-2v-2h-3Zm-60 128v2h1l1-1v-1Z" fill="#dae0e0"/><path d="M777 719h3v2l-2 1-2 3-3 3v1h3v3l-3 1-2-2h-2v2l-1 1-3-1v2l-1 1h-1l-3 2-3 1-3 2-5 2-3 2-4 1-5 2h-2l-5 2h-2l-5 1-1 2h-2l-1-1h-3l-5 1h4v3l3 2v1h-4l-1-1h-6v-1h-3l-1 1h-1v2l-2 3h-1v-5l-2 1v1l1 1-1 3h-3l-1 2-3-1-2-1-1-2-2 1h-3l-3 1-2-1v-1h-1v2h2l1 1v1h-4l-1 1h-1v-5h-1l-1 1-4-1v-1h-1l-1 4h-2v-3l1-2h-2v-1h2v-2h3v2h2v2l1-1v-1h3l-1-4h-2v2l-1 1h-1v-3l-3 1v-2l-1 1v1h-2v2l-3 1h-1l1 1v2l-1 1h-2l-3 1v-3h-4v-1h2l-1-1h-3l-1-1v-2l-3 1h-1l-3 3v3l1 1v1l-1 1h-1l-2-3 1-3-3 1h-3v2h-1v-3l-6 2-1 2h-1l-1-1v-2h-4v-2l-2 1 2 2v2l-1 1h-2l-3-2h-2v3l-1 2h-1l-1-1-4 3h-1v-4l1-1v-1l-1-1v-1l1-1v-1l-1-1-2 2h-2v-2l-2 2h-4v-1h-2l-1 2h5v1l-1 1h-3v2h-2v-1l-3-2v-1h-2l-3 2h-1l-1-1v-1l2-2 1-2h2v-2h-3v2l-2 1h-2v2l1 1v1l-2 2h-1l-1-4v-2h-2v-2l-1-1-1 1 1 1 1 5h-2l-1-3-2 1h-2l-1-1h-2l-1 1h-2l-2-3h-2l1 1v3l-2 2h-3l-1 2h-1l-1-3v-3h-2l-1 1h-1l-2-2v-1l1-1 3 1v-2h-3l-1 1h-1l-1-1h-1v-2l-2 1 3 2v1h-2v3l-2 2h-1l-1-1v-4l1-2-3 1v-2h-4l-1 1h-1v-2h-5v2h-3v-2l-3 1h-10v2h4v-2h1l1 1 5 2v2l2-1-1-1v-1h4l3 1v2l-1 1v2l-2 2h-1l-3-3-1 1h-1l-2-4h-4v1l-3 1-1-1h-5v-2h-3v2h1l1 1h2v3h-2l1 1v1l-3 1-1-1v-2h-8v2h-2v-3l1-1h2l-2-1v-2h-4l-1 2h-7l3 1 1 1v3l-3 1-2-1v-1l1-1h-3v2l-3-1v-2h1l1-1h-2l-2-1v-2h-5l-1 1 2 2v3l-1 1h-4v-3h-4l-1 1h-2l-3-1-2 1-4 1h-2v-1l-1-1h-5l-1-1v-2l-3-1-1-1v-2h2l3-1h-6l-6-1v3h2l2 3v1h-2v2h-1l-1-1h-1l-1 1h-1l-3-3v-3l-3 2h-4l-1 1h-2v2l-1 1h-3v-2l-1-1h-1l-1 2h-2l-1-1v-1l1-1h-3v-3l-1-1v3h-3l-3-1-1 1h-1l-1-1-3-1-1-1-1 2h-3l-1 1h-4v-1h-5v-2h2l1-1-6 1-3 3v1l-3 1-4-1h-3v-2l-1 1v1l-1 1h-2l-1-1v-4h-1v2h-2v2l-4-1v-1h3v-3l-1 1v1h-4v2h-2v1l1 1 1-1h1l1 1v1l-1 1v2l-1 2h-1l-1-3-2 2h-1v-4l-3 5h-2l-2-1v-2h-3v-3l3 1v-2l1-1v-1h-1v-2h-2l-1-1-3-1h-2v2h-2l-1-1v-2h-6l-3-1h-4l-1-1h-2l-3-1-3-1v2h-1l-1-1h-1l-1-1v-1h-3v-2h-2l-2-1v2h-3l-1-1v-1l1-1h-2v2h-2l-2-4h-2l-1-2-3-1-1-1v-2h-2l-1-1h-2v-2h-2l-1-2-3-1-3 1-1-2v-2l1-1-3-4v-1h8l1 1 5 1 1 1 7 1 4 3 4 1 2 1h3l4 2 3 1v1l-1 1h2l1-1 4 1v1h-3l1 1h6l1 1h7l2 1v2l1-1h6l2 1v1l1 1v-2h3l4 1h3l1 1h3v-1h10v2h5v-2h4l5 1v-2h1l1 1 3 1v1h6v-2l3-1 5 1 1 2h3v-2h3l1 1h1l1-1h1l1 1 1-1h1l1 1v1h1v-1l1-1h7l1-1 3 1 1 2h4l1-1h1l1 1h3v-2h7l3-1 3 2v2l7-1h2v-2h15l1 1v1l1 1v-3h1l1 1 1-1h6l3 1v1h4v-2h12v2h2v-2h10v2h1v-2h6l1 1v1l3-1v-1h6l1 2v-3l10 2 1 1h3v-2h9l4-1v4l2-1v-1l2-1h2v1l-1 1h2v-2l1-1 3 1v2l2 1v-3l1-1h1l1 1h1l1 2 1-2h1l2 2h3v-1l2-1h5v1l-1 1h5v-2h12v2h2v-2h4l6-1 1 1v1h-2v2l2-1 1-2h4l3 2v-2h2l4-1 2 1v2h1v-2h1l1 1h8v2h2v-3h3v1h-2l1 1 4 1v-2h4l3 1v-2h2l1 1 1-1h3l1 1 1-1h9l2 2 2-2h2v2h1v-1l2-1h4v2l1 1v-2h1l1 1v-2l3-1 1 1h10l3 1 2-1h7l1-1h3l1 2 3-2 2-1h4l3-1 1 1 1-1h4l2-2h2l1-1h3l1-1h1v2h3v-3h3l2 1v-2l2-3 4-1h2l1-2h1l1 1 1-1 3-1 1-1 7-1 1-1 6-1v2l1-1v-1l3-1h1Zm-330 23l-2 1v1h3v-2Zm157 20v1h1v-1Zm-1 1v1h1v-1Z" fill="#10a0e0"/><path d="M312 617h1v2l-10 10h-1v-2Zm-11 12h1v1h-1Zm-2 1h2v1l-4 4-1 4-1 1h5l3-2 1-1h2l2 4 1-3v-2l1-1h1l1 4 1-2h2v-3h2v4l-2 3 3-1 1-1h6v2l3-2h2v-2h-2v-1l1-1h3v4l3-2h2l3 1v-2h2l1 4 1-1v-3h2l2-2h1l1 4 1-1h1l1 1h2l1-1h1v2h2l1 1h3v-4l3-1 1 5h5l5-5h1v2h2v2h-2v2l3-1 2-2h4l1 1v2h2v-5h1l1 3 3-1h2v3h2v-2l5-1 1-1h2v5l1-1 3-1 1-1h10v2l-1 1h1l3-4 1-1h7l-1 3-1 3h2v-4h3v-2l2-2h2l1 1-1 3-1 2h2v-3l3-1 1-1h1l3 4v1h-4l1 1h4v-3h3l-1-3 1-1h1v5h2v-3l2-1h3l1 1v1h3l4-1h3l1 1v5h2v-3l2-2 5-2v-1h2l1 2h1l1-1h2v-2h1v3l-1 2-2 1h-2l-2-1v2h3l3 1v-2l2-2 2-1h3v-2l1-2h1v7h2v-3l2-2 3-1v3h-3v2h4v2l4-1 2-3-3 2h-2v-2l1-1v-2l4 1 1 1 1 5 2-7h1l1 3 1 1-1 3 3-1 3-3h2l1 1v-2h2l4 4v3h2l-1-3v-2l3-1v2l4-1 1-1h9v-3h2v4h2v-2l1-1h1v3l2-1h2v2h3v-2l4-1h6l5-2h1v3h-4v4h2v-2l1-1h2l3 1 1 1 1-1h5v-2l3-1h5l1 3 1 1h5l2-2 1-2h4l1 1v2h-3l1 2h2l2-2h2v-2h10v6h2l-1-2v-3h4l1 2v3l4-2v-1l-1 1h-2v-2l2-2 2-1h2l1 4v2h1l1-1v-3l1-3h2l2 1 6 1v-2h5l2 3v3h2l1-3 1-1 4-1 4-3 3 1v7l1 1 1-3 4-1 1-1 3 1 1 2 3 1-1-2v-3l1-1 3 1v1h-2v2l3-2 1-2h2v4l-1 1h3l2 1v-2h2v-2l4-1 1 1 3 1v3l-2 1h2l1-4h3l1 2 4 1 3-1 1-3 3-1 1-1h1l17 17v3l-3 2-2 1h-3l-2-2-1 1 1 1v2h-3l-5 2-1 1h-1v-2l2-2 3-2 2-3-3 1-1 1h-7v2h-2l-3-1h-2l-2 1-1 2h-1v-2h-2l-1-4h-1l-3 2h-3v-2h-2v2h-2v-2l-3 1h-3l-2 3h-2l-1-1v-2l-3 2-1 1h-4v2h-2v-2l-2-2-7 1-1 1-3-1v-3h-2l-1 1h-1l-2 3-4 1h-2v-2l-1-1h-5l-3-1-1 1h-10v2l-3 2h-1v-4h2v-3l-3 2h-3l-1-1v-1l-1-1v2l-1 1v3l-3 4h-3v-2h2v-7h-3v4l-3-1v3h-3v-2l-2-2h-1v1l2 2v2l-3-1h-7l1 1v1h-8l-2-3-2 1h-2v-3h-2v4h-2v-6h-2v2l-6 1-3 2v2l-1 1h-1l-1-4v-2l2-1 2-3-3 1-1 1-1 3h-2l-1-1h-5l-1-1-1 3-3 1v-3l-5-3h-2l-3-1v2h6l2 2v5h-2l-1-3-1-1h-3l-2 1h-3v-1l1-1v-1l-2 2h-3l-4-2v2l-2 5h-1l-1-4v-3h-8v1h7v2l-7 1h-2l-1-3v-3l-3-2 2 3v4l1 1v2l-3-1-3-2v-1l1-1-2-1v3h-4l-1 4h-1v-4h-2v5h-2l-2-3v-1l1-1v-5l-5 3h-2v-3l1-1v-2l-1 1-1 4-1 1-1 3h-3l1-5-2 1-1 2h-3v-3l-2 1h-5l-2 3-3 2-4 1-1-1v-1l1-1h4v-2h-6l-1-1h-2l-3 1-2 2-1 3h-1l-2-2v-3h-2l-2 4h-2l-1-4-2 3-1 1h-1v-2l1-2h-4v7h-1l-1-4-4-1h-2l-2 2h-1v-2l-5 1-1 1h-2l-1-2h-5l1 5h-2v-5l-3 1-1 1h-2v-2h-4v-2l2-1 1-2h-1l-2 2h-5l-3-2h-3v3l-2 2h-2l-2-3v-1l2-1h-3v5l-1 2h-2l-2-2v-2l-4 2h-1v-2l-3 2-5 1-1 1h-3v-1l1-1v-1l-3-2v2l-1 1h-9l-2-2-2 3-1 1h-2v-4h2l-1-2v-2l-2 1-1 5h-2l-1-2-1 3h-1l-1-2h-1l-3 2h-1l-1-3-1-1h-1l-2 2-1 3h-2l-1-1 1-5h-2v4l-3 1-3-1v2h-2l1-4h-3v2h-1l-1-1h-5l-1-2-1 1h-2v-4h-2l1 4 1 1v1l-1 1h-2l-1 1h-3l-1-2v-2l2-4h-3v2l-1 1h-2l-1 3h-4v2h-2v-3l1-1v-3l16-16v-2Z" fill="#cfd5d7"/><path d="M255 674h1v2l-2 2v1h2l3-3h2l2 1 1 2 3-1 1-1h1l2 2h5l1-2h3l1 1v1h-2v2l3-2h1l1 2 1-1h2v-2l2-2h1v3h3v-2h3v2l4-2h1l1 1v4h2v-3l2-2h1l1 1-1 3 2 1v-4l1-1h10v2l-4 1h-2l2 1v2l1 1v-3l5-1 3-1h3l2-1 1-2h1l1 3 2 3v-6l3 1v2l-1 2h3v-3h1l2 2h5l3-2h2v4h1l3-2h3l3-3h3l1 1v1h5l3-2h1l1 1v2l1-3h1l2 3 1-1h11l2 1v-2l1-2h1v4h2v-2h1l1 1 9-1 5 1h2l3-1 3 2 1 1v-4l2-1h5v3l3-2h3v5h2v-4h2l1 2v-2l2-2h3v1l-1 1v1l1 1h4l2-2h1l1 1 5-1 2 1h3v-1l3-1v2h4v-2h6l1 1v1h-2l1 3 1-2h2v-3h2v2l2 2h1l1-2 5-1 3-1h6l2 3 1-3h2v2l3-1 1-1h1l1 3 4-1 3-2h2v2l2-1h2l1 4 1-5h2v2l-1 2 3-2h2l2 1h3l-2-1v-1l1-1h4l1 1v2h4v-2l1-1h6l2-1h2l2 2 2 1v3h1v-3l3-1h4l5-1h2l1 2 2-3h1v4h2v-3h2v2h6v-1l2-2h1l2 2 1 3 1 1 3-2v-2l2-1h3v3l4-1h7l2-3h3v1l-1 1v3h4v-3h1l1 1h2l1-2h2l2 1v-2h2v2l3-2h1v3h3v-2l3-1h2l1 1v3l3 1v-4h2v2h2l2-3h4l1 1v3h2v-4h2v4l-1 1v1h1l1-1 1-4h2v2h6l2-3h1v2l2-1 4-1 2-1h2v3l-2 1v1l1 1h1l2-2h2v-2l3-1v3l-1 2h7v-2h2l1 3v2l5-2h1v5h4l-1-3 2-2h1l1 4h3v-3h2l2 1v2l-1 3h3v-2l3-1v2l-2 3 5-3h5l2-3h2l3 1 1-2h1v3h3v-2h4v2h3v4h2v-3l3-1v-3l1-1h1l1 1v3h4v-3l3-1h2l2 2h3l2 2v2l-1 2-3 1v-2h-2l-2 2-1 2h-1v-3l-4 1-4-1v2l-2 1h-3l-1-1h-5l-2-1v2h-8v-2l-2-1v2h-3l-4 1h-8v-2h-2v2h-3l-1-1-3 1-1-1h-2l-3 1h-3l-1-2-2 1h-2l-1-1h-2l-1 2h-1l-1-1v-1l-3 1-1 1-9-1-2-1v2h-3v-3l-3 2h-4l-2 2-3 1h-6l-1-1h-1l-2 2h-2l-1-2-2-1h-4v-3l-3 2-1 1h-8v-2h-3v2h-2v-2l-3 2h-2l-5-1h-2l-2 3h-3v2h-3v-1l1-1h-2l-1 1h-1l-1-1v-2l-7-1h-2l-3 1-1-1h-1l-1 1h-1l-2-2-1 2h-1l-1-1h-1l-1 1h-3l-6-1-3-1v2l-4-1h-2l-1-1-1 1h-6l-1 1h-6v-3l-3 2h-5l-1-1h-1l-1 2h-5l-3-1-3 1h-9v-2h-1l-1 1h-2l-1-1-2 2h-2v-2l-3 2h-1l-2-2-3-1v3h-2l-1-1v-2l-5 2-1 1h-1l-1-1h-1l-1 1h-5l-1-1h-4l-1-1h-3l-2-1v2l-1 1-3-1-1-1h-1l-1 1h-5l-1 1-12 1v-3l-3 1h-5l-2 2-4 1-3 1-1-2h-1l-1 3h-2v-2l-1-1h-3l1 3h-2v-2h-4v2h-2l-1-2h-7v2h-1l-2-2-1-2-1 1h-7l-1 2h-1l-1-1h-7l-3 1-1 2h-48v-2h2v-3h-2v2l-6 1h-3l-2-1v2h-2l-1-4h-7l-1-1h-6l-1 1h-7l-1-1-2 1h-12l-2-1v-2h-2v2l-4 1h-3v-2l-3 2h-4l-2-2h-2l-4 1-1-1h-6v-3l-4 2h-1v-5l2-1 2-3h2v-2Zm397 17v1h1v-1Zm-1 1v1h1v-1Z" fill="#b7bfc7"/><path d="M220 381h1l1 283 2 8 3 7v1h-2l1 4 3 6 3 4 2 3 2 2v2h3l2 2v2h2l3 2 4 1h1l1 1 6 2 5 1 11 1 16 2h5l5 1 16 1h392l16-1 4-1h7l15-2 11-1 4-1 4-1 3-1 1-1h2l3-1 3-2h2v-2l3-2h2v-2l3-3 2-3v-4h2v-7l3-5 2-5 2-8 1-283h1l1 24 2 5 2 3 1 3v3l2 2-1 3h-1l-1 3h2l2 1-1 4h-2v3l1 1 3 1 1 1v2h-1l-1-1h-2l-2-1v7h3v1l-2 1v13h2l-1-3h2l1 1v4l-1 1v1h-4l1 1h1l1 4 2 2v1l-3 1h-1l1 1v3h-2l1 2v8l2 3 2 1v1l-2 1v1l-2 1v1l1 1v1h-2l1 4h2l3 2v1h-2v3h3v1l-3 1 2 1 1 2v5h-1l-1-2-3 1-1 1h2l1-1h1l2 4-1 3 1 1v38l-1 1 1 1v3h-1l-1 1h2v2h-2l1 1h1v41h-2v4l-1 2-1 17-1 1 1 4v2l-1 2v5l-1 6-1 10-1 7-1 4-2 4v2l-1 3-3 4-1 1-1 3-1 1h-2v2l-1 2h-2v2l-1 1h-2v2l-4 2-3 2h-3v2l-3 2h-2l-2 1-7 2-8 1-1 1h-6l-2 1h-4l-4 1h-4l-4 1h-17l-10 1h-5l-3-1v2h-1v-2l-4 1v1h-3l-1-1h-5l-1 1-4-1h-2v1h-4l-1-1-6-1v2h-1v-2l-5 2h-1v-2l-6 1h-10l-1 1-3-1-3-1v2l-4-1h-12l-2-1v2h-1l-1-1h-10l-1 1-4-1-1 1h-5l-1-1h-5l-1 1h-5v-2l-4 1h-2v1h-2l-4-2v2h-6l-1-1h-6l-1 1h-5l-1-1h-18l-2 1h-3l-2-1h-40l-5-1v2h-1v-2h-3v2h-5v-2l-4 2h-1l-1-1h-10l-1 1h-6l-1-1h-6l-1 1h-1v-2l-4 1-1 1h-2l-1-1-1 1h-2v-1h-21l-3 1-1-1h-4l-1 1h-1l-1-1h-1l-1 1h-1l-1-1h-8l-1 1h-2v-2l-7 1h-16l-1 1h-1l-1-1-1 1h-1v-2l-6 1h-5l-2-1v2h-1l-1-1-1 1h-1v-2l-3 1h-6l-1 1h-1l-1-1h-9l-8-1h-15l-1-1-1 1-5-1h-5l-6-1-3-1h-5l-1-1-8-1-8-2-1-1h-2l-3-2v-2h-3l-5-3-2-1-2-3-3-2-3-5-2-2v-3h-2l-1-2v-3h-2v-3l-1-2-1-4-1-2-2-18-1-5v-6l-1-6v-12l-1-5v-1l-1-1-1-6-1-1v-46l2-3v-3h-1l-1-1v-15l1-2-1-1v-8h2l1 1 1-2h-4v-4h3l1 1v-1l-4-1v-1l1-1-1-1v-8l1-1h2l1 2h2v-1l-5-2-1-1v-6l1-1h3l1 1v1l-2 1v1l2 2h1v-7l-1-1v-2l1-1v-1h-1l-2 3h-1v-2l-1-1v-3l2-2-1-1 1-4h3v1h-2l1 1h2l-1-10v-5l-1-1h-1l-2 4h-1v-3l2-4h2v-2h1v-12l-3-2h-1v-3h3l2 1-1-4h-1l-1-1v-1h2v-2h-2l-1-1v-1h2l2 1-1-2v-6l-1 1h-1v-4l1-1h2l-1-3v-11l1-7 2-4 1-1-1-1v-1l2-1v-5h-1v-2h2l-1-3Z" fill="#108cd1"/><path d="M631 538h2l73 73v2h2l1 1v2l-2 3-2 3h-2l-1-1v-1l2-2h2v-2l-3 1-1 1v1h-3l-1-1-1 2-1 5h-1l-1-4-1-1-1-5-1 3h-1l-3-2v2l-1 1h-2l-1 1h-2v2h-2v2l-1 1h-1v-2l2-3 3-3 1-2-2 1-4 1-2 1-1 2-3 1h-2l-1-1v-2l-3 1-2-2-2 2h-4l-1-1h-2l-3 1-1-1-3 1-1 2h-2l-1-3-5 1-1 1h-4v-2l2-2h-1l-1 1h-2l-2 3h-1v-5h-2l1 6-1 1h-3v-2l1-3-2 1h-3v4h-1l-1-1h-2l-3-1v2h-2l-2-1v-1l1-1v-2h-1l-1 1v4h-4l-1-1-3-1v-2h-2v-3l-3 2h-4l-1-1v-2l-1-1v4h-2v1h1v2l-1 1h-3l-2-1v-2h-6l-4-1v2l-2 3h-1l-1-1v-5h-2v4l-2 2-4 1-1-1v-1l4-2v-1h-5l-3 3-4 1-1 4h-1v-7l3-2 2-3h2l1 1 1-1h2v-2h2v-3l1-1 1-3 5 1v-2l2-3h2v-3h2l2 1v-4l2-2 2-1h3v-2l1-3 3 1v-3l3-5 3-1 1-1h2v-3h2v-2l1-2 3-1 2-3 4-4h2v-3l3-2 2-4 4-2v-1l2-3 2-1h2v-4l4-3Z" fill="#e4e7e9"/><path d="M393 538h1l1 1v4l2 1v-2h1l2 4 3 2v4h4l1 1 1 3 2 2 2 1 1 2 2 1v3h2v2h3l1 3 3 1 2 2 1 2v2h2l2 1v3h3l1 3 2 2v2l1-1h1l1 3h3l1 3v1h2l1 2 3 1 3 2 1 4v3h2v-2h3v2l-2 3h2v2l1-2h1v2h2v1l-2 3 2 1v-2h7l1 1v1l-2 1h-2l-2-1 1 3h-5l-2 2h-2l-1-3-2-1h-2l-2 3-3 1-1 1h-2l-2-3h-1l-1 4h-3v-1l1-1-1-3-3 3-4-1v-3l-3 3h-4v-3h-2v2l-1 1v1h-2l-2-3-1 4h-1l-1-1-1-4-2-1v2l-2 3v1h-3v-3l1-1h-6v2h-2l-1-2h-3v2h-4l1-4-3 1-1-1-1 1 1 1v3h-2v2h-2l-1-2-1 1h-1v-2h-5v-1l1-1 3-1v-2l-6 3-2 2-2 1v2l-1 1h-6v-2h5v-2h-5l-2-2h-2v2h-3v-2l1-1-3 1-1 2h-1l-1-1h-1l-1 2h-1l-1-2h-1l-2 2h-2l-1-3v-3l-2 1-1 3h-2v2h-1l-1-1v-4h-2v4l-5 1-1 1h-1v-3l1-2-3 2-1 2h-1l-1-1v-4l1-3h-2v-1l2-2 1-3 55-55h2v-2l3-2 2-3 2-2 5-3Zm-11 78v1h1v-1Z" fill="#e7e8eb"/><path d="M226 356h1l2 4 3 4 2 1 1 3 3 4 3 2v3h2l-1 3h3l1 3 1 1v2h4v3h-1l-1 1h3l2 2 1 3 1 1h3l1 4 3 2v2l3 1v4l3 3v2h2l1 2h2l1 3 1 1h1v3h2v2h2v1l2 2v2h3l1 1v2l1 1v2h4v3h3v2l-1 1v1h3l3 4 1 1h1l1 3 1 1v2l3-1v5h4l1 4 2 2 2 1v1l-3 3h3l1 2 3 1v1l-3 2v1l1 1h3v8l-1 1-3-1v-1h2l-1-3-1-1-3 2-4 1-2-2-2 4h-2v-3l1-4h-3v4l-1 1-4 1-1 1h-2v-2l2-2v-1h-2v1h-2v-2h-6l-5-2v4h-3v4h-3v-3l-2-1v-2l2-1h-2l-2 3-3 1-1-3-3 4h-1l-3-2v2h-5v-3h4l1-3-3-2 1 2v2h-2l-1-1-1 3h-2v2h-4v4h-2v-4l-2-1v-4l2-1 1-2-3 1-1 4-1 1-3-1-2-1v2l-2 2h-1l-1-1v-1l1-1v-1l-3 2-1 1h-1l-1-6 2-2-2-2v-6l-1-5v-2l1-6v-7l-1-3v-8l1-5v-2l-1-1v-3l1-1v-7l1-4h-2v-7l1-1 1-8h-3v-2l1-1v-9l1-2v-2l-1-4v-13l-1-1ZM796 358h1v8h-2l1 5v7l1 9v4l-1 1v2l1 1v2l-1 3 1 1v9l-1 10 1 1v2l-1 1v13l1 2v2l-1 4h1v5l-1 2v8l1 1v3l-1 7 1 1v1l-1 1 1 1v2l-2 2v7h-1l-1-6-3-2v2h-2l-1-2h-1v4l-2 1h-6l-3 1v-2l1-1v-7l-1 1v6l-1 1h-4v2l-1 1h-4l-1-1v-1l4-1-2-2v-1l2-1h3v-1l-5 1-1 3h-4l-2 3h-2v-2l-1-1v-1l1-1h2l1-1v-2l-1 1h-3v2l-1 1h-2l1 3v3h-2v-3h-2l-1-1v-3h-1l-1 2h-3l-1 1h-2l-2 4h-2l1-4 3-3 1-2-3 1-2 2-2 1-4 1-1 1h-1l-1-1v-1l-2-1v-3h-7v3l2 1v-2h3v2h3v1l-8 2h-2l-1-3-1-1v-3h-2v3l2 1v4h-1v-2h-2l-2-2-3 2h-5v-1l3-3h2v-11l2-2v-2l3-5 3-1 1-4 3-1 1-1h3l-1-4 3-2 4-4 2-4h2v-2h2l1 1v-2l2-2h2v-4l2-3 2-1v-3l1-1h3v-3l3-1 1-2 2-1 2-4h3l-3-1 1-3h3l1-1h-2v-2l2-1h3l2-6 1-1h3v-3l1-2h2v-3l4-3v-2l1-1h3v-4l1-1h2v-2l3-4 2-1 2-5h2v-2Z" fill="#efeff0"/><path d="M272 658h1v1h-1Zm-2 1h2v1l-5 5h-1v-2Zm-5 6h1v1h-1Zm44-1h1v4l1 2v2l3-2h4v-3l-4 1v-4h6v4l1 2 4 1v-6h1v3h2l2 3v4h3v-5h3v-3h-3v-1l1-1h2l2 1v4l-1 2h4v-5l3-2h1v3h-2l1 2v3h2v-3h2v3l3-1 1-1 3 1v-2h2l3 2 1 1v-3h5l1-2h2v3l1-5h2l1 5-1 1v1l2 1v-4l1-1v-3h6v3l-3 2v4h2v-2l1-1 1-5h1l3 3v1l-1 1 2 1 2-3v-3l1-1h2v2l-1 4 3-2 2-2h2l-1 3 3-2h1l2-3h1l2 2v4h2l1-2h4v2l2-1 1-2 3-1 1-3h1l1 2v3h2v1l-1 1h-5v1h7l1-2h1l1 1v2l1-3 1-1 5-1h2l1 1v3l1-1 5-1 3-1 5-1 2-2h2v1l-1 1-1 3h3v-2l1-4h4v1h-2v3h2v-2h1l1 1v2l2 1 1-2 4-1h2l2 1v-3l3-3h1v4l-1 1v2l3 2v-5l1-1h1v5l3-2h1v3h5l2 1v-4l3-2 5-1h2l3 2h2l1-1h1l3 2v1l-2 2v1h1l3-3h1l1 2h1l1-1 5-1 1-1v-1l2-2h2v3l-1 2 3-2h4v2l2-1 2-3h1l1 1h3l1-1h3v2l-2 2-1 3 3-2h2v-2l1-2h1l1 2v4l1-1v-5l1-1h1l1 3 1-3h6v-2h1l2 2v1h-2v2l-1 1v3h2v-2l2-3 4-1v3h2l-1-2v-2h3l-1 4h2v-2l5-1h2l2 2h4l1-3h2v-3h1v4l-1 1h4v2l1 1v-5l2-2h2v1l-1 1-1 5h2v-2l1-1 1-5h2v3h3l1 1h1l1-2 3 1v-3l3-1h4v2l-4 1-1 2h-2l1 2 2 1v1l-2 1 3-1h2v-2l4-3 1-2h2l1 1v2h5l1-1h1v4h-6l-1 2h3l2 1v-2h4l1 1v-5h1v2l8-1 3-2h2v2l-1 1h2l4-1 1-4h2v2h3l1-1h1l1 1 3-1 1-1h1v4h2v-2h2v3h-2v2l2-1h2v-3h2l1 4 2 1h2l1-1-3-1v-2l3-1h3l3 3 1-2h2v-4h2v3l-1 3h2v-2l3 1v5h2v-2l1-2 3-1v-2l-4-1-2-1v-1l7-1 1 3v2l3-1 1 1-1 4 2-1h2l-1-2v-3l2-2h1v2l2-1h2v4l1 1 1-4h2l1 5 2-3h3v3l2-2 1-4 2-1h2v1l-1 1v2l2 2v2l-1 2h2v-4l-1-1v-2l4 1h5v-2h2l1 3 1 1-1 3 2-1v-4h2l1 1 2-2 3-1 3 3v2h2l3 3v2h2l1 2 3 2 1 2v2h-2l-2-2h-5v3h-4l-1-3h-1v3l-1 1h-3v3h-2v-4h-3v-2h-4v2h-3l-1-1-1 1-3-1-2-1v2l-2 2h-5l-3 2h-2v-2l1-1v-1h-2v2h-3v-3l1-2h-2l-2-1v2h2v1l-2 1h-3l-1-1-1-3-1 1v3h-4l-1-4-2 1h-3l-1-2v-3h-2v2h-7v-4h-2v2l-3 2-1 1h-1l-2-2v-1l1-1h2v-3l-4 2-4 1h-2l-1-1-2 3h-7l1-3h-2v4l-2 2h-1l-1-1v-1l1-1 1-4h-2v4h-2l-1-3-4-1v2l-2 2h-3l1-3h-2v4h-4v-4h-5v2h-3l-1-2-1 1h-2v-2h-2v2h-2l-2-1v2l-1 1h-2l-1-1-1 2-5 1v-4l1-1-2-1v2l-2 2h-11v-3l-3 1-1 1v1l-2 2-3 1-2-5-1-1h-1l-1 1 1 1v1h-4l-4-1v-2h-2v3h-2l-1-3-1 3h-1l-1-1v-2l-2 1-5 1h-7l1 3-1 1h-1l-1-1 1-3h-2l-2-2h-2l-2 1h-6l-1 2h-4l-1-2h-4l3 1v1l-2 1h-3l-2-1h-2l-1 1h-2v-2l1-2h-2v5l-1 1h-1v-5l-2 1h-2v-2l-5 3-4 1-2-3-1 1h-3v-2h-2v3l-1 1h-1l-1-3h-6l-3 1h-5v2l-1 1h-1l-3-2 1-3h-2v3h-2v2l-1 2h-1v-5l1-1-6-1v2h-4l-1-1-1 1v1h-4l-3-1-4 1-1-1h-1l-2 2h-5l-1-3 1-1h-2l-1 1v2l-1 1h-1v-3h-2v4h-2v-5l-3 1-1 1h-2v-3l-5 1-1 1v3l-1 1h-1l-1-2-3-1-2 1h-2l-6-1-8 1-1-1-1 1h-2l-1-2-1 2h-13l-1 1h-1l-1-2-1 2h-1l-1-1v-2h-1l-3 2h-6v-2h-3l-3 3h-3l-3 2h-1l-1-1 1-4-4 2-1 1h-6l-1-2-1 2h-3v-2l1-2h-2v6h-1l-3-4-1-1-3 2h-3l-3 1h-5v3h-2l1-3h-2l-1-1v-1h7v-2l-10 1-1 4h-3l1-4h-1l-1 1-1 3h-2l-1-4-3 1h-2v-2h-3v2h-3l-1-2-2 3-2 1-1 2h-1l-1-3-1 1h-2v-2l1-1-3-1v2l-1 1h-6l-1-2h-1l-3 2h-1l-1-1v-2h-4l-3 3h-2l-1-1v-1l2-2 2-4 3-3h2v-2l1-1h2v2l1 1v2h1l1-1h2v3l4-2 1-1v-1l1-1h1l1 3 1-1 5-2 1-1h1l2 2 1-1h2v3l2-2 3 1 2 1v-2l3-1h3v1l-3 3h2l3-5Z" fill="#bfc7c8"/><path d="M749 403h1v3l-3 3v2l-4 4-2 3-5 5-2 3-2 1-2 3h-2l-1 3-1 1h-2v2l-2 1-1 2-2 1 1 1v1l-3 2-1 2h-2l-1 1-2 5-2 2h-2l-3 6-3 1-2 3-2 1v4l-5 5h-2v3l-2 2h-2v2l-2 2-3 1v3l-3 4-3 3-1 2-3 2-3 2v2l-1 3h-3v4h-2v2l-1 1h-1l-2 2v6l-2 2v1l4 1v3h1l2 5 3 1 2 2-1 3h3l3 1 2 4h2l2-3h2l1 2v2h2l1 1 3 1v-2h2v2l-1 1v1l4 4 1-1 4-1 1-1h1v3l-1 1h1l1-2v-3l-1-1v-2h3l1 1v5h2v-2h2l1 3 2-2h1l1 3 2 1v-3h-2v-1l3-2h1v2h2v3l-1 1h3l1-1h3l1-3 2-1h3v2l-1 1v3l1-1h2l1-1v-4h2l1 3 1-3 1-1h1l1 1v3h1l1-1 1-4h2v4h5l6-1h5l3 1 1 3h1l-1-1v-1l2-2-3-2v-4h2v2h2l1 1v2h2l3-3h1v2l3-1 2-3h1v4h4v1l-2 1v1l3 1v3l1 1 2-3h-2v-1l2-2 3 1v6h1v-7h2v-2h-3v-2l1-1v-4h3v-6l1-12v-7l2-10 1-5-2-1v-1l1-1v-3l1-1v-7l1-1h1v57l-1 2h-2v4h2v2l-1 1-1 7-2 7-1 2h2v2l-1 4-1 3-1 1 3 1-1 3-2 1v3l-3 1-1 1h-2l-1-1h-1l-1 1h-1l-1-2-1 3h2l1 1v1l-4 1h-2v-6l1-2h-2l-1 1-1 4-1 1h-4l-1-1v-1l1-1h2l1-3h-5v-1l1-1h2v-2h-5l1 5 1 1v2l-3 8h-1v-10l-3 2-1 2h-2v-6l-3 2-1 2h2v2l-1 1 1 1v1h-2l-2-1v4l-3-1v-1l2-3-7 2h-1v-3l3-1h1l-1-3-1-6-1 2h-1l-2-2h-2v2h2v2h-2v2h-1l-3-2v2h-2v2l3-1v2l-2 3h-3l-1 2h-1l-1-1v-2h-2l-2-2-1-5-1 1 1 5v2l-5-1v-1h2v-2h-2l-1-1v-1l2-1 1-5-3 2-1 3-1 1h-2l-1-1v-2l2-3h-2v2l-3 1-3-2v-1h3v-2l-2 1h-2l-2-2-2-1-1-3h-2l-4-1-1-1 1-3h-2v-1l-3-2-3-1-1-1-1-4-5-2-1-1-1-3h-3l-2-3v-3l-3 1-2-4h-1l-7-7-1-2-3-1-1-1v-4h-3l-2-4-2-3v-4l2-3h2v-2h-2v-1l4-2 3-3 1-3h2v-2l2-2h2v-2h2v-5l3-2 1-3 3-2h2v-3l3-2v-1l3-1 1-4 4-3 2-3 3-4 3-2 1-3 2-1 2-3h2v-2l2-2 2-1 2-3 3-3 2-3h2v-3l3-2v-1l5-5h2v-2l1-2 2-1 2-3 2-2 2-3 2-1 2-3 2-1 2-4 3-2Z" fill="#dae0e0"/><path d="M296 427h3l3 2 1 3 1 1 4 1 2 3 3 4 3 3 2 1 1 3 4 3v2h3l1 4 3 1 1 2v2h2l1 2 2 1 2 3 3 3v2h2l2 3 3 2v2h2v3h2l2 2 2 3 1 1v3h3l3 6 3 3v2h3l2 2 1 4 2 2 1 4 1 1v2l1 1v4l-2 3-2 3-3 5-3 2-2 3-3 2-2 2-2 3-1 1h-2v2l-2 3-1 1h-2v2l-1 2h-2v2l-3 1-7 7h-2v2l-3 4-2 2-1 2-5 3-2 3h-2l-1 1h-2v3l-2 3h-2v2l-4 3v1l-2 2h-3v3l-4 3h-2v3l-1 1h-2l-2 3-2 1v2l-2 2h-4v2l-3 2-2 5h-2l-5 5h-2v-2h2l-1-2-3 2h-2l-2 2v3l1-2h4l2 1v1l-3 1-1 1h-2v2h-2l-1-1v6h-2v-3l-1-1h-1l-1 2-3-1v-5l-1 3v4h-6l-8 1-1 2h-2l1 3-1 1h-2l-2-1-1-4h-5v-2h4l-1-2-4 1v-4l1-1v-2h-2v-6l-1-8-1-1v-1h2l-1-2-2-1v-3l1-1h3v-3l1-3h-2l-1-1 1-5 1-2-3-1 1-5 1-8h-3v-2l1-4-2-2v-34l1-3h1v5l-1 3h2v9l1 5v6l1 5 1 1 1 3v13h3l1-1h1l1 1 3-1 1 3 2 2h3l2-2v-1l-1-1v-1l1-1h2l2 3h1v-2l2-2h5l1 1 4 1v1l-1 1h-3l2 1v3h2v-3h2v-4l1-1h3v1l-1 1-1 3h2v2h2l1-1h-2v-2l1-1h1l2 2h1l1-2h3v2l2-1 1-2h4l-1 3 2 1v-4l3-2h3v2l-1 1v4l-1 1h1l3-4 1-1h1l1 2v2l-1 2h2v-4l1-1v-1l1-1 3-1 1-1h2v-5h1l1 3 1 1 1-1h1l1 1 2-3 2-3h2l4-3h2v-3l4-4h3v-3l1-1h2l2 1v-3l1-3 2-1h2v-2h2l1-3h3v-3l1-1h2v-2l5-2 4-4 3-5 2-1h2v-3l3-2 2-3 1-6 1-1v-2l-5-5v-2l-2-4h-3v-4h-2l-2-1v-4h-3l-1-3-2-1-2-3-3-4-2-3-4-2-1-1v-1l1-1-3-1-1-2h-1l-1-1-1-3-3-3-1-2v-2h-3l-2-4-4-3-3-3v-2h-2l-2-3-2-3-3-2-2-2-1-3-3-1-2-3v-2h-2l-1-2v-2h-3Z" fill="#cfd4d7"/><path d="M252 699h520v1l-1 1h-2l-4 2h-8l-1 1-7 1-1 1h-11l-16 1h-24l-16 1h-66l-5-1-24 1-1-1-15 1h-24l-8-1-7 1h-98l-3-1-3 1h-81l-8-1h-32l-21-1-18-2-1-1h-5l-7-2-2-1Z" fill="#1080b8"/><path d="M725 611h1l23 23v2h2l3 3 1 2 3 2v2h2l1 1v2h2l2 2v2h2l3 3v2h2l1 2 3 2 8 8 2 1 1 2v2h2l1 1v2l4-2h4l-1-3 1-2h1l1 2v2l-2 5-2 3-2 4-2 1-1 2-5 3-3 2-4 2-5 2-7 1H380v-2l1-1 3-1h7l1 1 2-2h7l1-1h1l1 3 1 1 1-1 8-1v3h2v-2h4v2l1-1v-2l4-1 1 3 1 1v-3l1-1h1l2 2 2-1 4-1 2-2h5l2-1h2v3l11-1 1-1h5l1-1h1l3 2h1l1-2h5l1 1h5v2l2-1h3l1-1h1l1 1h1l1-1 3-1h2l1 2 2 1v-3h3l2 2h1l1-1h2v2l3-2 1-1h1v2l3-2h2l-1 3 5-1h4l4-1 2 1 5 1v-2l1-1h1l1 1h5l1-1h2v3l5-1h1l1-1h4l2 1v-2h1l1 1h3l2 1 1-1h3l6 1h3l1-1h1l1 1 2-2h1l1 2h1l1-1h1l1 1 3-1h2l7 1 1 1v2h1l1-1h3v1l-1 1 2 1v-2l3-1 2-3h2l5 1h2l1-1h2v2h2v-2h3v2l8-1 2-2h2v3l2-1h2l3 2v2l3-2 1-1h1l1 1h7l3-2 1-1h4l1-1h2v3h3v-2l11 1 3-2h2v2l2-2h2l1 1h2l3-1v3l6-2h2l1 1 4-1v2h3l-1-3h4l-1 3 2-1h7l4-1 2 1v-2h3l-1 3 3-1h2l3 1v-2h7l1 1h5v-2h8l1 1 3-3h3v2h2v-4l-3-3-1-2-3-2v-2h-2l-2-3-3-2-2-3-7-7-2-1-2-3-26-26v-2l5-1 1-2h-2l-3-1v-1l2-1-1-5v-4l-2 1 1 3v3l-1 3h-2l-1-1 1-9h-2l-4-1v-2l1-1h3v2h2Zm-73 80h1v1h-1Zm-1 1h1v1h-1Z" fill="#9da5ad"/><path d="M228 342h1l2 3 38 38 2 5v2h2l1 1v3h2l2 2v2h2l2 3 1 1 3 1v4h3v3h2l3 4v2h3l3 4v3h3l1 1v2h2l3 3 2 3 4 4h1l1 2 4 2 1 2v3h3l1 3 3 1v3h4l2 4 2 1 1 3v2h4l1 3 1 1v2h2l1 1v2h2v4h2l1 1 1 3 3 2 3 1 1 1 4 1v4h2l3 4 3 3v2l1 1 4 1 1 2v2h2l2 1 1 3h2l2 7v7h-2v2l-2 3h-2v3l-4 4-3 2-3 3h-2v2l-2 1-1 3-4 2-2 3-3 3h-2v2l-5 5h-2v2l-6 6h-2v2l-2 4h-3v2l-2 2-3 2-2 3-41 41-2 3h-2v2l-3 3h-2v2l-2 1-2 3-4 3-1 2-3 2-2 3-3 2-4 4-2 3-5 5h-2v2l-3 2-1 2-3 2-3 3-3 2h-1l-1-1v-2l-3 1h-2l-1-1 1-3h-2l-2-2v-4l-1-1-1 3h-1v-90h1l2 2-1 4-1 2h3v8l-1 4 3 1-1 3-1 5h2l1 1-1 3-1 3-3 1-1 3h2l1 1v2l-1 1 1 1 1 10v2l-1 2 3-1v3l-1 1v3l4-1v3h-4v2l6-1v5h4v-3h2v-2l1-1 8-1h4l2 1-1-2v-2l1-3 1-1h1v5l1 1 2-2h1l2 2v2l1 1-1-4v-3h1l3 2v-2l3-2 1-1-4-1v2l-1 1h-1v-4l3-3h2l3-2h1v3h-2v2l3-2 4-4h1l1-1 1-3 2-2h2v-2l4-1 1-1v-3l3-1 2-3h2l1-3 5-3 1-3 3-1 1-1v-2l4-2 1-2h2v-2l1-1 1-3 3-2h2l2-3 3-2h2v-2l3-3 3-5 3-2 6-6h3v-2h2v-2l1-2 3-2 2-4 3-2 2-3 3-3 2-1 2-3 2-1 3-5 2-3 2-3v-4l-1-1v-2l-1-1-1-4-2-2-1-4-1-1-3-1-2-3-2-2-2-4v-2h-3l-1-3-2-2-2-3-2-1v-3h-2l-1-2-3-2-1-2-2-1-2-3-3-3v-2h-2l-1-1v-2h-2l-1-2v-2h-3l-1-1v-4h-3l-1-2-3-2-1-1v-3h-2l-5-5-2-3-1-1v-2h-4l-2-2v-3h-2l-1-1-4-1-3-4-3-3-2-1-3-5-5-5-2-3-3-2-2-4-5-5v-2h-2l-3-4-3-3-1-2-2-1-2-3-1-1v-2h-2l-1-3-2-2-1-4-1-1v-2h-2l-3-3-1-2-2-1v-2h-2v-2l1-1-8-8-2-1Z" fill="#bcc2c6"/><path d="M257 326h510l6 1 6 2 6 3 1 1v1l-3 3h-5l-2-2-11-2H258l-9 2-3 2h-5l-3-3v-1l3-2 6-3Z" fill="#f7f7f7"/><path d="M393 538h1l1 1v4l2 1v-2h1l2 4 3 2v4h4l1 1 1 3 2 2 2 1 1 2 2 1v3h2v2h3l1 3 3 1 2 2 1 2v2h2l2 1v3h3l1 3 2 2v2l1-1h1l1 3h3l1 3v1h2l1 2 3 1 3 2 1 4v3h2v-2h3v2l-2 3h2v2l1-2h1v2h2v1l-2 3 2 1v-2h7l1 1v1l-2 1h-2l-2-1 1 3h-5l-2 2h-2l-1-3-2-1h-2l-2 3-3 1-1 1h-2l-2-3h-1l-1 4h-3v-1l1-1-1-3-3 3-4-1v-3l-3 3h-4v-3h-2v2l-1 1v1h-2l-2-3-1 4h-1l-1-1-1-4-2-1v2l-2 3v1h-3v-3l1-1h-6v2h-2l-1-2h-3v2h-4l1-4-3 1-1-1-1 1 1 1v3h-2v2h-2l-1-2-1 1h-1v-2h-5v-1l1-1 3-1v-2l-6 3-2 2-2 1v2l-1 1h-6v-2h5v-2h-5l-2-2h-2v2h-3v-2l1-1-3 1-1 2h-1l-1-1h-1l-1 2h-1l-1-2h-1l-2 2h-2l-1-3v-3l-2 1-1 3h-2v2h-1l-1-1v-4h-2v4l-5 1-1 1h-1v-3l1-2-3 2-1 2h-1l-1-1v-4l1-3h-2v-1l2-2 1-3 23-23h1v2l-16 16h2l3 2 2 3 1-2h2v-2h1l1 1h2l1-1h1l1 3 3 1 4-4h1l1 1 1-4h2v5l3-1 1-1h2v-2h3v1l-2 3h4v-5h2l1 1v5h1v-5l1-1h2v2l4 1v1l-1 1h-2v2l3-1 3-3h2v-2l4-2h1l1 1v1h-3l2 3-1 4 3-2h6l1-1v-2l1-1h2v6l3-1h1v-2l-2-2v-2h4l1 1 1 4 1 1 1-1h3l-1-1v-2h3v-2l1-1h2l2 2h2v-2l1-2h1l1 1v1l1 1v1h-3v3h-2v2h-2l1 2 3-2 1-2 3-2 3-1 3-3h2l1 2v2l-1 1h1l1-4v-5l1-3h-2v2h-2v-3h-2v-2l-3-2-3-1-1-1v-2l-2-3v-1l1-1-4-4-1 1h-4v-2h-3l-2-1v-2l-3-2v-2l-3 1-2-1v-1h2v-2h-3v-4h-3l-1-1v-2l-3-2-3-2-1-4h-2l-3-1 1-3-3 2-2 2h-1v-2l3-3 5-3Zm-11 78v1h1v-1Zm0-68h1v1h-1Zm-2 1h2v1l-2 2h-1v-2Zm-3 3h2v1l-27 27h-2v-1Z" fill="#e0e7e7"/><path d="M332 579h1l1 1v2l-1 2h3v-2h3l-1 3h4v3l-19 19-1 2-3 2-16 16-2 3-3 2-24 24-2 3-3 2-2 2-2 3-2 1-1 2-3 2-2 3-3 2-4 4-1 2-2 1-2 3h-2l1 4 2-1h2v3l2-1h4l1 1 4-1h2l2 2h4l1-1h2v2l3-1h4v-2h2v2h7l3 1v-2h1v2l3-1h2v-2h1l1 2h6l1-1h6l1 1h7l1 1v4h2v-2h11v-2h2v3h-2v2h-77l-5-1-7-3-4-2-4-3-3-3-2-3-2-2-3-5-2-5-1-4v-8h1l2 2v4l3 2v3h5l1 2h1l4-3 3-3h2v-2l3-2 1-2 3-2 4-4 2-3 5-5h2v-2l3-3h2v-2l2-2 3-2 2-3h2v-2l3-2 2-3 2-1 2-3 42-42Z" fill="#9ba3ab"/><path d="M285 682h2l-1 3h7l6 3v-2l3-3h2l1 1 1-1h1l1 1v2l-1 2 6-2 1-1h1l2 3v3l3-2 1-2 3-2 6-1 7 1 1 1v1h-3l-1 2h6l-1 3 3-2 5-1 9 1 1-2h3l1 1v1l-1 1h2l1-2h3v2l2-1h2l3 1v-2l1-1h2l2 1v2h2l5-1 1-1 5-1 1 2h1v-3h2v4l4-1h1l1-4 2-2 4 1v-2h3l1 1v2l1-1v-1l5-1h4l3 2 1 2 1-1h2v4h1l1-1h3v4h2v-8l2-1h2v3h2v-2h4v1l-2 3 5-2v-2h6l1 1h1l1-1h2v2l2 1v-2l2-2 1-2h1l1 1v4h2v-1l-1-1v-2h2v2l4-1 1 1h5l4-1 1-1h1v5l3-1 4 4 1-1 4-1h5v-3h4l1-1h6v2h3l1-1h2v-2h2v4h7v-2h4l1-3h1v4h2l2 1v-2h2l1 1v2h2l-1-2v-2h5l1-1h3l-1 3 5-1h2v3h2l5-1 3 1v-2h2l1 3h2v-2l1-1 5 1v-2h1l1 3 4 1h3l2-1h2l3 1h4l1-2h1l1 1v2l2 1v-3h2l1 2 1-1h2l2-3h1l1 1h9v3h2l-1-3h3l1 3 1-1h3l3-3h2v2l3 2v-4h4v4h2v1l-2 2h-8v-2h-3v2h-2v-2l-3 2h-2l-5-1h-2l-2 3h-3v2h-3v-1l1-1h-2l-1 1h-1l-1-1v-2l-7-1h-2l-3 1-1-1h-1l-1 1h-1l-2-2-1 2h-1l-1-1h-1l-1 1h-3l-6-1-3-1v2l-4-1h-2l-1-1-1 1h-6l-1 1h-6v-3l-3 2h-5l-1-1h-1l-1 2h-5l-3-1-3 1h-9v-2h-1l-1 1h-2l-1-1-2 2h-2v-2l-3 2h-1l-2-2-3-1v3h-2l-1-1v-2l-5 2-1 1h-1l-1-1h-1l-1 1h-5l-1-1h-4l-1-1h-3l-2-1v2l-1 1-3-1-1-1h-1l-1 1h-5l-1 1-12 1v-3l-3 1h-5l-2 2-4 1-3 1-1-2h-1l-1 3h-2v-2l-1-1h-3l1 3h-2v-2h-4v2h-2l-1-2h-7v2h-1l-2-2-1-2-1 1h-7l-1 2h-1l-1-1h-7l-3 1-1 2h-48v-2h2v-3h-2v2l-6 1h-3l-2-1v2h-2l-1-4h-7l-1-1h-6l-1 1h-7l-1-1-2 1h-12l-2-1v-2h-2v2l-4 1h-3v-2l-3 2h-4l-2-2h-2l-4 1-1-1h-6v-3l-4 2h-1v-5h1l1 1h5l3-1 3-2h2v3h9l3-2h1l2 2 1-1 3 1 2 1v-3h6Z" fill="#a5adb5"/><path d="M404 526h2l2 3h2l2 2v3h2l1 1v3h4v2h2l1 2 3 2v3h2l2 3 1-1h1l1 3 2 1 1 2v2h4l1 4 3 1 1 2 4 1v3l1 1 3 1 1 1h3v5l2-1h2v2h3v2l3 1v2h3l1 1 4 1 1 1 4 1 2 1v3h6l12 2 1 1h4v2l4-2h2l2 1h11v2h2v-2h3l2-2 1-2h1v2l5-2 1-2h4l5-1 1-2 6-2 4-4h1l1 1 1-1h1l1 1h1l1-4 2-2h3v-2l2-1v-3h5v-3l3-1 3-2 2-3 2-1-1-1v-1l3-4h2v-2l1-1 6-1 3-1 3-2 1-3 1-1h3v-2l2-3 2-1 2-4 5-2 1-1h2l1 1v1l-1 1h-2v2l-2 3-3 2-2 3-2 3-4-1v2l-1 1-1 4h-3l1 3-3 1h-3v4l-2 1-1 3-4 3-2 2-4 1-2 3-2 2-2 1-1 3-3 3h-1l-4 3-5 2-3 3h-2v2h-5v2h-3l-3 2-4 1-1 3h-6l-4 3-5 1-1-1h-1l-1 1-7 1h-4l-1-1-4-1h-6l-2-1v2h-2l-5-1v-2l-2 1h-3v-2h-3l-1 1h-3v-2l-3 1-1-1h-4v-2l-4-2-4-1v-3h-3l-1-1h-2l-1-2v-2h-2l-4-1v-3h-4l-1-3h-1l-1-1-3-1-2-3h-2l-1-1v-2h-2l-1-3h-2l-2-2-2-3-5-5-2-3-1-1v-2h-3l-2-3-3-1-1-1-1-3v-2h-3l-1-3-3-2-1-1-3-1h-4v-1l4-4Z" fill="#a4acb4"/><path d="M652 487h1v2l-1 3-3 2-2 3-3 2-1 2-3 1-1 3-2 2h-2v2l-1 5v2l1 3 1 1v3l-1 4h-2v2l-3 2-1 2h-2l-4-4h-2l-3 2h-3v2l-2 3h-2v2l-2 3-3 1-1 3-4 3-3 1-6 1-1 2-2 1-2 3 1 1v1l-3 2-2 3-3 2h-3v3h-5l1 4h-3v2l-3 1-1 1-1 4-1 1h-1l-1-1-1 1h-1l-1-1h-1l-4 4-3 1h-3v2l-1 1-5 1h-2l-2-1v2l-3 2h-4l-3 3h-2l-1 1h-2v-2l-3 1h-8l-2-1h-2l-2 1h-2v-2l-2 1h-2l-1-1-12-2-6-1v-3h-2l-4-1-1-1-4-1-1-1-3-1v-2h-3l-1-1v-1l-2-1v-2l-2 1h-2v-5l-3 1-1-1-3-1-2-2 1-3h-4l-1-1v-2h-3l-1-1v-4h-4l-1-2v-2h-2l-2-3-1 1h-1l-1-3-2-1-1-3-3-2v-2h-2v-2h-4l-1-3-2-1-1-3-1-1h-2l-2-3h-2l-4 3-1 1h-7v-5l-3-1v-10l1-2v-2l-3-2v-4l-3-1-2-3v-1l1-1h1l51 51 2 1v2h2l9 9 3 2 3 3 3 2 4 3 3 2 3 2 4 2 1 1 5 2 5 2 11 3 12 2h14l8-1 7-2 6-1 7-3 5-2 3-2 5-3 4-3 3-2 4-3 2-2 3-2 9-9 3-2Z" fill="#7e868e"/><path d="M623 530h2l4 4v1l-2 2-1 3-2 2-3 2-2 4-1 1h-3v2l-1 2h-3v3l-2 2h-2v3l-3 2-4 4h-2v3l-3 1-7 7v2l-4 1-1 3h-3v3l-3 3h-2l-2-1v2l-2 4h-8l-2 1-1 2-3 1-1 1-5 1v1h-2l-2-1v2l-6 1-2 2-3 1h-3l-3 2h-4l-3 1-1 1h-3l-1-1-3-1v2h-1l-3-2v3h-3v-3l-4 2h-1l-1-1-7-1-3-2-2 2h-1v-3h-4l-1-4h-7v-3h-3v-2h-5v-2h-3l-5-2-1-1v-2h-3l-1-1-1-3h-3l-5-3v-2l-3-1-1-2-3-2-2-2v-2h-2v-3h-4l-1-3-3-1-3-4-1-2-3-1v-3h-2l-1-1v-2h-2l-2-3-5-5-2-1-1-3-2-2-3-1-1-2h-3l-1 1h-2v-1l2-2 3-1h2l3 1 2 2 3 2v3h3l2 5 3 1 2 3 3 1 2 3 3 4 5 5 2 3h2l1 1v3h2l1 2h2l2 2v2h3l1 1h2v4h4v3h4l2 1 2 3h1l1 1 3 1v3h4l5 2-1 3 2-1h2l1 1h3v2l3-1 1-1 3 1v2l3-1h2v2h5l2 1v-2h9l3 1 1 1h4l7-1 1-1h1l1 1 5-1 4-3h4l2 1v-3l1-1 4-1 3-2 3 1v-2h5v-2l3-2 2-2 5-2 1-1h2v-2h2l2-2 1-3 4-3 3-4 4-1 3-3 2-1 1-3 1-1h2v-4l5-2v-2h3v-4l2-3h3l3-3 2-3 1-1h2v-2l2-3Z" fill="#cfd5d7"/><path d="M221 574h1l2 2-1 4-1 2h3v8l-1 4 3 1-1 3-1 5h2l1 1-1 3-1 3-3 1-1 3h2l1 1v2l-1 1 1 1 1 10v2l-1 2 3-1v3l-1 1v3l4-1v3h-4v2l6-1v5h4v-3h2v-2l1-1 8-1h4l2 1-1-2v-2l1-3 1-1h1v5l1 1 2-2h1l2 2v2l1 1-1-4v-3h1l3 2v-2l3-2 1-1-4-1v2l-1 1h-1v-4l3-3h2l3-2h1v3h-2v2l3-2 4-4h1l1-1 1-3 2-2h2v-2l4-1 1-1v-3l3-1 2-3h2l1-3 5-3 1-3 3-1 1-1v-2l4-2 1-2h2v-2l1-1 1-3 3-2h2l2-3 3-1v2l-1 2h-1l-3 3-1 4-34 34-2 3h-2v2l-3 3h-2v2l-2 1-2 3-4 3-1 2-3 2-2 3-3 2-4 4-2 3-5 5h-2v2l-3 2-1 2-3 2-3 3-3 2h-1l-1-1v-2l-3 1h-2l-1-1 1-3h-2l-2-2v-4l-1-1-1 3h-1Z" fill="#c0c7c8"/><path d="M236 334h1v2l-1 1 7 1 82 82v1l-4 3-1 1-1 3h-2v-3l-2 1h-2v-3l1-2v-2l-1 1h-2l-1-1-4 1h-2l-7-7v-2h-2l-10-10-2-3-4-3-4-4-2-3-3-2-3-4-38-38v-3Z" fill="#ced3d6"/><path d="M665 549l4 1 2 3 5 2 2 3v3h4l1 3 5 1 3 2 1 2h2l2 6 2 3 2 2 3 1 3 3 1 2 2 1 1 2 2 1v3h3l1 2 3 2 1 3h2l2 3 2 1 1 2 3 1v2l3 2v2h3v3h3v2h2l3 3v4h4l2 2 1 2 3 2 3 1v1l-2 1 3 2h1l3-2h3l1 1v2l-3 1-2-1v3l4-1 4-1v2l-2 3h4v-4h1v6l2-1v-2l1-1h1l1 2h5v4h2v1l-2 3-1 2h2v-2l3-4-2-2v-2h2v2h2l2 2v1l-3 4-2 2h2l1-1h1l2-3 2-5h-2v-1l1-1h1l3 2 1 5v-5l-1-3 1-1v-5l2-2-3-1v-2l2-2 1-7v-1l2-3v-1l-1 1h-1v-3l2-3h2v52l-2 8h-3v3l-4 1-2 1h-2l-1-2-2-1-1-2v-2h-2l-9-9-3-2v-2h-2l-2-3-3-2-2-3-2-1-1-2-2-1-1-2-3-2-2-3-3-2-2-3-45-45-1-2-3-2-2-3-3-2-2-3-2-2-3-2-2-3-2-2-1-2v-2h-3l-1-1v-2h-2l-4-3-2-3-1-1v-2h-3Z" fill="#bdc5c7"/><path d="M802 579h1v33h-2v2l-1 1v2l1-1h1v2l-2 3v2l-1 6-2 2-1 2h3l1 1v1l-2 1v5l-1 1 1 3v5l-1 2h-1v-7h-2l-1-1h-1l1 1v2l-1 3-1 1-1 3h-2l-1 1h-2l-1-1v-1l3-2 2-3v-1l-3-2v-2h-2l2 3 1 1v1h-2v2l-2 3h-2v-2l2-3-1-1v-4l-5 1-2-2v2l-1 1h-2l-1-2h-4v-2l1-1v-1l-3 1h-4v-3h5l-1-2h-3l-2 1-1 2h-1l-1-2-3-1v-1l1-1-2-2-3-2-2-3-4-1-1-4-2-2-2-1v-2h-3v-3h-3l-1-2-3-1 1-3h-3l-1-1v-2h-2l-3-3h-1l-1-1v-3l3 1 3 1h1v4h6v5l2 1v2l4-1 2 1v3h4l1 2h2v3l5-2h1v2l-2 3h-2l1 1h2l2-3h3v-5l1-2h1v5h2v-2h2l1 1-1 3h-2l1 3 2-3h2v-3l1-1h1l1 1v1l-1 1v1h7l1 1h2v-2l2-3h3v2h-2v2l3-1 1-1h4l1 1v1h-3v2l3-1 2-3 4-1 2-3-2 1-1 2h-1v-4h3v-2l1-1v-1l-2-3v-1h2v-7l1-8 1-2v-2l-1-2v-2l1-2Z" fill="#c8cdd0"/><path d="M310 416h1v4l3-2h1v3l-2 5 2-1h2v3h2v-3l3-3 2-1h2l62 62v1h-2v3h-2v3h-3v2h-5l-71-71v-1l1-1h4Z" fill="#c6cbce"/><path d="M795 342h1l1 3-3 2-1 1 1 1v1l-3 4-3 5-3 3-2 3-3 3-1 2h-2v2l-6 6-2 3-3 3-2 3-8 8-3 5-2 1-3 5-3 3h-2v2l-2 3-2 1-2 3-2 1-2 3-2 2-2 3h-2v2l-1 2-3 2-3 3v2l-2 1h-2v3l-2 1-2 3-3 3-2 3-3 2-1 2-2 1-2 3h-2v3l-4 3-2 3-3 4-3 2-1 4-3 2v1l-2 1h-2v3l-3 2h-2v3h-1v-5l-1 1h-2v2l-1 2h-2v2l-2 2-4 2-2 3-2 3-1 1h-2v3l-3 2h-2v2h2v2h-2l-1 3v4l1 1 1 3 2 3v2h2v2h2l1 3 1 1h1l1 1 1 3 3 2 2 3 1 1v4h-1l-3-2-2-3-1-3-2-2-3-1-1-3-4-4v-2h-2l-1-1 1-3h-3l-1-6v-1l-1-1v-2h2v-2l1-3 2-2 3-2 3-5 3-2 1-3h2v-2l4-3 7-7 2-3h2v-3l1-1h2v-2l2-3 2-1 1-2h3v-2l8-8 2-3h2v-2l2-4 3-2 3-2 1-3 4-3 1-2h2v-3l2-2h2v-3l3-2 5-5 2-3 1-1h2v-2l2-2 3-2 1-2 2-1 1-3 4-3 3-4 1-1h2v-2l3-3 2-1 1-3 3-2 2-2 3-5h2v-2l2-2 1-2 3-2 3-3v-3l17-17v-2l4-4Z" fill="#cdd2d5"/><path d="M312 590h1v2l-4 3v1l-2 2h-3v3l-4 3h-2v3l-1 1h-2l-2 3-2 1v2l-2 2h-4v2l-3 2-2 5h-2l-5 5h-2v-2h2l-1-2-3 2h-2l-2 2v3l1-2h4l2 1v1l-3 1-1 1h-2v2h-2l-1-1v6h-2v-3l-1-1h-1l-1 2-3-1v-5l-1 3v4h-6l-8 1-1 2h-2l1 3-1 1h-2l-2-1-1-4h-5v-2h4l-1-2-4 1v-4l1-1v-2h-2v-6l-1-8-1-1v-1h2l-1-2-2-1v-3l1-1h2l1 2 1-1h2v4l-1 3-1 1v2h1l1-1v-1l1-1h3v2h4l1 2 2-1 1-4h1l1 2 2 1v-2l1-1 1-3h1l1 1-1 3-1 4h-6v2l2-1h2l3 1v-4l1-1h1l1 3 1 1v-3h3v2h3v-3l1-1h8v2l-3 1-2 3h5v-2l1-1 2-7h2v3h3v-2l1-1h2l1 4h1l2-2 1-5 2-2h7v-4h2v-2l1-1h3l1-1 1-3 3-1h2l-1-3 7-3Z" fill="#c8ced0"/><path d="M639 546h2l33 33v2l-3-1-2 3h-1v-2h-2v3h-4v-1h2v-3l2-1h-7l-1 1h-2l-3-1-1-1h-2v3h-11l-2-1v2h-1l-1-1v-1h-3v4l-3 2h-1v-2l1-3h-5l-1 1-3-1v-1l-2-3-2 2h-4v2h-1l-1-3 2-2v-3l1-1h1l1 1 1-1-1-1v-1l1-1h2l1-1h6l-1-1h-3l-1-1v-2l3-3h3l1-1h1l1 2v-3h2l-1-3 1-1 1-3h1l1 1 1-2 2-1Z" fill="#eeeeef"/><path d="M384 547h1l2 3 1-2h1l1 1v2l-1 1v2h3v3h5l-1 3h3l3 2v1l-1 1v2h2l3 1v7l2-3h2l-1 3 3-1v4h2v1l-5 3h-1v-3l-5 3h-2l1-4-2 3-1 3h-2l-1-3-1 4-4-1h-1v-3h3l-1-2-1 1-7 2-4 3h-2v-4l2-1h2l-1-2-1 1h-2v-3l-3 2-1 3h3l-1 4v1l-3 1v-4l-1-2-1 1h-8v-2l-4 2-1 1-3 1-2 2h-1l-1-4 2-1h4v-2l-3 1v-2Z" fill="#efeff0"/><path d="M397 534h3l1 1v2h3l3 3v3h2l7 7v2h2l1 2 2 1v3h3l3 4 1 2 3 1 1 1v3h4v3h2l2 3 4 3v2h3l1 1v1l2 2 3 1h2l1 1 1 3 3 1 1 2 5 2 3 1v2h5v2h3v3l7-1 1 1v4h4l1 2 1-2h1l3 2 7 1 1 1 3-1 3-1v3l2 1v-3h2l1 1 1-1h3l1 1h3l1-1 3-1h4l3-2h4l3-2 1-1h6v-2h3v-1l6-1 1-1h3v-2l3-2h2l3 1v1l-2 3-4 1-2 2h-4v2l-1 2-3 1-1-1-1 1h-4l-1 1-3 1h-2l1 3-1 1h-1v-2h-3v2h-2v-2l-3 1v2h-2l-1-1-12 1-1 3h-2v-4l-1 1v2l-1 1h-2l1-4h-3v2h-1v-2h-9l-1-1-4 1-3-1-1 1h-1l-1-2h-4l-3-2v-3l-4 1h-5v-2h2l-1-2h-7v-4l-4-1h-2l-1-1v-2h-2l-1-1-3-1v-3h-3l-2-2v-2h-2l-3-1v-1l-3-2-1-1-1-3-2-2-4-2-1-2v-3h-2l-3-2-1-2-3-2v-2h-2l-1-1v-1l-3-2-2-2-1-3-5-2v-4h-2l-2-3-3-2-1-2-4-2v-1Zm-5 3h2v1l-3 3h-2v-1Z" fill="#d0d5d8"/><path d="M789 349h2v1l-17 17v3l-5 5h-2v2l-2 2-1 2h-2v2l-3 4-3 3h-2v3l-4 3-2 3-3 2-2 3-2 2-2 1-1 3-1 1h-2v2l-2 2-3 2-1 2-3 2-2 3-6 6h-2v3l-3 2-1 3h-2v2l-2 2-2 1-1 3-2 2-4 2-3 6-2 1-2 3-7 7-1 2h-3v2l-3 2-2 4-2 1-1 3-2 1-2 3-8 8-2 1-1 2h-2v3l-3 2-3 5-2 2-3 2-2 5h-2l2 3v7h3v3l2 1 2 3 3 3v3h-1l-2-3-10-10v-5h-2v-6l1-1v-3l1-1h2v-2h2v-6l2-2 2-1 2-3 2-2h2l2 1v-3l2-1 2-5 3-2 2-2h2v-3l4-3 4-3 1-4 4-2 1-3h2v-2l2-4 1-1h3l-1-3 1-1h2v-2l3-2 3-2 1-3 1-1h2v-2l4-3 3-4 3-2 1-2h3v-2l3-4 2-2 3-2 2-3 2-1 2-3v-2l21-21 1-2 2-1 2-3 3-2 3-3 2-3h2v-2Z" fill="#9ba3ab"/><path d="M714 407h1l2 2v1l-1 1-1 4-1 1v2l3 2 1 1v1l-42 42h-5v2l-4 1v-2h-4l-1-1v-2h3v-2l3-2-1-1-1 1h-2v2l-4 2-2 3h-3v-1l54-54h2v4h2v-5Z" fill="#c7cccf"/><path d="M220 381h1v174h-1l-1-4-1-8v-6l-1-1v-22h-2v-2l-1-3v-4l-1-1v-2l1-1v-1h-1l-2 3h-1v-2l-1-1v-3l2-2-1-1 1-4h3v1h-2l1 1h2l-1-10v-5l-1-1h-1l-2 4h-1v-3l2-4h2v-2h1v-12l-3-2h-1v-3h3l2 1-1-4h-1l-1-1v-1h2v-2h-2l-1-1v-1h2l2 1-1-2v-6l-1 1h-1v-4l1-1h2l-1-3v-11l1-7 2-4 1-1-1-1v-1l2-1v-5h-1v-2h2l-1-3Z" fill="#1080cf"/><path d="M811 502l3 1 1 1v1h-2v3h3v1l-3 1 2 1 1 2v5h-1l-1-2-3 1-1 1h2l1-1h1l2 4-1 3 1 1v18h-3l1 5-1 1 1 1v2l-1 1-1 5v6l-2 10v10h1v3h-2v5l2 2v2h-1l-1-1-1 9-2 31-1 3 1 1v1l-1 1v6l-1 5h-1v-83l2-25 1-1v-14l1-14 1-1 1-8v-2h2Z" fill="#1188d9"/><path d="M728 411h1l1 1v1h-2v2l-3 2-2 3-4 3-3 4-1 2h-3v2l-2 2-2 1-2 3-2 2-2 1-1 2-2 1-1 3-2 2-4 2-1 2-2 1v3l-3 1-3 6h-2v3l-3 2h-2v4l-2 2-3 2-3 2-1 3-3 2-2 2h-2v3l-2 3h-2v3h-4l-2 2-2 3-3 2-1 6h-2v2l-2 1v3l-1 1-1 6h2l1 5 9 9v2l-1 2h2v2h-2v4l-1 1-1 3h-2v-4l1-1-1-1-1 1h-7l-9-9 1-3 3-2 1-2h2v-7l-1-1-1-3v-2l1-5 1-2 3-2 1-3 1-1h3v-2l2-2 2-1 2-3 1-1h2v-3l1-3Z" fill="#8f979f"/><path d="M710 682h1v5h4l-1-3 2-2h1l1 4h3v-3h2l2 1v2l-1 3h3v-2l3-1v2l-2 3 5-3h5l2-3h2l3 1 1-2h1v3h3v-2h4v2h3v4h2v-3l3-1v-3l1-1h1l1 1v3h4v-3l3-1h2l2 2h3l2 2v2l-1 2-3 1v-2h-2l-2 2-1 2h-1v-3l-4 1-4-1v2l-2 1h-3l-1-1h-5l-2-1v2h-8v-2l-2-1v2h-3l-4 1h-8v-2h-2v2h-3l-1-1-3 1-1-1h-2l-3 1h-3l-1-2-2 1h-2l-1-1h-2l-1 2h-1l-1-1v-1l-3 1-1 1-9-1-2-1v2h-3v-3l-3 2h-4l-2 2-3 1h-6l-1-1h-1l-2 2h-2l-1-2-2-1h-4v-3h-2v-2l2-2h2v3l2 1-1-2v-2h2v3h2l2 1-1-2v-2l2-2h1l1 5h3l2-1h2v2l5-1 1-3h1l1 3h1l1-1h8v3h3v-3h-2v-2h8l-1-3h3v3l-2 3h3v-2l1-1 1-3 1-1h1v5l2-1v-4h2v3h3v-2Zm-58 9v1h1v-1Zm-1 1v1h1v-1Z" fill="#abb3bb"/><path d="M270 386l3 1 2 2 2 3 3 3 3 2 2 2 2 3 8 8 2 1 2 3 84 84v3l1 1v2h3l1 1v3l3 3v2l-1 2h-1l-1-3-3-1-1-3h-1l-1-1v-3h-2l-2-1-1-2v-2h-4l-2-2v-2l-4-4-1-2-2-1v-4h-4l-1-1-3-1-4-3-1-3-2-1v-4h-2l-1-2-2-1-2-3v-3h-4l-1-2v-3h-2l-2-3v-2h-4v-3h-3l-1-1v-3h-3l-1-3v-2h-2l-3-2-1-1h-1l-2-3-3-3-2-3-3-2-1-2-3-1-1-3-2-3-3-1-3-5-2-1v-3h-3v-4h-3l-3-3v-2h-2l-2-3-2-1-1-3-2-1-1-2Z" fill="#818a92"/><path d="M404 526h2l2 3h2l2 2v3h2l1 1v5h3l1 4h3l1 1-1 3h2v3h2l2 1v3h2l3 1 1 1v3h2l1 1v3h4l2 3 2 2 2 1v2h2l3 2 2 3 3 1 1 1 3 1 2 3 5 1 2 2 3 1v2h2l1 1h3l1 2h6l3 2 9 2h4v2l2-1h5l10-1h3l1 1h2v2l-1 1h-8l-1 1h-11l-2-1v2h-2l-5-1v-2l-2 1h-3v-2h-3l-1 1h-3v-2l-3 1-1-1h-4v-2l-4-2-4-1v-3h-3l-1-1h-2l-1-2v-2h-2l-4-1v-3h-4l-1-3h-1l-1-1-3-1-2-3h-2l-1-1v-2h-2l-1-3h-2l-2-2-2-3-5-5-2-3-1-1v-2h-3l-2-3-3-1-1-1-1-3v-2h-3l-1-3-3-2-1-1-3-1h-4v-1l4-4Z" fill="#a5acb4"/><path d="M234 676h1v7h2v-3l3-1v4l3 3 1 4 2-1h2v3l2-1h4l1 1 4-1h2l2 2h4l1-1h2v2l3-1h4v-2h2v2h7l3 1v-2h1v2l3-1h2v-2h1l1 2h6l1-1h6l1 1h7l1 1v4h2v-2h11v-2h2v3h-2v2h-77l-5-1-7-3-4-2-4-3-3-3-2-3-1-1v-2Z" fill="#9ba3ab"/><path d="M671 485h1v2l-1 5-2 2-1 4h-2v2l-3 2-1 2h-2v3l-4 4-2 1v3h-2v2l-1 1v4l3 5v2h3l1 4 3 1 3 4 5 5h2l1 3 1 1h2l2 5h3l1 1 1 3 5 2 1 1 1 4 3 1 1 1 3 1v1l1 1v3l3 6v2h3l2 2h2v4h3l1 3 2 1v2h4l1 1v2h2l-1 3-3-1-1-1v-2h-3v-3h-2l-1-1v-2h-2l-3-4-1-1-3-1-4-4-2-5v-3l-3 1v-3h-2l-1-1-5-1-1-1v-3h-4l-2-5-5-2-2-2v-2h-3l-1-1-1-4-2-2v-2h-2l-2-2-1-3h-2l-1-2v-3h-2v-2h-2l-2-4-1-1-1-3-1-1v-5l1-3 3 1v-2h-2v-2l3-2h2v-3l3-2 2-4 2-2 4-2 2-3h2v-2l1-2Z" fill="#ccd2d4"/><path d="M383 499h1l51 51 2 1v2h2l9 9 3 2 3 3 3 2 4 3 3 2 3 2 4 2 1 1 3 1 1 1v1l-4 1-1-1-3-1-1-2-3-1v-2h-8v-5l-3 1-1-1-3-1-2-2 1-3h-4l-1-1v-2h-3l-1-1v-4h-4l-1-2v-2h-2l-2-3-1 1h-1l-1-3-2-1-1-3-3-2v-2h-2v-2h-4l-1-3-2-1-1-3-1-1h-2l-2-3h-2l-4 3-1 1h-7v-5l-3-1v-10l1-2v-2l-3-2v-4l-3-1-2-3v-1Z" fill="#768189"/><path d="M399 532h2l3 1 2 2 3 2v3h3l2 5 3 1 2 3 3 1 2 3 3 4 5 5 2 3h2l1 1v3h2l1 2h2l2 2v2h3l1 1h2v4h4v3h4l2 1 2 3h1l1 1 3 1v3h4l5 2-1 3 2-1h2l1 1h3v2l3-1 1-1 3 1v2l3-1h2v2h5l2 1v-2h9l3 1 1 1 4 1v2l-1 1-4-1-2 1h-6l-10-1h-11l-1-3h-7v-3h-3v-2h-5v-2h-3l-5-2-1-1v-2h-3l-1-1-1-3h-3l-5-3v-2l-3-1-1-2-3-2-2-2v-2h-2v-3h-4l-1-3-3-1-3-4-1-2-3-1v-3h-2l-1-1v-2h-2l-2-3-5-5-2-1-1-3-2-2-3-1-1-2h-3l-1 1h-2v-1l2-2Z" fill="#b9c1c6"/><path d="M386 511h3l1 7-1 7h4v5h5v2l-3 3-1 2-3 2-3 4-3 2-3 4-2 1-1 2-3 2-12 12-5-1v-2h4v-2h-4v-2l4-1 2-3h2l-1-3 1-1v-3l4-2 1-1v-2l-1-4 2-2 3-2v-2l4-4 1-3h2v-2l2-3h2l-1-7Z" fill="#9098a0"/><path d="M352 479l3 1 1 1 3 1 1 1 4 1v4h2l3 4 3 3v2l1 1 4 1 1 2v2h2l2 1 1 3h2l2 7v7h-2v2l-2 3h-2v3l-4 4-3 2-3 3h-2v2l-2 1-1 3-4 2-2 3-3 3h-2v2l-5 5h-2v2l-6 6h-2v2l-2 4h-3v2l-2 2-3 2-2 3-6 6h-1v-3l2-2 1-2h1l1-1 1-3h2v-2l3-3 3-5 3-2 6-6h3v-2h2v-2l1-2 3-2 2-4 3-2 2-3 3-3 2-1 2-3 2-1 2-3 5-3 2-1 1-4h2v-11h-2l-2-3-1-3-4-3v-4h-2l-2-1v-3h-2l-1-2-3-1-1-2-2-1-2-3-3-2v-3h-2Z" fill="#b5bcc3"/><path d="M228 342h1l2 3 38 38 2 5v2h2l1 1v3h2l2 2v2h2l2 3 1 1 3 1v4h3v3h2l3 4v2h3l3 4v3h3l1 1v2h2l3 3 2 3 4 4h1l1 2 4 2 1 2v3h3l1 3 3 1v3h4l2 4 2 1 1 3v2h4l1 3 1 1v2h2l1 1v2h2v4h2l1 1v3l-3-1-2-2-1-2-2-1-3-5-2-1v-2h-2l-4-4v-2l-3-3-3-2v-2h-3v-3h-2l-2-1-2-4-3-2-3-5-3-2-1-3-4-3-2-2v-2h-2l-3-3-2-3-9-9v-2h-2l-2-4-2-1-2-3-2-1-1-2-2-1-2-3-3-3-2-1-2-4-3-2-1-1-1-3-2-1-2-3-2-1-2-3-2-2-2-5-18-18-2-1Z" fill="#a4acb3"/><path d="M285 682h2l-1 3h7l6 3v-2l3-3h2l1 1 1-1h1l1 1v2l-1 2 6-2 1-1h1l2 3v3h2v1l-1 1-4 1h-3l-1-1h-6l-1 1h-7l-1-1-2 1h-12l-2-1v-2h-2v2l-4 1h-3v-2l-3 2h-4l-2-2h-2l-4 1-1-1h-6v-3l-4 2h-1v-5h1l1 1h5l3-1 3-2h2v3h9l3-2h1l2 2 1-1 3 1 2 1v-3h6Z" fill="#adb5bd"/><path d="M746 399h2v2h-2v3l-1 1h-2v2l-2 3-3 2h-2v2l-2 3-2 3h-2v2l-2 3-2 2-4 1-2 3-1 3-2 1-2 3-4 4-2 1-2 3-3 3-2 3-3 3h-2v2h-2v3l-3 2-3 3-2 3-2 2h-2l1 3h-3v2l-1 1h-2v2l-4 4-2 3-2 2h-2v2l-1 2h-2v2l-2 2-4 2-2 3-2 3-1 1h-2v3l-3 2h-2v2h2v2h-2l-1 3v4l1 1 1 3 2 3v2h2v2h2l1 3 1 1h1l1 1 1 3 3 2 2 3 1 1v4h-1l-3-2-2-3-1-3-2-2-3-1-1-3-4-4v-2h-2l-1-1 1-3h-3l-1-6v-1l-1-1v-2h2v-2l1-3 2-2 3-2 3-5 3-2 1-3h2v-2l4-3 7-7 2-3h2v-3l1-1h2v-2l2-3 2-1 1-2h3v-2l8-8 2-3h2v-2l2-4 3-2 3-2 1-3 4-3 1-2h2v-3l2-2h2v-3l3-2 5-5 2-3 1-1h2v-2l2-2 3-2 1-2 2-1 1-3 4-3 3-4Z" fill="#bac1c5"/><path d="M623 530h2l3 3v1l-1 1h-1l-1-1-2 3h-2l-1 3-3 2h-2v3l-1 1h-2v3l-4 2-3 4-2 3h-3v2l-3 2-2 4-4 4-3 2-3 4-3 2-2 2h-2l-2 2-2 1v2l-2 2-4 2-2 2-3 2-7 1-2 2-5 1-3 2-5 1h-3l-3 2-1 2h-1v-2h-2v2h-4l-1 1h-2l-1-1h-3l-1-1v-1l7-1 1-1h1l1 1 5-1 4-3h4l2 1v-3l1-1 4-1 3-2 3 1v-2h5v-2l3-2 2-2 5-2 1-1h2v-2h2l2-2 1-3 4-3 3-4 4-1 3-3 2-1 1-3 1-1h2v-4l5-2v-2h3v-4l2-3h3l3-3 2-3 1-1h2v-2l2-3Z" fill="#bac1c6"/><path d="M802 634h1v30l-2 8h-3v3l-4 1-2 1h-2l-1-2-2-1-1-2v-2h-2l-9-9-3-2v-2h-2l-1-3h4l5 1 1 5h9v-2h2l2 3h1l1-3 2-3h1l1-4 1-1v-3l1-8Z" fill="#b6bfc7"/><path d="M695 453h2l-1 3-2 1-2 3-7 7-1 2h-3v2l-3 2-2 4-2 1-1 3-2 1-2 3-8 8-2 1-1 2h-2v3l-3 2-3 5-2 2-3 2-2 5h-2l2 3v7h3v3l2 1 2 3 3 3v3h-1l-2-3-10-10v-5h-2v-6l1-1v-3l1-1h2v-2h2v-6l2-2 2-1 2-3 2-2h2l2 1v-3l2-1 2-5 3-2 2-2h2v-3l4-3 4-3 1-4 4-2 1-3 4-2 1-2h2v-2l3-1 2-2Z" fill="#a4acb4"/><path d="M415 538h4v2h2l1 2 3 2v3h2l2 3 1-1h1l1 3 2 1 1 2v2h4l1 4 3 1 1 2 4 1v3l1 1 3 1 1 1h3v5l2-1h2v2h3v2l3 1v2h3l1 1 4 1 1 1 4 1 2 1v3h6l12 2 1 1h4v2l4-2h2l2 1h11v2h2v1l-1 1h-1l-1-1h-3l-10 1h-7v-2l-2 1h-2l-9-2-3-2h-6l-2-2h-2l-1-1h-3v-2l-3-2-1-1-5-1-2-3-3-1-1-1-3-1-3-4-4-2v-2h-2l-4-4v-2h-4l-1-3-2-1-1-3-5-2v-3h-2l-2-1v-3h-2v-3h-3l-1-1v-4h-3Z" fill="#939ba3"/><path d="M397 534h3l1 1v2h3l3 3v3h2l7 7v2h2l1 2 2 1v3h3l3 4 1 2 3 1 1 1v3h4v3h2l2 3 4 3v2h3l1 1v1l2 2 3 1h2l1 1 1 3 3 1 1 2 5 2 3 1v2h5v2h3v3l7-1 1 1v3l-4 1v-3h-6l-3-1v-2h-1l-3-2-6-2-3-2-4-1 1-3h-3l-1-1v-2h-4v-3h-2v-2h-3l-2-3-3-1-1-3-2-1v-3l-2 1h-2l-1-1v-3h-5l-2-3-3-2v-2h-2l-1-1v-1l-3-2-2-2-1-3-5-2v-4h-2l-2-3-3-2-1-2-4-2v-1Zm-5 3h2v1l-3 3h-2v-1Z" fill="#cfd4d7"/><path d="M221 635h2l2 2v2h-2l1 1v2l1 1v2l-1 2h3v1l-1 1h-2v4h1v-2h3v11l1-2 1-4h1l1 7-1 3h1l1-1v-5l1-3h1v2l2-1h3v2h-4v2l-1 3h2v-3h3l1 1v-3h3v-2l2-3h2v1h3v-2l1-3h2l1-2 3-2h4v1l-5 5-2 3-5 5h-2v2l-3 2-1 2-3 2-3 3-3 2h-1l-1-1v-2l-3 1h-2l-1-1 1-3h-2l-2-2v-4l-1-1-1 3h-1Z" fill="#b5bec6"/><path d="M227 345h2l9 9v1h-2v2h2v2h2l3 4 3 2 2 3 1 4 2 2v3h2l2 3 1 1v2h2l3 4 3 3 1 2 2 1 2 3 4 4 2 4 3 2 3 4 4 4 2 3v2h2l5 5 2 3v2h3l1 2v2h2l2 3v2h3l1 1 1 4-3 1-2-2v-2l-2-2-1-2-3-1v-3l-1-1h-2l-1-1v-2h-2l-3-3-3-5v-2h-2l-1-1-1-3h-3l-1-3-1-3h-2l-2-1-2-3-1-1v-4h-3v-2h-2l-2-3-3-4-3-3v-2h-2l-3-4-2-2-2-3-2-2-2-3-4-4-2-3-3-3-2-3-2-2-1-3-3-3-2-1 1-3Z" fill="#dbe0e0"/><path d="M556 593h4v2l-1 3-3 2-5 1v1h-2l-2-1v2l-6 1-2 2-3 1h-3l-3 2h-4l-3 1-1 1h-3l-1-1-3-1v2h-1l-3-2v3h-3v-3l-4 2h-1l-1-1-7-1-3-2-2 2h-1v-3h-4v-1l3-1h10l8 1h6l3-1 3 1 1-2h5v2l3-2 4 1v-2h3l2-2 3-1h2l5-1 3-2 5-1Z" fill="#c7cccf"/><path d="M652 487h1v2l-1 3-3 2-2 3-3 2-1 2-3 1-1 3-2 2h-2v2l-1 5v2l1 3 1 1v3l-1 4h-2v2l-3 2-1 2h-2l-5-5-3-2-2-3v-1Z" fill="#687880"/><path d="M592 549h3v3h2v1h-4v3h-2v2l-2 3-3 2h-2v3l-1 1h-2l-2 2-1 4-3 2-3 3-4 2v2l-3 1h-2v2l-1 1h-1v-2l-5 1-2 2-4 2-2 2-2 1h-2l-1-1-2 2-3 1-7 1-1 1h-5v-2h3l2-2 1-2h1v2l5-2 1-2h4l5-1 1-2 6-2 4-4h1l1 1 1-1h1l1 1h1l1-4 2-2h3v-2l2-1v-3h5v-3l3-1 3-2 2-3 2-1-1-1v-1l3-4h2v-2Z" fill="#949ca4"/><path d="M795 342h1l1 3-3 2-1 1 1 1v1l-3 4-3 5-3 3-2 3-3 3-1 2h-2v2l-6 6-2 3-3 3-2 3-8 8-3 5h-4v2l-1 1h-2v-2h2v-4l3-3 2-1 1-3 3-2 2-2 3-5h2v-2l2-2 1-2 3-2 3-3v-3l17-17v-2l4-4Z" fill="#cdd2d5"/><path d="M383 499h1l23 23v1l-2 2-2 3-3 2-1 1h-7v-5l-3-1v-10l1-2v-2l-3-2v-4l-3-1-2-3v-1Z" fill="#67777f"/><path d="M728 411h1l1 1v1h-2v2l-3 2-2 3-4 3-3 4-1 2h-3v2l-2 2-2 1-2 3-2 2-2 1-1 2-2 1-1 3-2 2-4 2-1 2-2 1v3l-3 1-3 6h-2v3l-3 2h-4v3h-3v2l-2 3-3 2-2 3-3 3h-2v3h-6v-1Z" fill="#748088"/><path d="M352 479l3 1 1 1 3 1 1 1 4 1v4h2l3 4 3 3v2l1 1 4 1 1 2v2h2l2 1 1 3h2l2 7v7h-2v2l-2 3h-2v3l-4 4h-1v-2l3-3 1-4 1-1v-11h-2l-2-3-1-3-4-3v-4h-2l-2-1v-3h-2l-1-2-3-1-1-2-2-1-2-3-3-2v-3h-2Z" fill="#9ea6ae"/><path d="M750 668h2l1 3 1 1-1 3 2-1v-4h2l1 1 2-2 3-1 3 3v2h2l3 3v3l1 1v1l-2 1h-2l-3-2v-1l-3-1-1 2-2 1h-2v-2l1-1-2-1v5l-1 1h-1v-4l-3 2h-1l-1-3-2 3h-1l-1-3-3-2v-4l-1-1v-2l4 1h5Z" fill="#bfc7c8"/><path d="M329 684l8 1 1 1v1h-3l-1 2h6l-1 3 3-2 5-1 9 1 1-2h3l1 1v1l-1 1h2l1-2h3l-1 3-3 2-3 1h-2v2l-3 1-2-3h-6l-1-2-3-1v2h-2l-3-1-1 2h-1v-3l-3 1h-4l-1-1v2l-1 1h-1v-2l-3 1h-2v-2l-1-1v-1l2-3 3-2Z" fill="#a8b0b8"/><path d="M789 349h2v1l-17 17v3l-5 5h-2v2l-2 2-1 2h-2v2l-3 4-3 3h-2v3l-4 3-2 3-3 2-2 3-2 2-2 1-1 3-1 1h-2v2l-2 2-3 2-1 2h-1v-3l2-2 1-2 3-2 2-3 2-2 1-2 3-1 2-3 3-4 3-3 1-5 2-1 2-3 3-2 3-3 2-3h2v-2Z" fill="#9fa6ae"/><path d="M236 355h3l9 9 2 5 3 3v2h2l2 2v6h2l3 4 3 3v2h3l3 3 2 3 2 2 3 5 2 1v3h3l6 6 2 3 3 2v4h2v4h-1l-3-4-3-3-2-1-3-5-5-5-2-3-3-2-2-4-5-5v-2h-2l-3-4-3-3-1-2-2-1-2-3-1-1v-2h-2l-1-3-2-2-1-4-1-1v-2h-2l-3-3-1-2-2-1v-2h-2Z" fill="#ced3d6"/><path d="M795 345h2l2 3 2 5v1l-3 1-2-1v-2h-2v2l-3 4-3 4-4 4-2 3-3 3-2 3-2 2-2 3-2 2-2 3h-2v2l-3 3-3 5-6 6-2 3h-2l-1-1v-2l1-1h2v-2l3-4 8-8 2-3 3-3 2-3 5-5 1-2h2v-2l4-4 2-3 2-2 3-5 3-4-1-1v-1Z" fill="#dae0e1"/><path d="M657 685h1l1 5h3l2-1h2v2l5-1 1-3h1l1 3h1l1-1h8v3h3v-3h-2v-2h5l1 1v2l2 1v2l-1 1-9-1-2-1v2h-3v-3l-3 2h-4l-2 2-3 1h-6l-1-1h-1l-2 2h-2l-1-2-2-1h-4v-3h-2v-2l2-2h2v3l2 1-1-2v-2h2v3h2l2 1-1-2v-2Zm-5 6v1h1v-1Zm-1 1v1h1v-1Z" fill="#a5adb5"/><path d="M616 523h2l2 3 2 1v1l-2 2-2 1h-3v2l-2 3h-2v2l-2 3-3 1-1 3-4 3-3 1h-3v-2l1-1 1-4Z" fill="#899199"/><path d="M418 554l3 1v3h3l3 4 1 2 3 1 1 1v3h4v3h2l2 3 4 3v2h3l1 1v1l2 2 3 1h2l1 1 1 3 3 1 1 2 5 2 3 1v2h5v2h3v3l7-1 1 1v3l-4 1v-3h-6l-3-1v-2h-1l-3-2-6-2-3-2-4-1 1-3h-3l-1-1v-2h-4v-3h-2v-2h-3l-2-3-3-1-1-3-2-1v-3h-3l-1-1v-3h-4v-2h-2l-2-3-1-2-2-1v-2h-2l-1-1v-1Z" fill="#c7cdcf"/><path d="M592 682h1v5l5-3h3l2-1h2v2h2l1 1v2h2v3h-3l-1 1h-1v-3h-2v3h-3v-3l-2 2h-4l-3-1h-2l-2 1h-3l-4-1-2-2h-5l-1 2-3 1v-4l3-1 1-2 4 1 1-1h8l1-1h1l2 3v2l1-1v-3Z" fill="#b0b8c0"/><path d="M351 467h1l31 31v3l1 1v2h3l1 1v3l3 3v2l-1 2h-1l-1-3-3-1-1-3h-1l-1-1v-3h-2l-2-1-1-2v-2h-2l-1-1v-4h-2v-2l1-2h-2v-2h-4l1-3h-2l-1-1-4-1v-2l1-2h-4l-3-3 1-3h-2l-3-4Z" fill="#878f97"/><path d="M404 526h2l2 3h2l2 2v3h2l1 1v5h3l1 4h3l1 1-1 3h2v3h2l2 1v3h-1v-2h-2l-3-1v-2h-3l-2-3-3-1-1-1-1-3v-2h-3l-1-3-3-2-1-1-3-1h-4v-1l4-4Z" fill="#a1a9b1"/><path d="M334 454h3l2 5h2l2 1v4h2l2 2 4 1 3 5 2 1v3l2 2 4 1v2l-1 2h4l3 2v2l3 1v2h2v2l-1 2h2l1 5h-2l-2-2v-2l-4-4-1-2-2-1v-4h-4l-1-1-3-1-4-3-1-3-2-1v-4h-2l-1-2-2-1-2-3v-3h-4l-1-2v-3h-2l-1-1Z" fill="#9098a0"/><path d="M227 345h2l9 9v1h-2v2h2v2h2l3 4 3 2 2 3 1 4 2 2v3h2l1 3h-3l-3-4-2-2-2-3-4-4-2-3-3-3-2-3-2-2-1-3-3-3-2-1 1-3Z" fill="#d9dfdf"/><path d="M303 419h1l47 47v1h-4l-2-2-2-1v-4h-4l-1-1-1-3v-2h-3v-3h-3v-3h-3l-2-3-2-1v-3h-2v-2h-2l-3-2v-3h-3l-1-1v-3h-2l-9-9v-1Z" fill="#758088"/><path d="M533 683h1v4h2l2 1v-2h2l1 1v2h2l-1-2v-2h5l1-1h3l-1 3 1 1v1l-3 1-1 1h-1v-3h-2v3h-7l-1-1h-5l-1-1h-1l-1 1h-9l-3 1-2-1-8-1-2 1h-4v-1h2v-3h4l1-1h6v2h3l1-1h2v-2h2v4h7v-2h4Z" fill="#afb7bf"/><path d="M283 688h1l1 2h1l1-2h1l1 1 1-1h3l1 1h5l1-1h1l1 1h1l1-1h2l1 1h4l1 1 3 1v-2h2v2h2v1l-1 1-4 1h-3l-1-1h-6l-1 1h-7l-1-1-2 1h-12l-2-1v-1h2v-3Z" fill="#a7afb7"/><path d="M634 360h8l1 1v3l-1 9-3 2h-3l-3-2-1-5v-3l1-4Z" fill="#e6e6e9"/><path d="M750 389h1v3l-4 4-2 3-3 4h-3v2l-3 3-2 3-1 1h-2v2l-2 2-1 3-1 1h-3v2l-4 3-2 2-1 2h-2v-2l3-4 2-2 3-2 2-3 2-1 2-3v-2Z" fill="#889098"/><path d="M592 549h3v3h2v1h-4v3h-2v2l-2 3-3 2h-2v3l-1 1h-2l-2 2-1 4-2 1h-3l-4 2v1l-1 1h-2l1-4h3v-2l2-1v-3h5v-3l3-1 3-2 2-3 2-1-1-1v-1l3-4h2v-2Z" fill="#949ca4"/><path d="M348 685h4v1l-1 1h2l4-1h5l1-1h3l1 3h2v-3h4l1 4-1 2h-5l-3 1v-2l-2-1v2l-1 1h-4v-1l2-1v-1l-3-1v3l-11-1-4 1-1 1h-2v-2l-3-1v-1l3-1h4l1 1h3v-2Z" fill="#afb7bf"/><path d="M649 361h6l1 3v9l-3 2h-3l-3-2-1-1-1-4v-2l1-3Z" fill="#d8dcdd"/><path d="M221 574h1l2 2-1 4-1 2h3v8l-1 4 3 1-1 3-1 5h2l1 1-1 3-1 2h-4v-4l1-2h-2Z" fill="#c8cdd0"/><path d="M464 682h1l1 1v4h2v-1l-1-1v-2h2v2l4-1 1 1h5l4-1 1-1h1v4h-1v1l1 1v1h-2l-3-1v2l-8-1-2-1v3h-1l-1-1h-4l-2-1-4-1v-1h3v-2l2-2Z" fill="#b0b8c0"/><path d="M220 361h1v20l-1 15v2h-2l1 1h1v6l-1 1h-1l-1-1v-29l1-5v-4l1-4Z" fill="#1878f0"/><path d="M478 582l4 1 11 3 12 2 16 1v4h-1l-2-2-1 1h-2l-3-1-1 1h-4l-5-1h-9l-3-1-2-2-5-1-3-1-2-2Z" fill="#697880"/><path d="M222 660h1l2 2v4l3 2v3h5l1 2h1l1-1h2v1l-2 2h-2v2l-5 5h-1l-3-5-2-5-1-4Z" fill="#a8b0b8"/><path d="M374 361h7l3 2v3l-2 3-2 2h-2l-1 3-4 1-1-3v-9Z" fill="#e0e2e4"/><path d="M785 334h3l7 7v3l-4 4h-1l-1-1-4-1-1-1v-2l-2-1-1-4Z" fill="#dbe1e2"/><path d="M446 360h7l1 1v12h-1l-3-2-1 3h-4l-1-3v-7l1-3Z" fill="#e5e7e8"/><path d="M800 660h2v8l-1 4h-3v3l-4 1-2 1h-2l-1-2-2-1-1-2v-2h-2l-6-6v-1h2l2 2 3 1 3 2v3l2 1v-3h1l1 1 1 3 1-3h3v-3l1-1 1-5Z" fill="#a8b0b8"/><path d="M600 558h3v2l-2 4-1 1h-4v2l-4 4-2 1-1 3-5 3-2 2-1 2-4 2-2 3-4 3-3 1-1 1h-3v-1l3-2 3-2 3-2v-2l3-2 1-2h3l3-3 2-1 2-3 2-2 3-2 2-2 2-4 3-2Z" fill="#c8cdd0"/><path d="M650 535h1l1 1v2h4l3 3v2h-1l-2-2-4-1v3l-1 3h-3v2h5v2l-1 1h-3l-3 1-8-8v-1l1-1h5l1-1h1l1 3h-2v4h2v-3l1-1 1-4h2v-2h-2v-2Z" fill="#98a0a8"/><path d="M234 676h1v7h2v-3l3-1v4l3 3-1 3h-2v2h-4l-4-4-2-3-1-1v-2Z" fill="#949da5"/><path d="M636 520h1l1 1 2 5 1 1v2l-4 1h-3v3l5-2h2v1l-3 3-1 3-1 1h-3l-5-5 1-3 3-2 1-2h2v-4Z" fill="#818991"/><path d="M724 420h2l-1 3-7 7h-2v3l-3 2-1 3h-2v2l-2 2-2 1-1 3-2 2h-1v-3l2-3 1-5 3-4 3-2 1-2h5v-2l4-4 2-1Z" fill="#a5adb5"/><path d="M319 691h2l-1 3 2-1h3l1 1v-3h1l1 1h9l5 2v-2h3l2 2h1v2h-10l-1 3h-5v-2h2v-3h-2v2l-6 1h-3l-2-1v2h-2l-1-4v-2Z" fill="#9fa7af"/><path d="M570 569h2l1 3h-3v2l-3 1-1 1-1 4-1 1h-1l-1-1-1 1h-1l-1-1h-1l-4 4-3 1h-3v2l-1 1-5 1h-2l-1-1v-1l1-1h4l3-2 3-1 1-1 1-3 3-2 3-1 3 2v-3h3Z" fill="#7c868e"/><path d="M357 688h3l1 1v1l-1 1h2l1-2h3l-1 3-3 2-3 1h-2v2l-3 1-2-3h-6l-1-2-3-1v-1l1-1 4-1 9 1Z" fill="#a8b0b8"/><path d="M236 334h1v2l-1 1 7 1 1 1v1h-2v3l-3-1v4l-3 1h-1l-1 1h-1l-4-4v-3Z" fill="#dce2e3"/><path d="M550 361h5l3 3v5l-2 3h-6l-2-1-1-4v-2l2-3Z" fill="#d7dbdc"/><path d="M665 549l4 1 2 3 5 2 2 3v3h4l1 3 4 1 1 5 2 2 3 1v3h2v3h2v2l-3-1-3-4-2-2-3-2-2-3-2-2-1-2v-2h-3l-1-1v-2h-2l-4-3-2-3-1-1v-2h-3Z" fill="#b3bbc2"/><path d="M388 515h1l1 3-1 7h4v5h5v2l-3 3-7-1-3-2 1-5h-2v-2l3-3Z" fill="#808890"/><path d="M300 418h3v3l8 8 2 1 1 3 3 1 1 3 4 2v2h2v3h2l2 3 3 1v3h3v3h-1v-2h-4v-3h-3l-1-1v-3h-3l-1-3v-2h-2l-3-2-1-1h-1l-2-3-3-3-2-3-3-2-1-2-3-1-1-4Z" fill="#929aa2"/><path d="M546 598h2v1l-3 3h-2l-3 1-1 1h-2l-1 1-4 1-7 1-1 1h-1l-1-1h-2l-2 1h-4v-1l-2-1v-1l3-1 3 1 1-2h5v2l3-2 4 1v-2h3l2-2 3-1h2Z" fill="#bfc7c7"/><path d="M709 410h1v2l-3 3 5 1v2l-2 3 2 1v2l-6 1-4 3-4 1v-2l2-3h4v-2l2-1h2l-1-2h-1l-1 1h-3l-3 3h-2v-1Z" fill="#cfd0d7"/><path d="M763 694h2l2 1 6 1v1l-1 1-5 1h-23v-4h1l1 1v2h2v-3h13ZM712 694h2l1 1h4v2l3-2h3v2h1l1-3h1l1 1v4h-27v-2l1-1h3l1 1h1v-2h3Z" fill="#979fa7"/><path d="M588 691h1l1 2h1l1-1h1l1 1 3-1h2l6 1v4h-2l-2-1v2l-6 1h-5l-1-1v-3h-3l1-3Z" fill="#a0a8b0"/><path d="M543 594h2l-1 4h-6l-4 3-5 1-1-1h-1l-1 1-7 1h-4l-1-1v-1l2-2h8l1-2h2l3 2v-2l1-1h1l1 1h2l4-2Z" fill="#aab2ba"/><path d="M758 385h2v1l-4 4h-2v3l-4 3-2 3-3 2-2 3-2 2-2 1-1 3-1 1h-2v2l-2 2-3 2-1 2h-1v-3l2-2 1-2 3-2 2-3 2-2 1-2 3-1 2-3 3-4 2-2 3-1 1-4 3-1Z" fill="#a6adb5"/><path d="M278 626l5 1v1l-3 3h-2v2l-2 1-2 3-4 3-1 2-3 2-2 3h-2v-4l3-4 1-1h2l1-3 1-1h3l2-3 2-3Z" fill="#b7bec6"/><path d="M351 467h1l23 23v1h-2l-2-1v-2h-4l1-3h-2l-1-1-4-1v-2l1-2h-4l-3-3 1-3h-2l-3-4Z" fill="#7c858d"/><path d="M658 536l3 1 2 3v2h3v3h4l1 3 1 1 3 1 1 3v2h-3l-3-2-1-1v-2h-3l-1-1-1-4-2-2v-2h-2l-2-2Z" fill="#c6cbce"/><path d="M505 361h2l1 1v2h2l1 3v5h-2l-1-1h-4l-1 1h-2v-5l2-5Z" fill="#dfe0e1"/><path d="M394 510h1l12 12v1l-3 3h-2v-3h-2l-3-2v-5h-2v2h-1Z" fill="#485860"/><path d="M361 495h4l-1 3h3l3 3 2 3 1 1 1 4 2 2 2 3 1 1v6l-1 1h-1l-1-3-1-1v-2l-1-1-1-4-2-2-1-4-1-1-3-1-2-3-2-2Z" fill="#c5cacd"/><path d="M678 683h1l2 2 3 1 2-3h1v3h3v1l-1 1-4-1v2h2v3h-3l-1-2h-7l-1 1h-1l-1-1-1-4 4-1h2Z" fill="#b0b8c0"/><path d="M674 468h2v4l-2 2-3 2-3 2-1 3-3 2-2 2h-2v3l-2 3h-2v3h-2l-1-1v-2l2-4h4v-3l3-2 2-2 2-3 1-1h2v-2l2-3h3Z" fill="#929aa2"/><path d="M578 361h1l3 2 1 3 1-5h2l1 1v8l-1 2h-2l-2-2-2-3-1 6h-1l-1-1v-10Z" fill="#daddde"/><path d="M669 682h2l-1 7 1 1v1h-5v-2l-4 2h-3l-1-1v-5l4-2h2v5h3l-1-4Z" fill="#b0b8c0"/><path d="M603 360h3l1 1 1 5 1 3v3h-2l-1-1h-4l-1 1h-2v-2l2-6Z" fill="#d8dbdc"/><path d="M682 568h1v12h-2v-2h-2v6h-1l-6-6v-2h9l-2-3-2-1v-2l4 1v-2Z" fill="#9098a0"/><path d="M629 510h1v9l-1 1h-1v-2h-2v2l-3 3-1 2h-3l-2-2v-1Z" fill="#485860"/><path d="M236 355h3l9 9 2 5 3 3v2h2l2 2v2h-1l-1-1-3-1-4-4-1-4-1-1v-2h-2l-3-3-1-2-2-1v-2h-2Z" fill="#c0c4c7"/><path d="M361 361h6l2 2v3l-1 2-2 1h-4v3h-2v-10Z" fill="#dcdfe0"/><path d="M622 361h4l3 2v5l-1 3-2 2h-5v-2l5-1 1-2h-6l-1-1v-4Z" fill="#dbdedf"/><path d="M616 523h2l1 1-1 3-3 3-1 2h-2l-2-1v2l-6 6-3 2-2 2h-2v-1Z" fill="#687880"/><path d="M495 694h1l1 1-1 3-1 1h-22v-1l3-2 11-1-1 3h2v-2l1-1h5Z" fill="#979fa7"/><path d="M372 468h1l3 3v1l-2 1-1 3h2v1l-2 2-3 2h-2l-3-2v-2h-2v-1l3-1h4v-2h-2v-1l1-1h2Z" fill="#c8cad0"/><path d="M793 680l3 1-1 3-1 2-2 1-1 2-3 2h-3l-2-2v-2l2-1 1-2 4-2Z" fill="#8c99a4"/><path d="M400 361h7v3h-5v2h4v1l-1 1h-4l1 2 5 1v2h-7l-1-1v-10Z" fill="#dbdede"/><path d="M372 500h3l1 1 1 3 4 2 3 7v5l-1 5h-1l-1-6v-5h-2l-2-3-1-3-4-3Z" fill="#aab2ba"/><path d="M675 361h3l1 1v9l-1 1-6-1-1-1v-3l1-4Z" fill="#e0e2e2"/><path d="M460 694h1l2 2h3v3h-18v-3l2-1h8v2l1 1v-2Z" fill="#979fa7"/><path d="M654 497h2v2l-3 2-3 5-2 2-3 2-2 5h-2v-5l2-2 2-1v-3l1-2 3-2 3-1h2Z" fill="#aab2ba"/><path d="M349 361h2l2 2 1 4v3l-6 1-1 1h-2v-4l2-3 1-3Z" fill="#daddde"/><path d="M564 361h6l2 2v3l-1 1v5h-2l-1-2-3-1v4h-2v-7h6v-3l-6 1v-2Z" fill="#d8dcdd"/><path d="M563 360h7v1l-6 1v1h5v3h-6v7h2v-4h3l1 1v2h2v-2h1v4h-3l-2-3-1 3h-4l-1-10 1-3Z" fill="#e6e7e9"/><path d="M536 360h7l1 1v3l-3 1-2-1v3h3v1l-3 1-1 3h-2l-1-6v-4Z" fill="#dfe1e2"/><path d="M502 694h1l1 1h5l3 1 3-1h2v4h-18v-2l2-1Z" fill="#979fa7"/><path d="M435 361h2l2 3 2 6v2l-1 1h-1l-1-2-6-1v-3l1-4Z" fill="#d9dcdd"/><path d="M549 580h3v2l-2 2-3 1-3 2h-4l-3 2-5-1v-1l2-2 6-1 7-3Z" fill="#6b7a82"/><path d="M398 534h2l1 1v2h3l3 3v3h2l7 7v2h2v2l-3-1-6-6-1-2-4-2-3-4-2-1Z" fill="#c8cdd0"/><path d="M591 361h3l2 1-1 12-1 1h-2l-1-1-1-7v-4Z" fill="#e1e3e5"/><path d="M419 361h7l2 1 1 2v2l-2 3h-6v3h-2v-6h5l1-3-6 1Z" fill="#daddde"/><path d="M575 559h4v1l-4 4-3 2-2 2-3 2-1 1h-2l-1-1 1-3 1-1 1-3h3v2h2v-2Z" fill="#b4bbc2"/><path d="M620 683h4v1l-2 3h4v-2h2l1 2h3v-2h2l2 1v1l-3 2-2 2h-3l-1 1h-1v-4l-2 1v2h-2v-3h-2Z" fill="#b0b8c0"/><path d="M329 684l8 1 1 1v1h-3l-1 2 1 1v1h-3l-1-2h-2l-4 1-1 1h-1v-5l1-1Z" fill="#afb7bf"/><path d="M270 386l3 1 2 2 2 3 3 3 3 2 2 2v4h-2l-3-3v-2h-2l-2-3-2-1-1-3-2-1-1-2Z" fill="#8d969e"/><path d="M528 361h3l1 3v4l-1 6-1 1-3-1-1-3 1-9Z" fill="#e1e3e4"/><path d="M404 526h2l2 3h2l2 2v3h2l1 1v3h-3l-1-1v-2l-4-2-4-3h-3v-1Z" fill="#959da5"/><path d="M772 371h1v2l-3 3-1 3-2 2h-2v2l-1 1h-2v2l-5 5-1 2h-2v-3l3-2 2-2 3-5h2v-2l2-2 1-2 3-2Z" fill="#bcc2c6"/><path d="M619 363h1l1 4 6 1v2l-1 1h-5v2l5-1 1-1 2-7h1v7l-2 3-2 1h-4l-3-2 1-4-1-1Z" fill="#e6e7e9"/><path d="M434 360h4v2h-3l-1 1-2 7h6l2 2 1-2h1v4l-1 1h-3l-1-3h-2l-1 2h-4v-6l1-2 1-4Z" fill="#e6e6e9"/><path d="M418 362h1l1 1h5v3l-1 1h-3l-2-1v6h2v-3h6v1l-3 1h-1l-1 3-1 1-3-1-1-1v-5Z" fill="#e5e7e9"/><path d="M460 361h2v4l3-2 1-1h2v1l-1 1v4l2 2v3h-2l-1-1v-3h-3l-1 3h-2Z" fill="#dde0e0"/><path d="M684 457h1v2l-2 4h-2v3l-3 2h-4v3h-2v-4l5-5 3-1h2v-2Z" fill="#808991"/><path d="M656 491h1v5l-1 1h-2v2l-5 2-3 2h-2v-2l2-2 2-1 2-3 2-2h2l2 1Z" fill="#a2aab2"/><path d="M447 361h5l2 1v11h-1l-2-2v-2h-3v3h-2v-6h2l4 1v-4l-6 1v-2Z" fill="#d7dadc"/><path d="M704 438h1v4l-1 1-4 1v2l-2 3-2 2-3 1-2 2-1 2h-1l-1-3 1-1h2v-2l3-2 3-2 1-3 1-1h2v-2Z" fill="#8f979f"/><path d="M570 569h2l1 3h-3v2l-3 1-1 1-1 4-1 1h-1l-1-1-1 1h-1l-1-1h-2v-4h1l3 2v-3h3Z" fill="#878f97"/><path d="M573 573h1l1 1v1l-3 3-4 2v2l-3 1h-2v2l-1 1h-1v-2h-2v-1l4-2 1-1 1-4 1-1h1v2h1v-2Z" fill="#9ea6ae"/><path d="M573 564h2v3l-3 2-3 2-5 5-3-1v3h-2l-1-1v-2l5-3 4-3 4-3Z" fill="#6b7a82"/><path d="M642 685h4l8 1 2 3v2h-2l-2-1v-3h-2l1 2v2h-3l1-4-3 2-1 2h-2v-4h-3v-1Z" fill="#b1b9c1"/><path d="M363 551h2v2l-3 4h-7v3l-1 1h-3v2h-2v-2l2-2h2v-2l5-5h1v2l3-1Z" fill="#9098a0"/><path d="M211 490h3v1h-2l1 1h2l1 1v6l-3 1-2 3h-1v-2l-1-1v-3l2-2-1-1Z" fill="#1185da"/><path d="M384 758h2l-1 3 2-1h2l2 2v2l-1 1h-4l-1-1h-6l-2-1v-1l2-2h3Z" fill="#11a1e1"/><path d="M458 571h2l4 3 3 2 4 2 1 1 3 1 1 1v1l-4 1-1-1-3-1-1-2-3-1v-2h-3l-1-1v-2l-3 1v-2Z" fill="#6b7a82"/><path d="M520 695h11l2 3v1h-14v-3Z" fill="#979fa7"/><path d="M618 525h1l3 2v1l-2 2-2 1h-3v2l-2 3h-2v2l-2 3h-1v-4l2-2 1-4 3 1v-2l3-3Z" fill="#949ca4"/><path d="M778 663h2l2 2 3 1 3 2v3l2 1v-3h1l1 1 1 5h-4l-2-1-1-2v-2h-2l-6-6Z" fill="#afb7bf"/><path d="M349 472h1v2h4l1 3 7 2v2l-1 3h-1l-1-1-3-1-4-3-1-3-2-1Z" fill="#9ca4ac"/><path d="M353 363h1l2 6v5h-4l-1-2h-1l-1 2h-5v-4h1v2l3-2h6l-1-3Z" fill="#e5e6e9"/><path d="M360 360h7v1l-6 1-1 10h2v-3l4-1h2v-2l1-3h1v4l-2 3-4 1v2l-1 1h-3l-1-1v-12Z" fill="#e6e7e9"/><path d="M448 565h1v2h5l3 2 1 1v3h2v2l-2 1h-2v-5l-3 1-1-1-3-1-2-2Z" fill="#7b858d"/><path d="M592 549h3v3h2v1h-4v3h-2v2l-1 1h-3v-1l-1-1v-1l3-4h2v-2Z" fill="#8c949c"/><path d="M624 533h1l1 1h3v1l-3 3-3 2-1 1h-3v2h-2v2l-1 1h-2l1-4 3-2h2v-3l1-1h1Z" fill="#c8ccd0"/><path d="M635 367h5v3l-1 1h-3l-2-1v2l8-1v2l-3 2h-3l-3-2v-5Z" fill="#e6e7e9"/><path d="M785 334h3l4 4v3l-1 1h-1l-3-2-6-1v-1Z" fill="#e4e6ea"/><path d="M605 547h1v3h-3l1 3-3 1h-3v4l-3 2-4 1v-2l1-1h2v-3h2v-2l3-1 1-1h2v-2h3Z" fill="#a9b1b9"/><path d="M635 361h5v1l-3 1-1 2h3l3 2v4l-1 1h-7v-2h5l1-3-6 1v-6Z" fill="#d6dadb"/><path d="M552 362h2l1 1 1 3v2l-1 3h-4l-1-1v-7Z" fill="#e9e9eb"/><path d="M224 672h3l3 2v1l3 2v1l-4 4h-1l-3-5-1-3Z" fill="#9ea8b0"/><path d="M331 570h2v2l-3 3-1 2-5 3-2 3h-3v-3h3v-2l4-3 2-3h3Z" fill="#c6ccce"/><path d="M496 684h3v3l1 1v1l-7 2-1 1h-1l-2-3v-1l2-2 2-1h2Z" fill="#b0b8c0"/><path d="M365 540h2l-1 4-4 2-2 3-3 3h-2v2l-2 2h-1l-1-1 1-3 4-3 2-1 2-3 2-2h2v-2Z" fill="#aeb6be"/><path d="M728 411h1l1 1v1h-2v2l-3 2-2 3-4 3-3 4-1 2h-2l1-4Z" fill="#7a848c"/><path d="M783 357h3v1l-7 7-3 5-1 1h-2v-4Z" fill="#bbc1c3"/><path d="M386 684h1v3l-4 2 2 1v1l-5 1h-3l1-7h4v2l3-2Z" fill="#afb7bf"/><path d="M387 362h3v9h4v2h-6l-1-1Z" fill="#dadfdf"/><path d="M795 342h1l1 3-3 2-1 1 1 1v1l-3 4-3 2-1 2-3-1v-1l6-6v-2l4-4Z" fill="#c3cbd0"/><path d="M448 685h6l1 1h1l1-1h2v2l-3 3h-1l-1-1h-1l-1 1-7-1v-1l3-1Z" fill="#b0b8c0"/><path d="M256 684h2v3h2l2 1v1l-3 1h-10v-2l1-1 3-1Z" fill="#afb7bf"/><path d="M367 535h2v1l-3 4-2 3-3 2-3 4-3 2h-1v-2l1-2 3-2 2-3 3-3 2-1Z" fill="#bdc4c6"/><path d="M753 393l3 1-1 3-2 3h-4v2l-1 1h-2v-2h2v-4l3-3Z" fill="#c6cbce"/><path d="M489 361h6l1 1v1h-7l1 5v3l4-1h2v1l-1 1h-7l-1-2v-7Z" fill="#d5d9db"/><path d="M729 683h1v2l5-1 1-1h2v3l-2 2-5 2-1 1h-2v-2l1-1Z" fill="#b0b8c0"/><path d="M701 592l5 1 1 1v2h-2l-3-1v4l-2 2-4 1-2-2v-1l4-1h2v-4Z" fill="#9fa7af"/><path d="M662 360h3l1 2v4l-1 6h-2v-8h-3v-3Z" fill="#dddfe0"/><path d="M353 691h2l2 2h4v1l-2 1h-2v2l-3 1-2-3-4-1v-1l1-1Z" fill="#a0a8b0"/><path d="M437 684h2v3h2v-2h4v1l-2 3h2v2l-1 1h-1l-1-1-3-1-3-3h-1v-2Z" fill="#aeb6be"/><path d="M298 611h1l1 1v2h4l2 3v5h-3v-4l-1-1-4-1v-2h-2v-1Z" fill="#a0a8b0"/><path d="M653 535h1v2h3l3 3 2 1 2 3 1 1v4h-1l-3-2-2-3-1-3-2-2-3-1Z" fill="#b1b9c1"/><path d="M644 487h5v2h-1l-1 1h-4v2l-3 2-3 2h-3v-1l4-4 3-1Z" fill="#c8c8d0"/><path d="M695 453h2l-1 3-2 1-2 3-6 6h-1v-2l2-4 2-1v-2l3-2Z" fill="#acb3b9"/><path d="M236 357h2v2h2l3 4 3 2 2 3v4h-1l-3-4-4-4-2-3-2-3Z" fill="#ccd2d4"/><path d="M606 692h8l3 2v1l-1 1h-3v2h-3v-1l1-1h-2l-1 1h-1l-1-1Z" fill="#a0a8b0"/><path d="M430 684h1l2 2 2 1v6h-2v-4l-3 1-1 1h-1l-1-1v-2l2-3Z" fill="#b0b8c0"/><path d="M742 638h2v4h3l1 1v1l-2 2h-2l-5-1-2-2v-2h2l1 1 3 1-1-2Z" fill="#98a0a8"/><path d="M706 586l3 1 1 2 2 1v3h3l1 2 3 2v3h-3l-2-3-1-2-2-1-2-3-3-3Z" fill="#c0c7c7"/><path d="M471 585h2l1 1 3 1v2h3l1 1 5 1v1l-2 1h-4l-2-2h-2l-1-1h-3v-2l-2-1v-1Z" fill="#98a0a8"/><path d="M357 466h2v3h2l1 3-2 3h-1l-7-7v-1h2l3 1Z" fill="#bec5c8"/><path d="M557 683h3l3 2v-2h3l1 1v1l2 1v1h-2v2h-3l-4-3-3-1Z" fill="#b0b8c0"/><path d="M326 578h1v2l-1 2h-1l-3 3-1 3h-3l-2 2h-1v-2l1-1 1-3 3-2h2l2-3Z" fill="#bfc6c7"/><path d="M351 564h3l1 1v1l-3 2-1 1h-1v-2h-4v3h-3l-1-1v-1l3-3Z" fill="#9098a0"/><path d="M593 553h3v2h-2v3l-2 1-1 3h-3v3l-4 1v-3l5-3 1-3v-2l3 1Z" fill="#9da5ad"/><path d="M612 546h2l-1 4h-2v2l-1 2-3-1 1 2v2h-2v2l-3-1v-2l2-2 2-3 3-2h2Z" fill="#caced2"/><path d="M725 417h3v2l-1 1h-3v2l-4 3-2 2-1 2h-2v-2l3-4 2-2 3-2Z" fill="#939ba3"/><path d="M306 605h5v3l-5-1v3l-2 3h-2l-1-5 2-2h2Z" fill="#a0a8b0"/><path d="M676 555h2l5 5 3 2 1 3h-4l-1-1v-3h-4l-2-5Z" fill="#c5cbcd"/><path d="M616 523h2l1 1-1 3-3 3-1 2h-2l-1-1v-3Z" fill="#727f87"/><path d="M352 479l3 1 1 1 3 1 2 2 1 3-1 1v1h-2l-2-3-3-2v-3h-2Z" fill="#aab1b8"/><path d="M671 468h1v3l-3 5-5 2-1 1h-2v-1Z" fill="#707d85"/><path d="M547 367h1v4h8l1-2h1v3l-2 2-2 1h-3l-3-1-1-1-1-3v-2Z" fill="#e5e6e8"/><path d="M646 363h1l1 8 7 1v-3h1v4l-3 2h-3l-3-2-1-1-1-4v-2Z" fill="#e6e7e9"/><path d="M689 693h1v3h3v2l-2 1h-4l-4-1v-3h6Z" fill="#979fa7"/><path d="M687 565h1l3 2 1 2h2l1 4h-5l-3-3Z" fill="#c5cbcd"/><path d="M678 364h1l1 4 1 1v2l-1 3h-4l-1-1-4-1-2-2 1-3h1l1 3 6 1Z" fill="#e6e7e8"/><path d="M649 363h4l1 2v3l-1 3h-3l-1-2Z" fill="#e9e9eb"/><path d="M670 556h1l1 1v1l-1 1v4h-2v2h-1v-2h-5v-2l1-1h2l2 1v-4Z" fill="#9098a0"/><path d="M402 529h1l4 3 2 3v2l-3-1-2-2-3-1h-4v-1l2-2Z" fill="#a9b1b8"/><path d="M363 479h1l11 11v1h-2l-2-1v-2h-4l1-3h-2l-3-3Z" fill="#687880"/><path d="M743 390h2l3 1v1l-6 6-4-1v-2l1-1 3 1v-3Z" fill="#c7c9d1"/><path d="M609 369h1v5l-1 1-3-1-1-1-3-1v2h-3l-1-1v-3h1v2l3-2h4l3 2Z" fill="#e6e8ea"/><path d="M647 687h2v3l2 1-1-2v-2h2v3h2v1l-5 3h-2v-3h-2v-2Z" fill="#a8b0b8"/><path d="M287 622h1v2l3-2h2v2l-2 2-3 2-1 1h-2v-2h-2v-1l2-1Z" fill="#a0a8b0"/><path d="M332 467h2l3 2 4 4 1 4h-3l-1-2h-1l-1-1-1-3-3-3Z" fill="#d0d6d8"/><path d="M313 438h2l3 2v2h2l1 1v3h3v3h-2l-2-1-2-4-3-2-2-3Z" fill="#acb3b9"/><path d="M709 436h1v4l-2 2-2 1-1 3-2 2h-1v-3l2-3 1-4 3-1Z" fill="#a6adb5"/><path d="M248 365h1l4 4v2h2v2h2l2 3v2h-2l-2-3-2-1-2-3-2-2-1-2Z" fill="#aab1b9"/><path d="M516 362h2v9h5v2h-6l-1-1Z" fill="#d8dcdd"/><path d="M494 604h4l14 2v1l-1 1h-6v-2l-5 1h-5l-1-1Z" fill="#c0c8c8"/><path d="M736 579h2l-1 4-1 1-1 4-2 1-1 2h-1l-1-1v-3l2-3 3-2Z" fill="#d0d8d8"/><path d="M681 473h3v1l-2 3-3 2-3 4-1 2h-3l1-3 4-4 1-2 2-1Z" fill="#c8ccd0"/><path d="M740 694h2l1 1v1l-2 3h-10v-3h4v2h4v-3Z" fill="#969ea6"/><path d="M665 546h4v2l3 3 2 1 1 3h-2l-3-2-1-1v-2h-3l-1-1Z" fill="#bcc4c7"/><path d="M289 480l3 1v2l-1 1-4 1-2 1h-2l-1-1v-1l1-1h2v-2h2Z" fill="#f0f0f0"/><path d="M767 622h7v2l-4 1-3 2v2h-3v-2Z" fill="#d0d0d8"/><path d="M519 588h3l1 2 3 1 2 3v1h-2l-1 1h-2v-2h-2v-5h-2Z" fill="#889098"/><path d="M375 546l3 1 1 5-3 2-1 1h-1v-2l1-1v-2l-1 1h-2v-3Z" fill="#99a1a9"/><path d="M596 543h1v3l-2 3-3 1-1 2-3 2h-3v-1l3-2Z" fill="#697981"/><path d="M427 542h7v2h-2v2h6v1l-3 1-1 1h-1l-6-6Z" fill="#b2bac1"/><path d="M324 449h5l1 3v2h2v3h-1l-4-3v-2h-3Z" fill="#a8afb7"/><path d="M635 507h2l-1 3v2l1 3v3l-1 2h-1l-1-1-1-3v-2l1-5Z" fill="#808890"/><path d="M361 483h4l3 2v2l3 1v2h2v1h-3l-1-1-5-2v-4h-3Z" fill="#878f97"/><path d="M402 364h2l3 1 1 1v2l-1 1v2h-5l-1-1v-2l4-1-3-1Z" fill="#e7e8eb"/><path d="M675 361h3l1 1v8h-5v-1h2v-4l-2-1v-2Z" fill="#d5d9da"/><path d="M721 683h2l2 1v2l-1 3-3 2h-1l-1-1v-3l2-1Z" fill="#afb7bf"/><path d="M798 678h1l1 3v2l-2 3-2 3h-1v-7l2-3Z" fill="#158dc7"/><path d="M377 482h1v8l-1 2h-1l-3-3v-1l2-2 1-3Z" fill="#bcc3c5"/><path d="M732 416h2v1l-2 3h-2v2l-2 3-2 2h-1v-3l2-2 1-3Z" fill="#c1c7ca"/><path d="M515 362h1l1 10 6 1v-2h2l-1 3-3 1-6-1-1-1Z" fill="#e7e7e9"/><path d="M527 587h4v2l-2 3h-1l-1-1v-2h-2v2h-2l-1-1v-2Z" fill="#687880"/><path d="M793 578h1v2l-1 6h-3l-2-3v-1l2-2Z" fill="#d0d8d8"/><path d="M651 494h2l-1 4-2 1-2 3-2 1h-2v-2l2-2 2-1 2-3Z" fill="#979fa7"/><path d="M334 459h1l1 1v2h2l2 1 2 3 1 1v3h-1l-1-2-2-1v-2h-2l-4-4v-1Z" fill="#adb4bb"/><path d="M366 758h2l1 1 5 1v1l-2 2-3 1h-2v-1l-1-1Z" fill="#11a1e1"/><path d="M678 695h3v4h-9l1-3h4v2h2Z" fill="#969ea6"/><path d="M499 669h6l1 1v1l-5 2h-5v-1Z" fill="#c8cdd0"/><path d="M268 654h1v5l-1 3h-4v-1l1-1 1-4h-2v-1Z" fill="#98a0a8"/><path d="M308 598h3v1l-8 8h-1l-1-3 4-3 2-1Z" fill="#b6bec5"/><path d="M439 557h1v2h2l3 2 1 1v1l2 1v1h-4l-1-1v-2h-3l-1-1Z" fill="#808890"/><path d="M348 553h2v2l-1 2h-2v2l-3 1-1 1h-1v-3l3-2 1-2Z" fill="#c6ccce"/><path d="M623 530h2l3 3v1l-1 1h-1l-1-1h-2l-3 2h-1v-2l2-3Z" fill="#b6bcc2"/><path d="M361 489h2l3 2 1 1 3 1v5h-2v-3h-2l-1-2-3-1Z" fill="#a8b0b8"/><path d="M712 429h3v1l-4 4-2 3-1 1h-3v-1l3-4 3-2Z" fill="#939ba3"/><path d="M460 361h2v4l3-2 1-1h2v1l-2 2-1 2h-5Z" fill="#d1d6d9"/><path d="M447 580h5l1 3 1 1v1l-1 1-3-1-3-2Z" fill="#bec6c7"/><path d="M409 538l5 1 2 4 1 1v2h-3l-1-1-1-3v-2h-3Z" fill="#aab2ba"/><path d="M665 481h2v1l-2 2-1 3h-3v3l-1 1h-2l1-3 1-3 3-2Z" fill="#9fa7af"/><path d="M664 472h3v1l-7 7h-1l-1-3h2v-2l3-2Z" fill="#bbc0c6"/><path d="M331 450h4l4 4v4h2v1l-1 1h-1l-1-1-1-3v-2h-3v-3h-3Z" fill="#7a848c"/><path d="M260 376h2l7 7 1 3h-3l-1-3-3-3-3-2Z" fill="#929aa2"/><path d="M543 761h2l1 4-1 2h-1l-1-1h-1l-1-1h-2l-2-1v-1l1-1 5 1Z" fill="#10a0e0"/><path d="M425 760h4v3l-2 2-3 1-1-1v-3h2Z" fill="#11a1e1"/><path d="M694 693h1l1 2h2l1-1h1v5h-6v-3l-1-1v-1ZM255 666h3v2l-1 1-1 5-1 1h-2v-2l1-5Z" fill="#98a0a8"/><path d="M474 656h4l1 1v2l-3 1h-3v2h-1v-3Z" fill="#d0d0d8"/><path d="M301 624h3v2l-3 4-3 2h-1v-2l1-2h2v-3Z" fill="#a2a9b1"/><path d="M581 566h3v4l-1 1h-3l-1 1h-1v-3Z" fill="#a1a9b1"/><path d="M503 366h1v2l3-1 1-1h1l1 2v2h-5l-2 2h-2v-2Z" fill="#d6dbdb"/><path d="M231 350l4 1 3 3v1h-2v2h-1l-3-3-1-2Z" fill="#cdd2d5"/><path d="M570 569h2l1 3h-3v2l-3 1-1 1h-2v-1Z" fill="#818991"/><path d="M660 557h2v3l-1 1v2l1 2v2h-1l-3-3v-4h2Z" fill="#9098a0"/><path d="M424 535h2l2 3v1h-2v2h-1l-4-4v-1Z" fill="#b3bac1"/><path d="M385 511h1l1 3v7h-2v2h-1v-4Z" fill="#98a0a8"/><path d="M351 467h1l8 8v1l-1 1h-1l-2-3-3-2-2-3Z" fill="#687880"/><path d="M587 366h1v8l-1 1-3-1-2-2v-2h1l3 2v-2Z" fill="#e6e8eb"/><path d="M225 910h1l1 1 1-1h1l3 4v1h-2l-6-2-1-1v-1Z" fill="#24c1f4"/><path d="M398 683l3 1v1l-2 1h-2v2l-1 2h2v1h-3v-4h-2v-1l1-1h4Z" fill="#b0b8c0"/><path d="M692 684h3v3l-1 1v4l-3-1-1-1v-3h3Z" fill="#afb7bf"/><path d="M490 666h2v2h2v1l-2 3h-3l-1-1v-1l1-1v-2Z" fill="#c0c8c8"/><path d="M279 633h2v2l-3 4-1 2h-2v-4l3-2Z" fill="#98a0a8"/><path d="M717 603h1l3 3v1l-2 3h-2v-2h-2v-1l1-1ZM454 578h3l1 1 3 1 2 3v1h-2l-1-1h-1l-1-1-3-1Z" fill="#a0a8b0"/><path d="M613 537h3l-1 3-2 2-1 2-3-1v-1l3-4Z" fill="#aab2ba"/><path d="M603 360h3l1 1v5l-1 2h-3v-3l1-1h2l-1-2-2-1Z" fill="#e4e4e5"/><path d="M453 756h1l2 2 1 3 3 2v1l-3 1-3-5-2-2v-1Z" fill="#18a7e8"/><path d="M440 664l3 1 2 1v-2h1v3l-5 3h-1l-1-1v-1l1-1Z" fill="#c2c8ca"/><path d="M760 657h1l1 1v2l-1 4-1 1h-1l-1-1v-2h2v-2h-3v-1Z" fill="#98a0a8"/><path d="M293 616h1l1 2 1-1h2v3h-8v-1Z" fill="#a1a9b1"/><path d="M252 586h4v2h-2v3l-2 2h-1l-1-1v-1l1-1Z" fill="#d8e0e0"/><path d="M237 582h2v4h4v3h-2l-3-2-1-1Z" fill="#d0d8d8"/><path d="M380 539h2l-1 3h-5v2h-2v-3l1-1Z" fill="#98a0a8"/><path d="M640 515h1l2 3v7h-1l-1-1v-5h-2v-2Z" fill="#a8b0b8"/><path d="M375 492h2l6 6v1h-2l-3-2-3-3Z" fill="#687880"/><path d="M296 412h1l5 5v1l-2 1h-2l-2-4Z" fill="#7c878f"/><path d="M291 410h2l4 1v5h-3l-3-5Z" fill="#939ba3"/><path d="M741 400h2v2l-1 1h-3v2l-3 3h-1v-2l2-2 1-3Z" fill="#949ca4"/><path d="M537 365h1l1 1 3 1v1l-3 1-1 3h-2v-6Z" fill="#d8dbdc"/><path d="M390 683h4v1l-1 1h-2v2h2l1 3-1 1h-1l-2-3Z" fill="#b0b8c0"/><path d="M249 671h1v3l-1 1-1 4h-1l-1-4v-2h-3v-1h5Z" fill="#98a0a8"/><path d="M406 523h2l5 5v1h-2l-3-2v-2l-2 1h-2v-1Z" fill="#697880"/><path d="M646 512l3 1v4h-2v4h-1l-1-1v-5Z" fill="#c8cbd0"/><path d="M314 484h1l1 1v1l-1 1h-4l-1 1-4-1v-2h3Z" fill="#f0f0f0"/><path d="M357 478l5 1v2l-1 3h-1l-3-2Z" fill="#929aa2"/><path d="M473 370h3v4l-1 3h-2Z" fill="#e0e4e5"/><path d="M802 361h1v9l-3-1v-4l1-1Z" fill="#cedfe4"/><path d="M595 694h2v2l-1 1h-2v2h-3v-3ZM471 694h2l1 1v1l-1 1h-3v2h-3l1-3Z" fill="#98a0a8"/><path d="M781 687h1v2h2l2 2v1l-1 1h-2l-3-2v-2Z" fill="#9ca7b0"/><path d="M555 686h2v3l1 1v1h-4v-3h-3v-1Z" fill="#afb7bf"/><path d="M769 656h1l1 1-1 3h-2l1 3h-2l-2-1v-2l3-2Z" fill="#98a0a8"/><path d="M521 614h5l1 1v1l-1 1-4-1v2l-3-1-1-1v-1Z" fill="#d0d8d8"/><path d="M701 603h7v2h-6v2h-1l-1-1v-2Z" fill="#a0a8b0"/><path d="M334 578h2l2 1v1h-2v4h-3v-5Z" fill="#9098a0"/><path d="M585 567h3v1l-2 2-1 2-3 2h-2v-1l3-3Z" fill="#b3bbc3"/></svg>